elusive.sfdir

StartChar: uniF000
Encoding: 61440 61440 0
Width: 1000
VWidth: 0
Flags: H
LayerCount: 2
Fore
SplineSet
500 159 m 0
 519.333 159 537.667 162.667 555 170 c 0
 572.333 177.333 587.333 187.333 600 200 c 0
 612.667 212.667 622.667 227.667 630 245 c 0
 637.333 262.334 641 280.667 641 300 c 0
 641 319.334 637.333 337.667 630 355 c 0
 622.667 372.333 612.667 387.333 600 400 c 0
 587.333 412.667 572.333 422.667 555 430 c 0
 537.666 437.333 519.332 441 500 441 c 0
 480.667 441 462.333 437.333 445 430 c 0
 427.667 422.667 412.667 412.667 400 400 c 0
 387.333 387.333 377.333 372.333 370 355 c 0
 362.667 337.667 359 319.333 359 300 c 0
 359 280.667 362.667 262.333 370 245 c 0
 377.333 227.667 387.333 212.667 400 200 c 0
 412.667 187.333 427.667 177.333 445 170 c 0
 462.334 162.667 480.668 159 500 159 c 0
954 377 m 1
 960.667 376.328 966.167 373.661 970.5 369 c 0
 974.833 364.331 977 358.664 977 352 c 2
 977 248 l 2
 977 241.333 974.833 235.667 970.5 231 c 0
 966.167 226.333 960.667 223.667 954 223 c 2
 833 211 l 1
 825 182.333 813.333 154.667 798 128 c 1
 875 34 l 2
 879.694 28.6667 881.86 22.8333 881.5 16.5 c 0
 881.167 10.1667 878.667 4.66667 874 0 c 2
 800 -74 l 2
 795.333 -78.6667 789.333 -81 782 -81 c 0
 776 -81 770.667 -79 766 -75 c 2
 672 2 l 1
 645.333 -13.3333 617.667 -25 589 -33 c 1
 577 -154 l 2
 576.333 -160.667 573.667 -166.167 569 -170.5 c 0
 564.333 -174.833 558.667 -177 552 -177 c 2
 448 -177 l 2
 441.33 -177 435.663 -174.833 431 -170.5 c 0
 426.327 -166.167 423.66 -160.667 423 -154 c 2
 411 -33 l 1
 382.333 -25 354.666 -13.3333 328 2 c 1
 234 -75 l 2
 228.666 -79 223.332 -81 218 -81 c 0
 210.667 -81 204.667 -78.6667 200 -74 c 2
 126 0 l 2
 121.333 4.66667 118.833 10.1667 118.5 16.5 c 0
 118.167 22.8333 120.333 28.6667 125 34 c 2
 202 128 l 1
 186.667 154.667 175 182.333 167 211 c 1
 46 223 l 2
 39.3333 223.668 33.8333 226.335 29.5 231 c 0
 25.1667 235.668 23 241.334 23 248 c 2
 23 352 l 2
 23 358.667 25.1667 364.333 29.5 369 c 0
 33.8333 373.667 39.3333 376.333 46 377 c 2
 167 389 l 1
 175 417.667 186.667 445.333 202 472 c 1
 125 566 l 2
 120.333 571.333 118.166 577.167 118.5 583.5 c 0
 118.833 589.833 121.333 595.333 126 600 c 2
 200 674 l 2
 204.667 678.667 210.667 681 218 681 c 0
 223.333 681 228.667 679 234 675 c 2
 328 598 l 1
 354.667 613.333 382.333 625 411 633 c 1
 423 754 l 2
 423.667 760.667 426.333 766.167 431 770.5 c 0
 435.667 774.833 441.333 777 448 777 c 2
 552 777 l 2
 558.675 777 564.342 774.833 569 770.5 c 0
 573.684 766.167 576.351 760.667 577 754 c 2
 589 633 l 1
 617.669 625 645.336 613.333 672 598 c 1
 766 675 l 2
 770.667 679 776 681 782 681 c 0
 789.333 681 795.333 678.667 800 674 c 2
 874 600 l 2
 878.667 595.333 881.167 589.833 881.5 583.5 c 0
 881.833 577.158 879.667 571.325 875 566 c 2
 798 472 l 1
 813.333 445.333 825 417.666 833 389 c 1
 954 377 l 1
 954 377 l 1
EndSplineSet
EndChar

StartChar: uniF002
Encoding: 61442 61442 1
Width: 1000
VWidth: 0
Flags: H
LayerCount: 2
Fore
SplineSet
708 731 m 0
 744 731 777.833 724.167 809.5 710.5 c 0
 841.167 696.833 869 678 893 654 c 0
 917 630 936 602 950 570 c 0
 964 538 971 504 971 468 c 0
 971 428.667 966.833 393.167 958.5 361.5 c 0
 950.165 329.833 939.332 301 926 275 c 0
 912.667 249 898 225.5 882 204.5 c 0
 866 183.5 850.333 163.667 835 145 c 2
 822 130 l 2
 810 115.333 794.333 99 775 81 c 0
 755.667 63 735 44.6667 713 26 c 0
 691 7.33334 668.833 -10.8333 646.5 -28.5 c 0
 624.167 -46.1667 603.667 -61.8333 585 -75.5 c 0
 566.333 -89.1667 550.833 -100.5 538.5 -109.5 c 0
 526.163 -118.5 519.329 -123.667 518 -125 c 0
 512.663 -129 506.663 -131 500 -131 c 0
 492.667 -131 486.667 -129 482 -125 c 0
 480 -123.667 473 -118.5 461 -109.5 c 0
 449 -100.5 433.667 -89.1667 415 -75.5 c 0
 396.333 -61.8333 375.833 -46.1667 353.5 -28.5 c 0
 331.167 -10.8333 309 7.33333 287 26 c 0
 265 44.6667 244.333 63 225 81 c 0
 205.667 99 190 115.333 178 130 c 2
 165 145 l 2
 149.667 163.667 134 183.5 118 204.5 c 0
 102 225.5 87.3333 249 74 275 c 0
 60.6667 301 49.8333 329.833 41.5 361.5 c 0
 33.1667 393.167 29 428.667 29 468 c 0
 29 504 36 538 50 570 c 0
 64 602 83 630 107 654 c 0
 131 678 158.833 696.833 190.5 710.5 c 0
 222.167 724.167 256 731 292 731 c 0
 334 731 373 721.833 409 703.5 c 0
 445 685.167 475.333 660 500 628 c 1
 524.667 660 555 685.167 591 703.5 c 0
 627 721.833 666 731 708 731 c 0
EndSplineSet
EndChar

StartChar: uniF007
Encoding: 61447 61447 50
Width: 1000
VWidth: 0
Flags: H
LayerCount: 2
Fore
SplineSet
500 -200 m 0
 454 -200 409.667 -194 367 -182 c 0
 324.333 -170 284.5 -153.167 247.5 -131.5 c 0
 210.5 -109.833 176.833 -83.8333 146.5 -53.5 c 0
 116.167 -23.1667 90.1667 10.5 68.5 47.5 c 0
 46.8333 84.5 30 124.333 18 167 c 0
 6 209.667 0 254 0 300 c 0
 0 346 6 390.333 18 433 c 0
 30 475.667 46.8333 515.5 68.5 552.5 c 0
 90.1667 589.5 116.167 623.167 146.5 653.5 c 0
 176.833 683.833 210.5 709.833 247.5 731.5 c 0
 284.5 753.167 324.333 770 367 782 c 0
 409.667 794 454 800 500 800 c 0
 568.667 800 633.5 786.833 694.5 760.5 c 0
 755.5 734.167 808.5 698.5 853.5 653.5 c 0
 898.5 608.5 934.167 555.5 960.5 494.5 c 0
 986.833 433.5 1000 368.667 1000 300 c 0
 1000 254 994 209.667 982 167 c 0
 970 124.333 953.167 84.5 931.5 47.5 c 0
 909.833 10.5 883.833 -23.1667 853.5 -53.5 c 0
 823.167 -83.8333 789.5 -109.833 752.5 -131.5 c 0
 715.5 -153.167 675.667 -170 633 -182 c 0
 590.333 -194 546 -200 500 -200 c 0
758 377 m 2
 577 377 l 1
 577 558 l 2
 577 566.667 572.333 571 563 571 c 2
 437 571 l 2
 427.667 571 423 566.667 423 558 c 2
 423 377 l 1
 242 377 l 2
 233.333 377 229 372.333 229 363 c 2
 229 237 l 2
 229 227.667 233.333 223 242 223 c 2
 423 223 l 1
 423 42 l 2
 423 33.3333 427.667 29 437 29 c 2
 563 29 l 2
 572.333 29 577 33.3333 577 42 c 2
 577 223 l 1
 758 223 l 2
 766.667 223 771 227.667 771 237 c 2
 771 363 l 2
 771 372.333 766.667 377 758 377 c 2
EndSplineSet
EndChar

StartChar: uniF008
Encoding: 61448 61448 4
Width: 1000
VWidth: 0
Flags: H
LayerCount: 2
Fore
SplineSet
945 433 m 1
 951.667 433 957.167 430.667 961.5 426 c 0
 965.833 421.33 968 415.663 968 409 c 2
 968 191 l 2
 968 184.333 965.833 178.667 961.5 174 c 0
 957.167 169.333 951.667 167 945 167 c 2
 55 167 l 2
 48.3333 167 42.6667 169.333 38 174 c 0
 33.3333 178.667 31 184.334 31 191 c 2
 31 409 l 2
 31 415.667 33.3333 421.333 38 426 c 0
 42.6667 430.667 48.3334 433 55 433 c 2
 945 433 l 1
 945 433 l 1
EndSplineSet
EndChar

StartChar: uniF00A
Encoding: 61450 61450 5
Width: 1000
VWidth: 0
Flags: H
LayerCount: 2
Fore
SplineSet
978 569 m 1
 982.667 564.333 985 558.833 985 552.5 c 0
 985 546.167 982.667 540.667 978 536 c 2
 348 -94 l 2
 344 -98.6667 338.667 -101 332 -101 c 2
 331 -101 l 1
 330 -101 l 2
 324 -101 318.667 -98.6667 314 -94 c 2
 22 197 l 1
 17.3333 203 15 208.667 15 214 c 0
 15 219.333 17.3333 225 22 231 c 1
 147 356 l 1
 158.333 366 169.667 366 181 356 c 1
 331 205 l 1
 819 694 l 1
 825 698.667 830.667 701 836 701 c 0
 841.333 701 847 698.667 853 694 c 1
 978 569 l 1
 978 569 l 1
EndSplineSet
EndChar

StartChar: uniF00D
Encoding: 61453 61453 53
Width: 1000
VWidth: 0
Flags: H
LayerCount: 2
Fore
SplineSet
500 -200 m 0
 454 -200 409.667 -194 367 -182 c 0
 324.333 -170 284.5 -153.167 247.5 -131.5 c 0
 210.5 -109.833 176.833 -83.8333 146.5 -53.5 c 0
 116.167 -23.1667 90.1667 10.5 68.5 47.5 c 0
 46.8333 84.5 30 124.333 18 167 c 0
 6 209.667 0 254 0 300 c 0
 0 346 6 390.333 18 433 c 0
 30 475.667 46.8333 515.5 68.5 552.5 c 0
 90.1667 589.5 116.167 623.167 146.5 653.5 c 0
 176.833 683.833 210.5 709.833 247.5 731.5 c 0
 284.5 753.167 324.333 770 367 782 c 0
 409.667 794 454 800 500 800 c 0
 568.667 800 633.5 786.833 694.5 760.5 c 0
 755.5 734.167 808.5 698.5 853.5 653.5 c 0
 898.5 608.5 934.167 555.5 960.5 494.5 c 0
 986.833 433.5 1000 368.667 1000 300 c 0
 1000 254 994 209.667 982 167 c 0
 970 124.333 953.167 84.5 931.5 47.5 c 0
 909.833 10.5 883.833 -23.1667 853.5 -53.5 c 0
 823.167 -83.8333 789.5 -109.833 752.5 -131.5 c 0
 715.5 -153.167 675.667 -170 633 -182 c 0
 590.333 -194 546 -200 500 -200 c 0
765 160 m 2
 625 300 l 1
 765 440 l 2
 768.333 443.333 770 447 770 451 c 0
 770 455 768.333 458.333 765 461 c 2
 667 560 l 2
 663.667 562.667 660 564 656 564 c 0
 652 564 648.667 562.667 646 560 c 2
 505 419 l 1
 365 560 l 2
 361.667 562.667 358 564 354 564 c 0
 350 564 346.667 562.667 344 560 c 2
 246 461 l 1
 242.667 459 241 455.667 241 451 c 0
 241 447 242.667 443.333 246 440 c 2
 386 300 l 1
 246 160 l 2
 242.667 156.667 241 153 241 149 c 0
 241 144.333 242.667 141 246 139 c 1
 344 40 l 1
 348 37.3333 351.333 36 354 36 c 0
 357.333 36 361 37.3333 365 40 c 1
 505 181 l 1
 646 40 l 2
 648 37.3333 651.333 36 656 36 c 0
 660.677 36 664.343 37.3333 667 40 c 2
 765 139 l 2
 768.333 141.667 770 145 770 149 c 0
 770 153 768.333 156.667 765 160 c 2
EndSplineSet
EndChar

StartChar: uniF00E
Encoding: 61454 61454 7
Width: 1000
VWidth: 0
Flags: H
LayerCount: 2
Fore
SplineSet
46 40 m 2
 45.3333 38.6667 43.6667 38 41 38 c 2
 38 38 l 1
 34.6667 40 33 42.3333 33 45 c 2
 33 444 l 2
 33 447.34 34.3333 449.674 37 451 c 0
 39.6667 451.667 42.3334 451.667 45 451 c 1
 311 299 l 2
 313.667 297.667 315 295.667 315 293 c 0
 315 289.667 314 287.667 312 287 c 1
 46 40 l 2
940 -70 m 2
 942 -72.6665 942.667 -75.3332 942 -78 c 1
 940 -81.3333 937.333 -83 934 -83 c 2
 64 -83 l 2
 59.3333 -83 54.3333 -81.3333 49 -78 c 0
 46.3333 -76.6667 45 -74.6667 45 -72 c 0
 45 -69.3333 46 -67.3333 48 -66 c 2
 387 249 l 2
 389.667 251.667 392.667 252 396 250 c 2
 486 199 l 2
 498.667 191.667 511.667 191.667 525 199 c 2
 627 259 l 2
 631 261.667 634 261.333 636 258 c 1
 940 -70 l 2
971 457 m 0
 973.667 455.667 975 453.333 975 450 c 2
 975 28 l 2
 975 24.6667 973.333 22.3333 970 21 c 0
 969.333 20.3333 968.333 20 967 20 c 0
 965 20 963 21 961 23 c 2
 708 296 l 2
 706 298 705.333 300 706 302 c 1
 706 304.667 707 306.667 709 308 c 2
 963 457 l 1
 965 459 967.667 459 971 457 c 0
943 683 m 1
 952.333 683 960 680 966 674 c 0
 972 668 975 660.667 975 652 c 2
 975 556 l 2
 975 551.333 972.667 549 968 549 c 1
 964 548.333 960.333 546.667 957 544 c 2
 509 281 l 2
 508.333 280.333 507 280 505 280 c 0
 503 280 501.667 280.333 501 281 c 2
 39 544 l 2
 35 546.671 33 549.338 33 552 c 2
 33 652 l 2
 33 660.667 36 668 42 674 c 0
 48 680 55.3333 683 64 683 c 2
 943 683 l 1
 943 683 l 1
EndSplineSet
EndChar

StartChar: uniF010
Encoding: 61456 61456 8
Width: 1000
VWidth: 0
Flags: H
LayerCount: 2
Fore
SplineSet
695 571 m 0
 683 571 674.5 573.333 669.5 578 c 0
 664.5 582.671 662 590.338 662 601 c 2
 662 636 l 1
 662 671 l 2
 662 682.333 664.5 690.167 669.5 694.5 c 0
 674.5 698.833 683 701 695 701 c 0
 707.667 701 716.5 698.833 721.5 694.5 c 0
 726.5 690.161 729 682.328 729 671 c 2
 729 636 l 1
 729 601 l 2
 729 590.333 726.5 582.667 721.5 578 c 0
 716.5 573.333 707.667 571 695 571 c 0
305 571 m 0
 293 571 284.5 573.333 279.5 578 c 0
 274.5 582.671 272 590.338 272 601 c 2
 272 636 l 1
 272 671 l 2
 272 682.333 274.5 690.167 279.5 694.5 c 0
 284.5 698.833 293 701 305 701 c 0
 317.667 701 326.5 698.833 331.5 694.5 c 0
 336.5 690.161 339 682.328 339 671 c 2
 339 636 l 1
 339 601 l 2
 339 590.333 336.5 582.667 331.5 578 c 0
 326.5 573.333 317.667 571 305 571 c 0
851 636 m 1
 855 636 858.5 634.667 861.5 632 c 0
 864.5 629.333 866 626 866 622 c 2
 866 474 l 2
 866 470 864.5 466.667 861.5 464 c 0
 858.5 461.333 855 460 851 460 c 2
 149 460 l 2
 145 460 141.5 461.333 138.5 464 c 0
 135.5 466.667 134 470 134 474 c 2
 134 622 l 2
 134 626 135.5 629.333 138.5 632 c 0
 141.5 634.667 145 636 149 636 c 2
 225 636 l 1
 225 601 l 2
 225 591.667 226.333 582.5 229 573.5 c 0
 231.667 564.5 236.167 556.333 242.5 549 c 0
 248.833 541.667 257.167 535.667 267.5 531 c 0
 277.833 526.333 290.333 524 305 524 c 0
 319.667 524 332.167 526.333 342.5 531 c 0
 352.833 535.667 361.333 541.667 368 549 c 0
 374.667 556.333 379.333 564.5 382 573.5 c 0
 384.667 582.5 386 591.667 386 601 c 2
 386 636 l 1
 615 636 l 1
 615 601 l 2
 615 591.667 616.333 582.5 619 573.5 c 0
 621.667 564.5 626.167 556.333 632.5 549 c 0
 638.833 541.667 647.167 535.667 657.5 531 c 0
 667.833 526.333 680.333 524 695 524 c 0
 709.667 524 722.167 526.333 732.5 531 c 0
 742.833 535.667 751.333 541.667 758 549 c 0
 764.678 556.333 769.345 564.5 772 573.5 c 0
 774.667 582.5 776 591.667 776 601 c 2
 776 636 l 1
 851 636 l 1
 851 636 l 1
685 276 m 2
 685 280.667 682.333 283 677 283 c 2
 647 283 l 2
 645.667 283 644.667 282.667 644 282 c 2
 558 240 l 2
 555.333 238 554 235.333 554 232 c 2
 561 183 l 2
 561 181.667 561.333 180.667 562 180 c 0
 562.684 179.333 563.351 178.333 564 177 c 1
 566 175.667 568.333 175.667 571 177 c 2
 610 192 l 1
 610 -6 l 2
 610 -10.6667 612.333 -13 617 -13 c 2
 677 -13 l 2
 682.333 -13 685 -10.6667 685 -6 c 2
 685 276 l 2
378 -17 m 0
 416 -17 446.5 -8.33333 469.5 9 c 0
 492.5 26.3333 504 49.6667 504 79 c 0
 504 100.333 498 116.333 486 127 c 0
 474 137.667 461.333 145.667 448 151 c 1
 480 165.667 496 188.333 496 219 c 0
 496 239.667 487 256.167 469 268.5 c 0
 451 280.833 427 287 397 287 c 0
 363.667 287 336 282 314 272 c 1
 310.667 269.332 309.333 266.666 310 264 c 2
 317 215 l 2
 317 212.333 318 210.667 320 210 c 1
 322 208 324.333 207.667 327 209 c 0
 345.667 219 364 224 382 224 c 0
 398.667 224 408.333 221.5 411 216.5 c 0
 413.667 211.5 415 207.333 415 204 c 0
 415 198.666 412 192.833 406 186.5 c 0
 400 180.166 385 176.333 361 175 c 0
 356.333 175 354 172.667 354 168 c 2
 354 118 l 2
 354 113.333 356.333 111 361 111 c 0
 389 109.667 407 106.167 415 100.5 c 0
 423 94.8333 427 86.3333 427 75 c 0
 427 66.3333 423 59.3333 415 54 c 0
 407 48.6667 396.667 46 384 46 c 0
 372 46 360.833 47 350.5 49 c 0
 340.167 51 329.333 54 318 58 c 0
 316 58.6667 314 58.6667 312 58 c 0
 310 56.6667 309 55 309 53 c 2
 302 3 l 1
 300.667 -0.333333 302 -2.66667 306 -4 c 0
 316.667 -8.66666 328.333 -12 341 -14 c 0
 353.667 -16 366 -17 378 -17 c 0
851 409 m 1
 855 409 858.5 407.667 861.5 405 c 0
 864.5 402.333 866 399 866 395 c 2
 866 -109 l 2
 866 -113 864.5 -116.5 861.5 -119.5 c 0
 858.5 -122.5 855 -124 851 -124 c 2
 149 -124 l 2
 145 -124 141.5 -122.5 138.5 -119.5 c 0
 135.5 -116.5 134 -113 134 -109 c 2
 134 395 l 2
 134 399 135.5 402.333 138.5 405 c 0
 141.5 407.667 145 409 149 409 c 2
 851 409 l 1
 851 409 l 1
EndSplineSet
EndChar

StartChar: uniF012
Encoding: 61458 61458 9
Width: 1000
VWidth: 0
Flags: H
LayerCount: 2
Fore
SplineSet
765 730 m 1
 771.678 730 777.345 727.833 782 723.5 c 0
 786.667 719.161 789 713.328 789 706 c 2
 789 -117 l 2
 789 -123.667 786.667 -129.333 782 -134 c 0
 777.333 -138.667 771.667 -141 765 -141 c 2
 198 -141 l 2
 190.667 -141 184.667 -138.667 180 -134 c 0
 175.333 -129.333 173 -123.667 173 -117 c 2
 173 422 l 2
 173 428.667 175.333 434.333 180 439 c 0
 184.667 443.667 190.667 446 198 446 c 2
 426 446 l 2
 435.335 446 443.168 449.167 449.5 455.5 c 0
 455.833 461.835 459 469.668 459 479 c 2
 459 706 l 2
 459 713.333 461.333 719.167 466 723.5 c 0
 470.667 727.833 476.333 730 483 730 c 2
 765 730 l 1
 765 730 l 1
177 517 m 2
 171.667 517 169 519.667 169 525 c 2
 169 567 l 2
 169 569 170 571 172 573 c 2
 332 730 l 2
 334 732 336 733 338 733 c 2
 378 733 l 2
 383.333 733 386 730 386 724 c 2
 386 525 l 2
 386 519.667 383.333 517 378 517 c 2
 177 517 l 2
EndSplineSet
EndChar

StartChar: uniF013
Encoding: 61459 61459 56
Width: 1000
VWidth: 0
Flags: H
LayerCount: 2
Fore
SplineSet
500 -200 m 0
 454 -200 409.667 -194 367 -182 c 0
 324.333 -170 284.5 -153.167 247.5 -131.5 c 0
 210.5 -109.833 176.833 -83.8333 146.5 -53.5 c 0
 116.167 -23.1667 90.1667 10.5 68.5 47.5 c 0
 46.8333 84.5 30 124.333 18 167 c 0
 6 209.667 0 254 0 300 c 0
 0 346 6 390.333 18 433 c 0
 30 475.667 46.8333 515.5 68.5 552.5 c 0
 90.1667 589.5 116.167 623.167 146.5 653.5 c 0
 176.833 683.833 210.5 709.833 247.5 731.5 c 0
 284.5 753.167 324.333 770 367 782 c 0
 409.667 794 454 800 500 800 c 0
 568.667 800 633.5 786.833 694.5 760.5 c 0
 755.5 734.167 808.5 698.5 853.5 653.5 c 0
 898.5 608.5 934.167 555.5 960.5 494.5 c 0
 986.833 433.5 1000 368.667 1000 300 c 0
 1000 254 994 209.667 982 167 c 0
 970 124.333 953.167 84.5 931.5 47.5 c 0
 909.833 10.5 883.833 -23.1667 853.5 -53.5 c 0
 823.167 -83.8333 789.5 -109.833 752.5 -131.5 c 0
 715.5 -153.167 675.667 -170 633 -182 c 0
 590.333 -194 546 -200 500 -200 c 0
644 547 m 2
 481 547 l 2
 477.667 547 474.5 545.5 471.5 542.5 c 0
 468.5 539.5 467 536.333 467 533 c 2
 467 402 l 2
 467 396.667 465.333 392.167 462 388.5 c 0
 458.667 384.833 454.333 383 449 383 c 2
 317 383 l 2
 313 383 309.667 381.5 307 378.5 c 0
 304.333 375.5 303 372.333 303 369 c 2
 303 58 l 2
 303 48.6667 307.667 44 317 44 c 2
 644 44 l 2
 653.333 44 658 48.6667 658 58 c 2
 658 533 l 2
 658 536.333 656.667 539.5 654 542.5 c 0
 651.333 545.5 648 547 644 547 c 2
421 423 m 2
 424.333 423 426 424.667 426 428 c 2
 426 543 l 2
 426 546.333 424.333 548 421 548 c 2
 398 548 l 2
 396.667 548 395.833 547.833 395.5 547.5 c 0
 395.167 547.167 394.667 547 394 547 c 2
 302 456 l 2
 300.667 454.667 300 453.333 300 452 c 2
 300 428 l 2
 300 424.667 301.667 423 305 423 c 2
 421 423 l 2
EndSplineSet
EndChar

StartChar: uniF014
Encoding: 61460 61460 10
Width: 1000
VWidth: 0
Flags: H
LayerCount: 2
Fore
SplineSet
184 -21 m 0
 193.333 -30.3333 204.167 -35 216.5 -35 c 0
 228.833 -35 239.667 -30.3333 249 -21 c 0
 258.333 -11.6667 263 -0.833333 263 11.5 c 0
 263 23.8333 258.333 34.6667 249 44 c 0
 239.666 53.3333 228.833 58 216.5 58 c 0
 204.166 58 193.333 53.3333 184 44 c 0
 174.667 34.6667 170 23.8333 170 11.5 c 0
 170 -0.833333 174.667 -11.6667 184 -21 c 0
852 316 m 0
 826.667 290 798.167 270 766.5 256 c 0
 734.833 242 703 235 671 235 c 0
 649.667 235 627.667 240 605 250 c 1
 336 -56 l 2
 334.667 -58 331 -62.8333 325 -70.5 c 0
 319 -78.1666 311.167 -86.3333 301.5 -95 c 0
 291.833 -103.667 280.5 -111.833 267.5 -119.5 c 0
 254.5 -127.167 240 -132 224 -134 c 0
 186.667 -139.333 150.667 -125.333 116 -92 c 1
 115 -91 l 1
 114 -91 l 1
 114 -90.3333 113.833 -90 113.5 -90 c 0
 113.167 -90 113 -89.6667 113 -89 c 0
 80.3333 -53.6667 66.3333 -17.6667 71 19 c 0
 73 35 77.8333 49.5 85.5 62.5 c 0
 93.1667 75.5 101.333 86.8333 110 96.5 c 0
 118.667 106.167 126.833 114 134.5 120 c 0
 142.167 126 147 129.667 149 131 c 2
 455 400 l 1
 445 422.667 440 444.667 440 466 c 0
 440 498 447 529.833 461 561.5 c 0
 475 593.167 495 621.667 521 647 c 0
 546.333 672.333 574.333 691.667 605 705 c 0
 635.667 718.333 666.667 724.667 698 724 c 0
 701.333 724 704 723.333 706 722 c 0
 708 720.667 712 717 718 711 c 2
 731 698 l 2
 737.667 690.667 737.667 683.667 731 677 c 2
 700 646 l 1
 667 613 l 1
 650 592.5 l 1
 644.5 576.5 l 1
 644 556 l 1
 644 543 l 2
 644 533.667 647.167 523 653.5 511 c 0
 659.833 499 669 487 681 475 c 0
 692.333 463.667 704 454.833 716 448.5 c 0
 728 442.167 738.667 439 748 439 c 2
 761 439 l 2
 769.667 439 776.5 439.167 781.5 439.5 c 0
 786.5 439.84 791.833 441.673 797.5 445 c 0
 803.167 448.333 810 454 818 462 c 2
 851 495 l 1
 882 526 l 2
 888.667 532.667 895.667 532.667 903 526 c 2
 916 513 l 2
 922 507 925.667 503 927 501 c 0
 928.333 499 929 496.333 929 493 c 0
 929.653 461.667 923.319 430.667 910 400 c 0
 896.663 369.333 877.33 341.333 852 316 c 0
EndSplineSet
EndChar

StartChar: uniF015
Encoding: 61461 61461 57
Width: 1000
VWidth: 0
Flags: H
LayerCount: 2
Fore
SplineSet
720 308 m 0
 735.333 323.333 747.167 340.833 755.5 360.5 c 0
 763.833 380.167 768 399.667 768 419 c 0
 768 421 767.5 422.667 766.5 424 c 0
 765.5 425.34 763 427.673 759 431 c 2
 751 439 l 2
 747 443.667 742.667 443.667 738 439 c 0
 734.667 435.667 731.5 432.333 728.5 429 c 0
 725.5 425.667 722.333 422.667 719 420 c 0
 710.333 410.667 703.5 403.667 698.5 399 c 0
 693.5 394.333 689.167 390.833 685.5 388.5 c 0
 681.833 386.167 678.5 385 675.5 385 c 2
 663 385 l 1
 654 385 l 2
 648.657 385 642.323 386.833 635 390.5 c 0
 627.665 394.167 620.332 399.667 613 407 c 0
 605.667 414.333 600 421.833 596 429.5 c 0
 592 437.167 590 443.667 590 449 c 2
 590 458 l 1
 590 470.5 l 1
 593.5 480.5 l 1
 604 493.5 l 1
 625 514 l 2
 627.667 517.333 630.667 520.5 634 523.5 c 0
 637.333 526.5 640.667 529.667 644 533 c 0
 648.667 537.667 648.667 542 644 546 c 2
 636 554 l 2
 632.647 558 630.314 560.5 629 561.5 c 0
 627.667 562.5 626 563 624 563 c 0
 604.667 563 585.167 558.833 565.5 550.5 c 0
 545.833 542.165 528.333 530.331 513 515 c 0
 497 499 484.5 481.167 475.5 461.5 c 0
 466.5 441.833 462 422 462 402 c 0
 462 390 465.333 376.333 472 361 c 1
 281 193 l 2
 279.667 191.667 276.5 189.167 271.5 185.5 c 0
 266.5 181.833 261.333 177 256 171 c 0
 250.667 165 245.667 158 241 150 c 0
 236.333 142 233.333 133 232 123 c 0
 229.333 100.333 238 77.6666 258 55 c 0
 258.667 55 259 54.6667 259 54 c 1
 259.667 54 260 53.6667 260 53 c 0
 282.667 33 305.333 24.3333 328 27 c 0
 338 28.3333 347 31.3333 355 36 c 0
 363 40.6667 370 45.6667 376 51 c 0
 382 56.3333 386.833 61.5 390.5 66.5 c 0
 394.167 71.5 396.667 74.6667 398 76 c 2
 566 267 l 1
 581.333 260.333 595 257 607 257 c 0
 627 257 646.833 261.5 666.5 270.5 c 0
 686.167 279.5 704 292 720 308 c 0
500 800 m 0
 568.667 800 633.5 786.833 694.5 760.5 c 0
 755.5 734.167 808.5 698.5 853.5 653.5 c 0
 898.5 608.5 934.167 555.5 960.5 494.5 c 0
 986.833 433.5 1000 368.667 1000 300 c 0
 1000 254 994 209.667 982 167 c 0
 970 124.333 953.167 84.5 931.5 47.5 c 0
 909.833 10.5 883.833 -23.1667 853.5 -53.5 c 0
 823.167 -83.8333 789.5 -109.833 752.5 -131.5 c 0
 715.5 -153.167 675.667 -170 633 -182 c 0
 590.333 -194 546 -200 500 -200 c 0
 454 -200 409.667 -194 367 -182 c 0
 324.333 -170 284.5 -153.167 247.5 -131.5 c 0
 210.5 -109.833 176.833 -83.8333 146.5 -53.5 c 0
 116.167 -23.1667 90.1667 10.5 68.5 47.5 c 0
 46.8333 84.5 30 124.333 18 167 c 0
 6 209.667 0 254 0 300 c 0
 0 346 6 390.333 18 433 c 0
 30 475.667 46.8333 515.5 68.5 552.5 c 0
 90.1667 589.5 116.167 623.167 146.5 653.5 c 0
 176.833 683.833 210.5 709.833 247.5 731.5 c 0
 284.5 753.167 324.333 770 367 782 c 0
 409.667 794 454 800 500 800 c 0
302 138 m 0
 308 144 315 147 323 147 c 0
 331 147 337.667 144 343 138 c 1
 349 132.667 352 126 352 118 c 0
 352 110 349 103 343 97 c 0
 337.667 91.6667 331 89 323 89 c 0
 315 89 308 91.6667 302 97 c 1
 296.667 103 294 110 294 118 c 0
 294 126 296.667 132.667 302 138 c 0
EndSplineSet
EndChar

StartChar: uniF019
Encoding: 61465 61465 59
Width: 1000
VWidth: 0
Flags: H
LayerCount: 2
Fore
SplineSet
749 423 m 2
 749 429 746.667 433.667 742 437 c 2
 512 615 l 2
 505.333 620.333 498 620.333 490 615 c 1
 268 437 l 2
 264 433.667 262 429 262 423 c 2
 262 102 l 2
 262 96.6667 263.667 92.3333 267 89 c 0
 270.333 85.6667 274.333 84 279 84 c 2
 411 84 l 2
 416.337 84 420.67 85.6667 424 89 c 0
 427.333 92.3335 429 96.6668 429 102 c 2
 429 299 l 1
 581 299 l 1
 581 102 l 2
 581 96.6667 582.667 92.3333 586 89 c 0
 589.333 85.6667 593.667 84 599 84 c 2
 731 84 l 2
 736.333 84 740.667 85.6667 744 89 c 0
 747.333 92.3335 749 96.6668 749 102 c 2
 749 423 l 2
500 800 m 0
 568.667 800 633.5 786.833 694.5 760.5 c 0
 755.5 734.167 808.5 698.5 853.5 653.5 c 0
 898.5 608.5 934.167 555.5 960.5 494.5 c 0
 986.833 433.5 1000 368.667 1000 300 c 0
 1000 254 994 209.667 982 167 c 0
 970 124.333 953.167 84.5 931.5 47.5 c 0
 909.833 10.5 883.833 -23.1667 853.5 -53.5 c 0
 823.167 -83.8333 789.5 -109.833 752.5 -131.5 c 0
 715.5 -153.167 675.667 -170 633 -182 c 0
 590.333 -194 546 -200 500 -200 c 0
 454 -200 409.667 -194 367 -182 c 0
 324.333 -170 284.5 -153.167 247.5 -131.5 c 0
 210.5 -109.833 176.833 -83.8333 146.5 -53.5 c 0
 116.167 -23.1667 90.1667 10.5 68.5 47.5 c 0
 46.8333 84.5 30 124.333 18 167 c 0
 6 209.667 0 254 0 300 c 0
 0 346 6 390.333 18 433 c 0
 30 475.667 46.8333 515.5 68.5 552.5 c 0
 90.1667 589.5 116.167 623.167 146.5 653.5 c 0
 176.833 683.833 210.5 709.833 247.5 731.5 c 0
 284.5 753.167 324.333 770 367 782 c 0
 409.667 794 454 800 500 800 c 0
EndSplineSet
EndChar

StartChar: uniF01A
Encoding: 61466 61466 13
Width: 1000
VWidth: 0
Flags: H
LayerCount: 2
Fore
SplineSet
975 497 m 1
 977 489.667 975.667 482.667 971 476 c 0
 966.333 469.333 960 465.333 952 464 c 0
 838 448 780.333 394.667 779 304 c 1
 882 304 l 2
 889.333 304 895.667 301.333 901 296 c 0
 906.333 290.667 909 284.333 909 277 c 2
 909 -109 l 2
 909 -117 906.333 -123.667 901 -129 c 0
 895.66 -134.333 889.327 -137 882 -137 c 2
 559 -137 l 2
 551.667 -137 545.167 -134.333 539.5 -129 c 0
 533.833 -123.667 531 -117 531 -109 c 2
 531 225 l 2
 531 357 563.333 457.667 628 527 c 0
 692.667 596.333 790 634.333 920 641 c 0
 926.667 641.667 932.667 640 938 636 c 0
 943.333 632 946.667 626.667 948 620 c 2
 975 497 l 1
 975 497 l 1
476 497 m 2
 478 489.667 476.667 482.667 472 476 c 0
 466.667 468.667 460.333 464.667 453 464 c 0
 339 448 281.333 394.667 280 304 c 1
 383 304 l 2
 390.336 304 396.67 301.333 402 296 c 0
 407.333 290.667 410 284.333 410 277 c 2
 410 -109 l 2
 410 -117 407.333 -123.667 402 -129 c 0
 396.667 -134.333 390.333 -137 383 -137 c 2
 60 -137 l 2
 52.6667 -137 46.1667 -134.333 40.5 -129 c 0
 34.8333 -123.667 32 -117 32 -109 c 2
 32 225 l 2
 32 357 64.3333 457.667 129 527 c 0
 193.667 596.333 291 634.333 421 641 c 0
 427.667 641.667 433.667 640 439 636 c 0
 444.337 632 447.67 626.667 449 620 c 2
 476 497 l 2
EndSplineSet
EndChar

StartChar: uniF01D
Encoding: 61469 61469 61
Width: 1000
VWidth: 0
Flags: H
LayerCount: 2
Fore
SplineSet
823 229 m 2
 823 238.333 819.333 245 812 249 c 2
 703 301 l 1
 715.668 309 725.835 320.333 733.5 335 c 0
 741.167 349.667 745 366.333 745 385 c 0
 745 411 737.167 433.333 721.5 452 c 0
 705.833 470.667 686.667 480 664 480 c 0
 656 480 648.5 478.667 641.5 476 c 0
 634.5 473.333 628 470 622 466 c 1
 629.333 446 633 425.667 633 405 c 0
 633 372.333 624.333 342.666 607 316 c 1
 610.333 312.667 613.5 309.667 616.5 307 c 0
 619.5 304.333 622.667 302 626 300 c 2
 697 267 l 2
 707 261.667 715 254.167 721 244.5 c 0
 727 234.833 730 224 730 212 c 2
 730 120 l 1
 805 120 l 2
 810.333 120 814.667 122.167 818 126.5 c 0
 821.333 130.833 823 136 823 142 c 2
 823 229 l 2
696 212 m 2
 696 224 691.333 232 682 236 c 2
 587 282 l 1
 547 301 l 1
 555.667 306.336 563.5 313.169 570.5 321.5 c 0
 577.5 329.833 583.333 339.333 588 350 c 0
 591.333 358 594.167 366.667 596.5 376 c 0
 598.833 385.333 600 395 600 405 c 0
 600 410.333 599.667 415.5 599 420.5 c 0
 598.333 425.5 597.333 430.667 596 436 c 0
 590 461.333 578.167 482 560.5 498 c 0
 542.833 514 522.333 522 499 522 c 0
 475.667 522 455.333 514.167 438 498.5 c 0
 420.667 482.833 409 463 403 439 c 0
 399.667 427 398 415.667 398 405 c 0
 398 385 402.333 365.667 411 347 c 0
 421 327 434.667 311.333 452 300 c 1
 414 282 l 1
 316 237 l 2
 306 232.333 301 224 301 212 c 2
 301 120 l 1
 301 104 l 2
 301 96.6667 303.167 90.5 307.5 85.5 c 0
 311.833 80.5 317.333 78 324 78 c 2
 674 78 l 2
 680 78 685.167 80.5 689.5 85.5 c 0
 693.833 90.5 696 96.6667 696 104 c 2
 696 120 l 1
 696 212 l 2
268 212 m 1
 268 224 271 234.833 277 244.5 c 0
 283 254.167 291 261.667 301 267 c 1
 375 301 l 1
 381.667 305 387 309.667 391 315 c 1
 382.332 327.667 375.665 341.667 371 357 c 0
 366.333 372.333 364 388.333 364 405 c 0
 364 416.335 365.167 427.168 367.5 437.5 c 0
 369.839 447.835 372.672 457.668 376 467 c 1
 364 475.667 350.667 480 336 480 c 0
 313.333 480 294.166 470.667 278.5 452 c 0
 262.833 433.333 255 411 255 385 c 0
 255 366.333 259 349.5 267 334.5 c 0
 275 319.5 285.667 308 299 300 c 1
 188 249 l 2
 180.667 245.667 177 239 177 229 c 2
 177 142 l 2
 177 136 178.667 130.833 182 126.5 c 0
 185.333 122.167 189.667 120 195 120 c 2
 268 120 l 1
 268 212 l 1
 268 212 l 1
500 800 m 0
 568.667 800 633.5 786.833 694.5 760.5 c 0
 755.5 734.167 808.5 698.5 853.5 653.5 c 0
 898.5 608.5 934.167 555.5 960.5 494.5 c 0
 986.833 433.5 1000 368.667 1000 300 c 0
 1000 254 994 209.667 982 167 c 0
 970 124.333 953.167 84.5 931.5 47.5 c 0
 909.833 10.5 883.833 -23.1667 853.5 -53.5 c 0
 823.167 -83.8333 789.5 -109.833 752.5 -131.5 c 0
 715.5 -153.167 675.667 -170 633 -182 c 0
 590.333 -194 546 -200 500 -200 c 0
 454 -200 409.667 -194 367 -182 c 0
 324.333 -170 284.5 -153.167 247.5 -131.5 c 0
 210.5 -109.833 176.833 -83.8333 146.5 -53.5 c 0
 116.167 -23.1667 90.1667 10.5 68.5 47.5 c 0
 46.8333 84.5 30 124.333 18 167 c 0
 6 209.667 0 254 0 300 c 0
 0 346 6 390.333 18 433 c 0
 30 475.667 46.8333 515.5 68.5 552.5 c 0
 90.1667 589.5 116.167 623.167 146.5 653.5 c 0
 176.833 683.833 210.5 709.833 247.5 731.5 c 0
 284.5 753.167 324.333 770 367 782 c 0
 409.667 794 454 800 500 800 c 0
EndSplineSet
EndChar

StartChar: uniF01E
Encoding: 61470 61470 15
Width: 1000
VWidth: 0
Flags: H
LayerCount: 2
Fore
SplineSet
840 558 m 1
 168 558 l 1
 168 191 l 1
 840 191 l 1
 840 558 l 1
895 668 m 1
 910.333 668 923.167 662.667 933.5 652 c 0
 943.833 641.333 949 628.333 949 613 c 2
 949 136 l 2
 949 120.667 943.833 107.833 933.5 97.5 c 0
 923.16 87.1667 910.326 82 895 82 c 2
 620 82 l 1
 620 -1 l 1
 684 -1 l 2
 688 -1 691.5 -2.5 694.5 -5.5 c 0
 697.5 -8.5 699 -12.3333 699 -17 c 2
 699 -52 l 2
 699 -56.6667 697.5 -60.3333 694.5 -63 c 0
 691.5 -65.6667 688 -67 684 -67 c 2
 316 -67 l 2
 312 -67 308.5 -65.6667 305.5 -63 c 0
 302.5 -60.3334 301 -56.6667 301 -52 c 2
 301 -17 l 2
 301 -12.3333 302.5 -8.5 305.5 -5.5 c 0
 308.5 -2.5 312 -1 316 -1 c 2
 380 -1 l 1
 380 82 l 1
 113 82 l 2
 97.6667 82 84.8333 87.1667 74.5 97.5 c 0
 64.1667 107.833 59 120.667 59 136 c 2
 59 613 l 2
 59.0001 628.333 64.1667 641.333 74.5 652 c 0
 84.8334 662.667 97.6668 668 113 668 c 2
 895 668 l 1
 895 668 l 1
EndSplineSet
EndChar

StartChar: uniF020
Encoding: 61472 61472 16
Width: 1000
VWidth: 0
Flags: H
LayerCount: 2
Fore
SplineSet
588 52 m 2
 588 55.3333 587.667 58.1667 587 60.5 c 0
 586.333 62.8333 585.333 64 584 64 c 2
 415 64 l 2
 413.667 64 412.667 62.8333 412 60.5 c 0
 411.333 58.1666 411 55.3332 411 52 c 2
 411 -3 l 2
 411 -6.33333 411.333 -9.16667 412 -11.5 c 0
 412.667 -13.8333 413.667 -15 415 -15 c 2
 584 -15 l 2
 585.333 -15 586.333 -13.8333 587 -11.5 c 0
 587.667 -9.16667 588 -6.33333 588 -3 c 2
 588 52 l 2
963 94 m 1
 969.667 94 975.167 91.8333 979.5 87.5 c 0
 983.833 83.1667 986 77.6667 986 71 c 2
 986 14 l 2
 986 7.33333 984 2 980 -2 c 2
 944 -38 l 2
 940 -42.6667 934.333 -45 927 -45 c 2
 70 -45 l 2
 62.6667 -45 57 -42.6667 53 -38 c 2
 19 -2 l 2
 15 2.66667 13 8 13 14 c 2
 13 71 l 2
 13 77.6667 15.3333 83.1667 20 87.5 c 0
 24.6667 91.8333 30.3333 94 37 94 c 2
 963 94 l 1
 963 94 l 1
208 232 m 1
 792 232 l 1
 792 553 l 1
 208 553 l 1
 208 232 l 1
161 138 m 1
 147.667 138 136.5 142.5 127.5 151.5 c 0
 118.5 160.5 114 171.667 114 185 c 2
 114 600 l 2
 114 613.333 118.5 624.5 127.5 633.5 c 0
 136.5 642.5 147.667 647 161 647 c 2
 839 647 l 2
 852.333 647 863.5 642.5 872.5 633.5 c 0
 881.5 624.5 886 613.333 886 600 c 2
 886 185 l 2
 886 171.667 881.5 160.5 872.5 151.5 c 0
 863.5 142.5 852.333 138 839 138 c 2
 161 138 l 1
 161 138 l 1
EndSplineSet
EndChar

StartChar: uniF024
Encoding: 61476 61476 18
Width: 1000
VWidth: 0
Flags: H
LayerCount: 2
Fore
SplineSet
807 367 m 1
 830.333 369.667 852.667 367.167 874 359.5 c 0
 895.333 351.832 914 340.165 930 324.5 c 0
 946 308.833 958.667 290 968 268 c 0
 977.333 246 982 222.333 982 197 c 0
 982 159.667 971.667 125.667 951 95 c 0
 945 85.6667 936.667 81 926 81 c 2
 82 81 l 2
 70 81 61.3333 86 56 96 c 1
 30.6667 137.333 18 182.667 18 232 c 0
 18 266 23.8333 298 35.5 328 c 0
 47.1667 358 63.3333 384 84 406 c 0
 104.667 428 128.5 445.5 155.5 458.5 c 0
 182.5 471.5 211.667 478 243 478 c 0
 259 478 274.667 476 290 472 c 1
 318 512 352.5 543 393.5 565 c 0
 434.5 587 478 598 524 598 c 0
 556.667 598 588.167 592.333 618.5 581 c 0
 648.833 569.664 676.5 553.831 701.5 533.5 c 0
 726.5 513.167 748 488.833 766 460.5 c 0
 784 432.167 797.667 401 807 367 c 1
EndSplineSet
EndChar

StartChar: uniF025
Encoding: 61477 61477 65
Width: 1000
VWidth: 0
Flags: H
LayerCount: 2
Fore
SplineSet
805 174 m 0
 819 194 826 217 826 243 c 0
 826 259.667 822.833 275.5 816.5 290.5 c 0
 810.167 305.5 801.5 318.333 790.5 329 c 0
 779.5 339.667 767 347.667 753 353 c 0
 739 358.333 724 360 708 358 c 1
 702 380.667 692.833 401.667 680.5 421 c 0
 668.167 440.333 653.5 456.833 636.5 470.5 c 0
 619.5 484.167 600.833 494.833 580.5 502.5 c 0
 560.167 510.167 538.667 514 516 514 c 0
 484.667 514 455.333 506.667 428 492 c 0
 400.667 477.333 377.333 456.333 358 429 c 1
 348 431.667 337.333 433 326 433 c 0
 304.667 433 284.833 428.667 266.5 420 c 0
 248.167 411.333 232.167 399.5 218.5 384.5 c 0
 204.833 369.5 194 351.833 186 331.5 c 0
 178 311.167 174 289.667 174 267 c 0
 174 232.333 182.333 201.667 199 175 c 0
 203 168.333 209 165 217 165 c 2
 788 165 l 2
 795.333 165 801 168 805 174 c 0
500 800 m 0
 568.667 800 633.5 786.833 694.5 760.5 c 0
 755.5 734.167 808.5 698.5 853.5 653.5 c 0
 898.5 608.5 934.167 555.5 960.5 494.5 c 0
 986.833 433.5 1000 368.667 1000 300 c 0
 1000 254 994 209.667 982 167 c 0
 970 124.333 953.167 84.5 931.5 47.5 c 0
 909.833 10.5 883.833 -23.1667 853.5 -53.5 c 0
 823.167 -83.8333 789.5 -109.833 752.5 -131.5 c 0
 715.5 -153.167 675.667 -170 633 -182 c 0
 590.333 -194 546 -200 500 -200 c 0
 454 -200 409.667 -194 367 -182 c 0
 324.333 -170 284.5 -153.167 247.5 -131.5 c 0
 210.5 -109.833 176.833 -83.8333 146.5 -53.5 c 0
 116.167 -23.1667 90.1667 10.5 68.5 47.5 c 0
 46.8333 84.5 30 124.333 18 167 c 0
 6 209.667 0 254 0 300 c 0
 0 346 6 390.333 18 433 c 0
 30 475.667 46.8333 515.5 68.5 552.5 c 0
 90.1667 589.5 116.167 623.167 146.5 653.5 c 0
 176.833 683.833 210.5 709.833 247.5 731.5 c 0
 284.5 753.167 324.333 770 367 782 c 0
 409.667 794 454 800 500 800 c 0
EndSplineSet
EndChar

StartChar: uniF026
Encoding: 61478 61478 19
Width: 1000
VWidth: 0
Flags: H
LayerCount: 2
Fore
SplineSet
750 370 m 2
 750 230 l 2
 750 223.333 747.833 217.667 743.5 213 c 0
 739.167 208.333 733.667 206 727 206 c 2
 281 206 l 2
 274.333 206 268.666 208.333 264 213 c 0
 259.333 217.667 257 223.334 257 230 c 2
 257 370 l 2
 257 376.667 259.333 382.333 264 387 c 0
 268.667 391.667 274.333 394 281 394 c 2
 727 394 l 2
 733.667 394 739.167 391.667 743.5 387 c 0
 747.833 382.332 750 376.665 750 370 c 2
504 772 m 0
 568.667 772 629.667 759.667 687 735 c 0
 744.333 710.333 794.5 676.5 837.5 633.5 c 0
 880.5 590.5 914.333 540.333 939 483 c 0
 963.667 425.667 976 364.667 976 300 c 0
 976 234.667 963.667 173.5 939 116.5 c 0
 914.333 59.5 880.5 9.5 837.5 -33.5 c 0
 794.5 -76.5 744.333 -110.333 687 -135 c 0
 629.667 -159.667 568.667 -172 504 -172 c 0
 438.667 -172 377.333 -159.667 320 -135 c 0
 262.667 -110.333 212.667 -76.5 170 -33.5 c 0
 127.333 9.5 93.6667 59.5 69 116.5 c 0
 44.3333 173.5 32 234.667 32 300 c 0
 32 364.667 44.3333 425.667 69 483 c 0
 93.6667 540.333 127.333 590.5 170 633.5 c 0
 212.667 676.5 262.667 710.333 320 735 c 0
 377.334 759.667 438.667 772 504 772 c 0
504 647 m 0
 456 647 411 637.833 369 619.5 c 0
 327 601.166 290.333 576.332 259 545 c 0
 227.666 513.666 202.833 477 184.5 435 c 0
 166.167 393 157 348 157 300 c 0
 157 252 166.167 207 184.5 165 c 0
 202.833 123 227.667 86.3333 259 55 c 0
 290.333 23.6667 327 -1.16667 369 -19.5 c 0
 411 -37.8333 456 -47 504 -47 c 0
 552 -47 597 -37.8334 639 -19.5 c 0
 681 -1.16667 717.667 23.6667 749 55 c 0
 780.333 86.3333 805.167 123 823.5 165 c 0
 841.833 207 851 252 851 300 c 0
 851 348 841.833 393 823.5 435 c 0
 805.164 477 780.33 513.667 749 545 c 0
 717.667 576.333 681 601.167 639 619.5 c 0
 597 637.833 552 647 504 647 c 0
EndSplineSet
EndChar

StartChar: uniF028
Encoding: 61480 61480 20
Width: 1000
VWidth: 0
Flags: H
LayerCount: 2
Fore
SplineSet
511 -41 m 1
 501 -47.6667 490.333 -48.3333 479 -43 c 0
 467.667 -37.6667 462 -28.3333 462 -15 c 2
 462 136 l 1
 56 136 l 2
 46.6667 136 39 139 33 145 c 0
 27 151 24 158.333 24 167 c 2
 24 447 l 2
 24 456.333 27 464 33 470 c 0
 39 476 46.6667 479 56 479 c 2
 462 479 l 1
 462 630 l 2
 462 642.667 467.667 652 479 658 c 0
 490.333 664 501 663 511 655 c 1
 964 334 l 2
 972.667 327.333 977 319 977 309 c 2
 977 308 l 2
 977 298 972.667 289.667 964 283 c 2
 511 -41 l 1
 511 -41 l 1
EndSplineSet
EndChar

StartChar: uniF02A
Encoding: 61482 61482 21
Width: 1000
VWidth: 0
Flags: H
LayerCount: 2
Fore
SplineSet
489 655 m 1
 499.667 662.333 510.667 663.333 522 658 c 1
 533.333 651.333 539 642 539 630 c 2
 539 479 l 1
 945 479 l 2
 953.667 479 961 476 967 470 c 0
 973 464 976 456.333 976 447 c 2
 976 167 l 2
 976 158.333 973 151 967 145 c 0
 961 139 953.667 136 945 136 c 2
 539 136 l 1
 539 -15 l 2
 539 -28.3333 533.333 -37.6667 522 -43 c 0
 510.667 -48.3333 499.667 -47.6667 489 -41 c 1
 37 281 l 2
 28.3333 287.667 24 296 24 306 c 0
 24 316.667 28.3333 325.333 37 332 c 2
 489 655 l 1
 489 655 l 1
EndSplineSet
EndChar

StartChar: uniF02B
Encoding: 61483 61483 68
Width: 1000
VWidth: 0
Flags: H
LayerCount: 2
Fore
SplineSet
768 391 m 2
 768 403.667 761.667 410 749 410 c 2
 505 410 l 1
 505 501 l 2
 505 507.667 501.667 513.333 495 518 c 1
 488.333 521.333 482 520.667 476 516 c 2
 204 322 l 2
 199.333 319.333 197 314.333 197 307 c 0
 197 299.667 199.333 294.667 204 292 c 2
 476 99 l 2
 482.667 94.3332 489 93.6665 495 97 c 0
 501.667 100.333 505 106 505 114 c 2
 505 205 l 1
 749 205 l 2
 754.333 205 758.833 206.667 762.5 210 c 0
 766.167 213.333 768 217.667 768 223 c 2
 768 391 l 2
500 800 m 0
 568.667 800 633.5 786.833 694.5 760.5 c 0
 755.5 734.167 808.5 698.5 853.5 653.5 c 0
 898.5 608.5 934.167 555.5 960.5 494.5 c 0
 986.833 433.5 1000 368.667 1000 300 c 0
 1000 254 994 209.667 982 167 c 0
 970 124.333 953.167 84.5 931.5 47.5 c 0
 909.833 10.5 883.833 -23.1667 853.5 -53.5 c 0
 823.167 -83.8333 789.5 -109.833 752.5 -131.5 c 0
 715.5 -153.167 675.667 -170 633 -182 c 0
 590.333 -194 546 -200 500 -200 c 0
 454 -200 409.667 -194 367 -182 c 0
 324.333 -170 284.5 -153.167 247.5 -131.5 c 0
 210.5 -109.833 176.833 -83.8333 146.5 -53.5 c 0
 116.167 -23.1667 90.1667 10.5 68.5 47.5 c 0
 46.8333 84.5 30 124.333 18 167 c 0
 6 209.667 0 254 0 300 c 0
 0 346 6 390.333 18 433 c 0
 30 475.667 46.8333 515.5 68.5 552.5 c 0
 90.1667 589.5 116.167 623.167 146.5 653.5 c 0
 176.833 683.833 210.5 709.833 247.5 731.5 c 0
 284.5 753.167 324.333 770 367 782 c 0
 409.667 794 454 800 500 800 c 0
EndSplineSet
EndChar

StartChar: uniF02E
Encoding: 61486 61486 23
Width: 1000
VWidth: 0
Flags: H
LayerCount: 2
Fore
SplineSet
156 297 m 1
 148 307 147.333 317.667 154 329 c 1
 159.333 340.333 168.333 346 181 346 c 2
 333 346 l 1
 333 752 l 2
 333 761.333 336 769 342 775 c 0
 348 781 355.333 784 364 784 c 2
 644 784 l 2
 652.667 784 660 781 666 775 c 0
 672 769 675 761.333 675 752 c 2
 675 346 l 1
 827 346 l 2
 839.667 346 848.667 340.333 854 329 c 1
 860.667 317.667 860 307 852 297 c 1
 530 -156 l 1
 524.663 -164.667 516.329 -169 505 -169 c 0
 493.667 -169 485.333 -164.667 480 -156 c 1
 156 297 l 1
 156 297 l 1
EndSplineSet
EndChar

StartChar: uniF031
Encoding: 61489 61489 71
Width: 1000
VWidth: 0
Flags: H
LayerCount: 2
Fore
SplineSet
500 -200 m 0
 454 -200 409.667 -194 367 -182 c 0
 324.333 -170 284.5 -153.167 247.5 -131.5 c 0
 210.5 -109.833 176.833 -83.8333 146.5 -53.5 c 0
 116.167 -23.1667 90.1667 10.5 68.5 47.5 c 0
 46.8333 84.5 30 124.333 18 167 c 0
 6 209.667 0 254 0 300 c 0
 0 346 6 390.333 18 433 c 0
 30 475.667 46.8333 515.5 68.5 552.5 c 0
 90.1667 589.5 116.167 623.167 146.5 653.5 c 0
 176.833 683.833 210.5 709.833 247.5 731.5 c 0
 284.5 753.167 324.333 770 367 782 c 0
 409.667 794 454 800 500 800 c 0
 568.667 800 633.5 786.833 694.5 760.5 c 0
 755.5 734.167 808.5 698.5 853.5 653.5 c 0
 898.5 608.5 934.167 555.5 960.5 494.5 c 0
 986.833 433.5 1000 368.667 1000 300 c 0
 1000 254 994 209.667 982 167 c 0
 970 124.333 953.167 84.5 931.5 47.5 c 0
 909.833 10.5 883.833 -23.1667 853.5 -53.5 c 0
 823.167 -83.8333 789.5 -109.833 752.5 -131.5 c 0
 715.5 -153.167 675.667 -170 633 -182 c 0
 590.333 -194 546 -200 500 -200 c 0
704 439 m 2
 296 439 l 2
 290.667 439 286.167 437.333 282.5 434 c 0
 278.833 430.667 277 426.333 277 421 c 2
 277 27 l 2
 277 21.6667 278.833 17.1667 282.5 13.5 c 0
 286.167 9.83333 290.667 8 296 8 c 2
 704 8 l 2
 716.667 8 723 14.3333 723 27 c 2
 723 421 l 2
 723 426.337 721.167 430.67 717.5 434 c 0
 713.833 437.333 709.333 439 704 439 c 2
729 566 m 2
 575 566 l 1
 575 590 l 2
 575 595.333 573.167 599.833 569.5 603.5 c 0
 565.833 607.167 561.333 609 556 609 c 2
 445 609 l 2
 439.667 609 435.167 607.167 431.5 603.5 c 0
 427.833 599.833 426 595.333 426 590 c 2
 426 566 l 1
 271 566 l 2
 265.667 566 261.167 564.167 257.5 560.5 c 0
 253.833 556.833 252 552.333 252 547 c 2
 252 493 l 2
 252 487.667 253.833 483.167 257.5 479.5 c 0
 261.167 475.833 265.667 474 271 474 c 2
 729 474 l 2
 741.667 474 748 480.333 748 493 c 2
 748 547 l 2
 748 559.667 741.667 566 729 566 c 2
EndSplineSet
EndChar

StartChar: uniF038
Encoding: 61496 61496 28
Width: 1000
VWidth: 0
Flags: H
LayerCount: 2
Fore
SplineSet
883 356 m 1
 891.667 356 899 353 905 347 c 0
 911 341 914 333.667 914 325 c 2
 914 -135 l 2
 914 -144.333 911 -151.833 905 -157.5 c 0
 899 -163.167 891.667 -166 883 -166 c 2
 117 -166 l 2
 108.333 -166 101 -163.167 95 -157.5 c 0
 89 -151.833 86 -144.333 86 -135 c 2
 86 325 l 2
 86 333.667 89 341 95 347 c 0
 101 353 108.333 356 117 356 c 2
 161 356 l 1
 229 356 l 1
 229 487 l 2
 229 525.667 236.5 562.334 251.5 597 c 0
 266.5 631.667 286.667 661.667 312 687 c 0
 337.333 712.333 367.167 732.5 401.5 747.5 c 0
 435.834 762.5 472.667 770 512 770 c 0
 550.668 770 586.834 762.667 620.5 748 c 0
 654.168 733.333 683.835 713.5 709.5 688.5 c 0
 735.167 663.5 755.5 634.167 770.5 600.5 c 0
 785.5 566.833 793.333 530.667 794 492 c 0
 794.667 491.318 795 489.652 795 487 c 0
 795 480.33 792.833 474.663 788.5 470 c 0
 784.167 465.333 778.667 463 772 463 c 2
 771 463 l 1
 651 463 l 2
 644.333 463 638.833 465.333 634.5 470 c 0
 630.167 474.667 628 480.333 628 487 c 0
 628 503 625 518 619 532 c 0
 613 546 604.667 558.333 594 569 c 0
 583.333 579.667 571 588 557 594 c 0
 543 600 528 603 512 603 c 0
 496 603 481 600 467 594 c 0
 453 588 440.667 579.667 430 569 c 0
 419.333 558.333 411 546 405 532 c 0
 399 518 396 503 396 487 c 2
 396 356 l 1
 682 356 l 1
 839 356 l 1
 883 356 l 1
 883 356 l 1
EndSplineSet
EndChar

StartChar: uniF039
Encoding: 61497 61497 75
Width: 1000
VWidth: 0
Flags: H
LayerCount: 2
Fore
SplineSet
500 -200 m 0
 454 -200 409.667 -194 367 -182 c 0
 324.333 -170 284.5 -153.167 247.5 -131.5 c 0
 210.5 -109.833 176.833 -83.8333 146.5 -53.5 c 0
 116.167 -23.1667 90.1667 10.5 68.5 47.5 c 0
 46.8333 84.5 30 124.333 18 167 c 0
 6 209.667 0 254 0 300 c 0
 0 346 6 390.333 18 433 c 0
 30 475.667 46.8333 515.5 68.5 552.5 c 0
 90.1667 589.5 116.167 623.167 146.5 653.5 c 0
 176.833 683.833 210.5 709.833 247.5 731.5 c 0
 284.5 753.167 324.333 770 367 782 c 0
 409.667 794 454 800 500 800 c 0
 568.667 800 633.5 786.833 694.5 760.5 c 0
 755.5 734.167 808.5 698.5 853.5 653.5 c 0
 898.5 608.5 934.167 555.5 960.5 494.5 c 0
 986.833 433.5 1000 368.667 1000 300 c 0
 1000 254 994 209.667 982 167 c 0
 970 124.333 953.167 84.5 931.5 47.5 c 0
 909.833 10.5 883.833 -23.1667 853.5 -53.5 c 0
 823.167 -83.8333 789.5 -109.833 752.5 -131.5 c 0
 715.5 -153.167 675.667 -170 633 -182 c 0
 590.333 -194 546 -200 500 -200 c 0
724 380 m 2
 698 380 l 1
 606 380 l 1
 438 380 l 1
 438 457 l 2
 438 475.667 444.5 491.667 457.5 505 c 0
 470.5 518.333 486.667 525 506 525 c 0
 525.333 525 541.5 518.333 554.5 505 c 0
 567.5 491.667 574 475.667 574 457 c 0
 574 447.667 578.667 443 588 443 c 2
 658 443 l 1
 659 443 l 2
 667.667 443 672 447.667 672 457 c 2
 672 460 l 1
 671.333 482.667 666.667 503.833 658 523.5 c 0
 649.333 543.169 637.5 560.335 622.5 575 c 0
 607.5 589.671 590 601.338 570 610 c 0
 550 618.667 528.667 623 506 623 c 0
 483.333 623 461.833 618.667 441.5 610 c 0
 421.167 601.333 403.5 589.5 388.5 574.5 c 0
 373.5 559.5 361.667 541.833 353 521.5 c 0
 344.333 501.167 340 479.667 340 457 c 2
 340 380 l 1
 301 380 l 1
 275 380 l 2
 269.667 380 265.167 378.333 261.5 375 c 0
 257.833 371.667 256 367.333 256 362 c 2
 256 92 l 2
 256 86.6667 257.833 82.1667 261.5 78.5 c 0
 265.167 74.8333 269.667 73 275 73 c 2
 724 73 l 2
 729.333 73 733.667 74.8333 737 78.5 c 0
 740.333 82.1667 742 86.6667 742 92 c 2
 742 362 l 2
 742 367.336 740.333 371.669 737 375 c 0
 733.656 378.333 729.322 380 724 380 c 2
EndSplineSet
EndChar

StartChar: uniF03A
Encoding: 61498 61498 29
Width: 1000
VWidth: 0
Flags: H
LayerCount: 2
Fore
SplineSet
948 321 m 2
 948 314.333 945.333 309 940 305 c 0
 934 301 927.667 300 921 302 c 2
 585 417 l 2
 577 419.667 572.333 425 571 433 c 0
 569.684 441 572.351 447.333 579 452 c 2
 658 508 l 1
 671 518 l 1
 647.667 536.667 621.5 551.167 592.5 561.5 c 0
 563.5 571.833 532.667 577 500 577 c 0
 462 577 426.167 569.667 392.5 555 c 0
 358.833 540.333 329.5 520.5 304.5 495.5 c 0
 279.5 470.5 259.667 441.167 245 407.5 c 0
 230.333 373.833 223 338 223 300 c 0
 223 262 230.333 226.167 245 192.5 c 0
 259.667 158.833 279.5 129.5 304.5 104.5 c 0
 329.5 79.5 358.833 59.6667 392.5 45 c 0
 426.167 30.3333 462 23 500 23 c 0
 546.668 23 590.334 33.6667 631 55 c 0
 671.667 76.3334 704.667 106.333 730 145 c 0
 734 151 739.5 154.667 746.5 156 c 0
 753.5 157.333 759.667 156 765 152 c 2
 883 70 l 2
 887.667 67.3333 890.667 62.3333 892 55 c 1
 894 49.6667 893 44 889 38 c 0
 867 5.33333 841.667 -23.8333 813 -49.5 c 0
 784.333 -75.1666 753.333 -96.8333 720 -114.5 c 0
 686.665 -132.167 651.332 -145.667 614 -155 c 0
 576.667 -164.333 538.667 -169 500 -169 c 0
 435.333 -169 374.5 -156.667 317.5 -132 c 0
 260.5 -107.333 210.833 -73.8333 168.5 -31.5 c 0
 126.167 10.8333 92.6666 60.5 68 117.5 c 0
 43.3333 174.5 31 235.333 31 300 c 0
 31 364.667 43.3333 425.5 68 482.5 c 0
 92.6667 539.5 126.167 589.167 168.5 631.5 c 0
 210.833 673.833 260.5 707.333 317.5 732 c 0
 374.5 756.667 435.333 769 500 769 c 0
 564.667 769 625.167 756.667 681.5 732 c 0
 737.833 707.333 787.333 673.667 830 631 c 1
 836 636 l 1
 915 692 l 2
 921 696.688 928 697.355 936 694 c 1
 943.333 689.333 947 683.333 947 676 c 2
 948 321 l 2
EndSplineSet
EndChar

StartChar: uniF03B
Encoding: 61499 61499 76
Width: 1000
VWidth: 0
Flags: H
LayerCount: 2
Fore
SplineSet
500 -200 m 0
 454 -200 409.667 -194 367 -182 c 0
 324.333 -170 284.5 -153.167 247.5 -131.5 c 0
 210.5 -109.833 176.833 -83.8333 146.5 -53.5 c 0
 116.167 -23.1667 90.1667 10.5 68.5 47.5 c 0
 46.8333 84.5 30 124.333 18 167 c 0
 6 209.667 0 254 0 300 c 0
 0 346 6 390.333 18 433 c 0
 30 475.667 46.8333 515.5 68.5 552.5 c 0
 90.1667 589.5 116.167 623.167 146.5 653.5 c 0
 176.833 683.833 210.5 709.833 247.5 731.5 c 0
 284.5 753.167 324.333 770 367 782 c 0
 409.667 794 454 800 500 800 c 0
 568.667 800 633.5 786.833 694.5 760.5 c 0
 755.5 734.167 808.5 698.5 853.5 653.5 c 0
 898.5 608.5 934.167 555.5 960.5 494.5 c 0
 986.833 433.5 1000 368.667 1000 300 c 0
 1000 254 994 209.667 982 167 c 0
 970 124.333 953.167 84.5 931.5 47.5 c 0
 909.833 10.5 883.833 -23.1667 853.5 -53.5 c 0
 823.167 -83.8333 789.5 -109.833 752.5 -131.5 c 0
 715.5 -153.167 675.667 -170 633 -182 c 0
 590.333 -194 546 -200 500 -200 c 0
776 534 m 2
 776 538.675 773.667 542.342 769 545 c 0
 765.655 547.667 761.322 547.667 756 545 c 1
 707 509 l 1
 703 507 l 1
 676.333 533 645.5 553.667 610.5 569 c 0
 575.5 584.333 538 592 498 592 c 0
 458 592 420.167 584.333 384.5 569 c 0
 348.833 553.666 317.833 532.833 291.5 506.5 c 0
 265.167 480.167 244.333 449.167 229 413.5 c 0
 213.667 377.833 206 340 206 300 c 0
 206 260 213.667 222.167 229 186.5 c 0
 244.333 150.833 265.167 119.833 291.5 93.5 c 0
 317.833 67.1667 348.833 46.3333 384.5 31 c 0
 420.167 15.6667 458 8 498 8 c 0
 546.667 8 592.167 19.5 634.5 42.5 c 0
 676.833 65.5 712 97 740 137 c 0
 742 140.333 742.667 144 742 148 c 0
 740.667 152 738.667 155 736 157 c 2
 663 208 l 2
 659.657 210.667 655.823 211.5 651.5 210.5 c 0
 647.167 209.5 643.667 207.333 641 204 c 0
 625 180 604.333 161.333 579 148 c 0
 553.667 134.667 526.667 128 498 128 c 0
 474 128 451.5 132.5 430.5 141.5 c 0
 409.5 150.5 391.167 162.833 375.5 178.5 c 0
 359.833 194.167 347.5 212.334 338.5 233 c 0
 329.5 253.667 325 276 325 300 c 0
 325 324 329.5 346.5 338.5 367.5 c 0
 347.5 388.5 359.833 406.833 375.5 422.5 c 0
 391.167 438.167 409.5 450.5 430.5 459.5 c 0
 451.5 468.5 474 473 498 473 c 0
 518 473 537 469.667 555 463 c 0
 573 456.333 589.333 447.333 604 436 c 1
 596 430 l 1
 547 395 l 2
 543 391.667 541.333 387.667 542 383 c 0
 542.667 378.333 545.334 375 550 373 c 2
 760 302 l 1
 763.333 300 767 300.333 771 303 c 1
 774.333 306.335 776 309.668 776 313 c 2
 776 534 l 2
EndSplineSet
EndChar

StartChar: uniF03F
Encoding: 61503 61503 78
Width: 1000
VWidth: 0
Flags: H
LayerCount: 2
Fore
SplineSet
500 -200 m 0
 454 -200 409.667 -194 367 -182 c 0
 324.333 -170 284.5 -153.167 247.5 -131.5 c 0
 210.5 -109.833 176.833 -83.8333 146.5 -53.5 c 0
 116.167 -23.1667 90.1667 10.5 68.5 47.5 c 0
 46.8333 84.5 30 124.333 18 167 c 0
 6 209.667 0 254 0 300 c 0
 0 346 6 390.333 18 433 c 0
 30 475.667 46.8333 515.5 68.5 552.5 c 0
 90.1667 589.5 116.167 623.167 146.5 653.5 c 0
 176.833 683.833 210.5 709.833 247.5 731.5 c 0
 284.5 753.167 324.333 770 367 782 c 0
 409.667 794 454 800 500 800 c 0
 568.667 800 633.5 786.833 694.5 760.5 c 0
 755.5 734.167 808.5 698.5 853.5 653.5 c 0
 898.5 608.5 934.167 555.5 960.5 494.5 c 0
 986.833 433.5 1000 368.667 1000 300 c 0
 1000 254 994 209.667 982 167 c 0
 970 124.333 953.167 84.5 931.5 47.5 c 0
 909.833 10.5 883.833 -23.1667 853.5 -53.5 c 0
 823.167 -83.8333 789.5 -109.833 752.5 -131.5 c 0
 715.5 -153.167 675.667 -170 633 -182 c 0
 590.333 -194 546 -200 500 -200 c 0
519 347 m 1
 431 398 l 1
 431 296 l 1
 431 194 l 1
 519 245 l 1
 607 296 l 1
 519 347 l 1
759 73 m 2
 769.667 73 778.5 76.5 785.5 83.5 c 0
 792.5 90.5 796 99 796 109 c 2
 796 487 l 2
 796 497 792.5 505.667 785.5 513 c 0
 778.5 520.333 769.667 524 759 524 c 2
 237 524 l 2
 227 524 218.333 520.333 211 513 c 0
 203.667 505.667 200 497 200 487 c 2
 200 109 l 2
 200 99 203.667 90.5 211 83.5 c 0
 218.333 76.5 227 73 237 73 c 2
 759 73 l 2
723 146 m 1
 273 146 l 1
 273 450 l 1
 723 450 l 1
 723 146 l 1
EndSplineSet
EndChar

StartChar: uniF041
Encoding: 61505 61505 79
Width: 1000
VWidth: 0
Flags: H
LayerCount: 2
Fore
SplineSet
763 520 m 2
 763 529.333 759.833 537 753.5 543 c 0
 747.161 549 739.328 552 730 552 c 2
 266 552 l 2
 256.667 552 248.833 549 242.5 543 c 0
 236.167 537 233 529.333 233 520 c 2
 233 80 l 2
 233 70.6667 236.167 63 242.5 57 c 0
 248.833 51 256.667 48 266 48 c 2
 730 48 l 2
 739.333 48 747.167 51 753.5 57 c 0
 759.833 63 763 70.6667 763 80 c 2
 763 520 l 2
500 800 m 0
 568.667 800 633.5 786.833 694.5 760.5 c 0
 755.5 734.167 808.5 698.5 853.5 653.5 c 0
 898.5 608.5 934.167 555.5 960.5 494.5 c 0
 986.833 433.5 1000 368.667 1000 300 c 0
 1000 254 994 209.667 982 167 c 0
 970 124.333 953.167 84.5 931.5 47.5 c 0
 909.833 10.5 883.833 -23.1667 853.5 -53.5 c 0
 823.167 -83.8333 789.5 -109.833 752.5 -131.5 c 0
 715.5 -153.167 675.667 -170 633 -182 c 0
 590.333 -194 546 -200 500 -200 c 0
 454 -200 409.667 -194 367 -182 c 0
 324.333 -170 284.5 -153.167 247.5 -131.5 c 0
 210.5 -109.833 176.833 -83.8333 146.5 -53.5 c 0
 116.167 -23.1667 90.1667 10.5 68.5 47.5 c 0
 46.8333 84.5 30 124.333 18 167 c 0
 6 209.667 0 254 0 300 c 0
 0 346 6 390.333 18 433 c 0
 30 475.667 46.8333 515.5 68.5 552.5 c 0
 90.1667 589.5 116.167 623.167 146.5 653.5 c 0
 176.833 683.833 210.5 709.833 247.5 731.5 c 0
 284.5 753.167 324.333 770 367 782 c 0
 409.667 794 454 800 500 800 c 0
298 487 m 1
 698 487 l 1
 698 212 l 1
 298 212 l 1
 298 487 l 1
EndSplineSet
EndChar

StartChar: uniF042
Encoding: 61506 61506 33
Width: 1000
VWidth: 0
Flags: H
LayerCount: 2
Fore
SplineSet
403 109 m 1
 398 109 l 2
 385.332 109 375.665 113 369 121 c 1
 310 180 l 1
 238 121 l 2
 228.667 113.667 218.167 110.333 206.5 111 c 0
 194.833 111.667 185.333 116.667 178 126 c 0
 170.667 135.333 167.5 145.833 168.5 157.5 c 0
 169.5 169.167 174.667 178.667 184 186 c 2
 285 270 l 2
 293.667 276.667 303.5 279.667 314.5 279 c 0
 325.5 278.333 334.667 274.333 342 267 c 2
 391 218 l 1
 499 386 l 2
 503.667 392.667 509.333 397.833 516 401.5 c 0
 522.667 405.167 530 406.667 538 406 c 0
 554.668 404.667 566.334 396.333 573 381 c 2
 637 247 l 1
 760 463 l 2
 766 473.667 774.667 480.5 786 483.5 c 0
 797.333 486.5 808 485 818 479 c 0
 828 473.667 834.5 465.333 837.5 454 c 0
 840.5 442.667 839.333 431.667 834 421 c 2
 670 134 l 2
 661.333 118.667 648.667 111.667 632 113 c 0
 624 113 616.667 115.167 610 119.5 c 0
 603.333 123.833 598.333 129.667 595 137 c 2
 529 276 l 1
 434 128 l 2
 426.667 116.667 416.333 110.333 403 109 c 1
863 546 m 1
 137 546 l 1
 137 54 l 1
 863 54 l 1
 863 546 l 1
77 -65 m 2
 61 -65 47.1667 -59.1667 35.5 -47.5 c 0
 23.8333 -35.8333 18 -21.6667 18 -5 c 2
 18 605 l 2
 18 621.671 23.8333 635.838 35.5 647.5 c 0
 47.1667 659.167 61 665 77 665 c 2
 923 665 l 2
 939 665 952.833 659.167 964.5 647.5 c 0
 976.167 635.833 982 621.667 982 605 c 2
 982 -5 l 2
 982 -21.6667 976.167 -35.8333 964.5 -47.5 c 0
 952.833 -59.1667 939 -65 923 -65 c 2
 77 -65 l 2
EndSplineSet
EndChar

StartChar: uniF043
Encoding: 61507 61507 80
Width: 1000
VWidth: 0
Flags: H
LayerCount: 2
Fore
SplineSet
500 -200 m 0
 454 -200 409.667 -194 367 -182 c 0
 324.333 -170 284.5 -153.167 247.5 -131.5 c 0
 210.5 -109.833 176.833 -83.8333 146.5 -53.5 c 0
 116.167 -23.1667 90.1667 10.5 68.5 47.5 c 0
 46.8333 84.5 30 124.333 18 167 c 0
 6 209.667 0 254 0 300 c 0
 0 346 6 390.333 18 433 c 0
 30 475.667 46.8333 515.5 68.5 552.5 c 0
 90.1667 589.5 116.167 623.167 146.5 653.5 c 0
 176.833 683.833 210.5 709.833 247.5 731.5 c 0
 284.5 753.167 324.333 770 367 782 c 0
 409.667 794 454 800 500 800 c 0
 568.667 800 633.5 786.833 694.5 760.5 c 0
 755.5 734.167 808.5 698.5 853.5 653.5 c 0
 898.5 608.5 934.167 555.5 960.5 494.5 c 0
 986.833 433.5 1000 368.667 1000 300 c 0
 1000 254 994 209.667 982 167 c 0
 970 124.333 953.167 84.5 931.5 47.5 c 0
 909.833 10.5 883.833 -23.1667 853.5 -53.5 c 0
 823.167 -83.8333 789.5 -109.833 752.5 -131.5 c 0
 715.5 -153.167 675.667 -170 633 -182 c 0
 590.333 -194 546 -200 500 -200 c 0
442 190 m 1
 450 191.333 456 195 460 201 c 2
 514 286 l 1
 552 206 l 2
 556 197.333 563 193 573 193 c 1
 583 191.667 590.333 195.667 595 205 c 2
 689 370 l 2
 692.333 375.333 693 381.333 691 388 c 0
 689 394.667 685.333 399.667 680 403 c 0
 674 406.333 667.833 407 661.5 405 c 0
 655.157 403 650.323 399.333 647 394 c 2
 576 269 l 1
 539 347 l 2
 535.667 355 529 359.667 519 361 c 1
 509 361 501.667 357 497 349 c 2
 435 253 l 1
 407 281 l 2
 402.333 285.667 397 288 391 288 c 0
 385 288 379.333 286.333 374 283 c 1
 316 234 l 2
 310.667 230 307.667 224.667 307 218 c 0
 306.333 211.333 308.333 205.333 313 200 c 0
 317 194.667 322.333 191.667 329 191 c 0
 335.667 190.333 341.667 192.333 347 197 c 2
 388 231 l 1
 422 197 l 1
 428 192.333 433.667 190 439 190 c 2
 442 190 l 1
740 91 m 2
 749.333 91 757.333 94.3333 764 101 c 0
 770.667 107.667 774 115.667 774 125 c 2
 774 475 l 2
 774 484.333 770.667 492.333 764 499 c 0
 757.333 505.667 749.333 509 740 509 c 2
 255 509 l 2
 245.667 509 237.667 505.667 231 499 c 0
 224.333 492.333 221 484.333 221 475 c 2
 221 125 l 2
 221 115.667 224.333 107.667 231 101 c 0
 237.667 94.3333 245.667 91 255 91 c 2
 740 91 l 2
706 159 m 1
 289 159 l 1
 289 441 l 1
 706 441 l 1
 706 159 l 1
EndSplineSet
EndChar

StartChar: uniF044
Encoding: 61508 61508 34
Width: 1000
VWidth: 0
Flags: H
LayerCount: 2
Fore
SplineSet
603 -91 m 2
 607 -91 610.5 -92.5 613.5 -95.5 c 0
 616.5 -98.5 618 -102 618 -106 c 2
 618 -140 l 2
 618 -144.667 616.5 -148.5 613.5 -151.5 c 0
 610.5 -154.5 607 -156 603 -156 c 2
 408 -156 l 2
 397.333 -156 392 -150.667 392 -140 c 2
 392 -106 l 2
 392 -102 393.5 -98.5 396.5 -95.5 c 0
 399.5 -92.5 403.333 -91 408 -91 c 2
 603 -91 l 2
603 6 m 2
 607 6 610.5 4.5 613.5 1.5 c 0
 616.5 -1.5 618 -5.33333 618 -10 c 2
 618 -44 l 2
 618 -48 616.5 -51.5 613.5 -54.5 c 0
 610.5 -57.5 607 -59 603 -59 c 2
 408 -59 l 2
 403.333 -59 399.5 -57.5 396.5 -54.5 c 0
 393.5 -51.5 392 -48 392 -44 c 2
 392 -10 l 2
 392 0.666667 397.333 6 408 6 c 2
 603 6 l 2
804 316 m 1
 804 316 l 1
 887 303 l 2
 895.667 301.667 902.667 297.833 908 291.5 c 0
 913.333 285.167 915.333 278.333 914 271 c 0
 912.667 263 908.667 256.833 902 252.5 c 0
 895.333 248.167 887.333 246.667 878 248 c 2
 795 261 l 2
 785.667 262.333 778.5 266.333 773.5 273 c 0
 768.5 279.667 766.667 286.667 768 294 c 0
 769.333 301.334 773.333 307.167 780 311.5 c 0
 786.667 315.833 794.667 317.333 804 316 c 1
795 505 m 1
 795 505 l 1
 872 539 l 2
 880 543 887.833 543.833 895.5 541.5 c 0
 903.167 539.158 908.667 534.325 912 527 c 0
 915.333 519.663 915.333 512.329 912 505 c 0
 908.667 497.667 902.667 492.333 894 489 c 2
 817 454 l 2
 809 450.667 801.167 450.167 793.5 452.5 c 0
 785.833 454.837 780.333 459.67 777 467 c 0
 773.667 474.337 773.833 481.67 777.5 489 c 0
 781.167 496.337 787 501.67 795 505 c 1
665 633 m 1
 665 633 l 1
 711 704 l 2
 716.333 711.333 722.833 716.167 730.5 718.5 c 0
 738.178 720.833 745.345 720 752 716 c 0
 758.667 711.333 762.5 705 763.5 697 c 0
 764.5 689 762.667 681.333 758 674 c 2
 712 603 l 2
 706.667 595.658 700.167 590.824 692.5 588.5 c 0
 684.833 586.167 677.667 587 671 591 c 0
 664.333 595 660.333 601.167 659 609.5 c 0
 657.667 617.833 659.667 625.667 665 633 c 1
207 316 m 1
 215.667 317.333 223.5 315.833 230.5 311.5 c 0
 237.5 307.167 241.667 301.333 243 294 c 0
 244.333 286.667 242.333 279.667 237 273 c 0
 231.666 266.333 224.333 262.333 215 261 c 2
 132 248 l 2
 123.333 246.667 115.5 248.167 108.5 252.5 c 0
 101.5 256.833 97.3333 263 96 271 c 0
 94.6667 278.335 96.6667 285.169 102 291.5 c 0
 107.333 297.836 114.667 301.669 124 303 c 2
 207 316 l 1
 207 316 l 1
216 505 m 1
 224 501.667 229.833 496.333 233.5 489 c 0
 237.174 481.667 237.341 474.333 234 467 c 0
 230.667 459.667 225 454.833 217 452.5 c 0
 209 450.167 201 450.667 193 454 c 2
 116 489 l 2
 108 492.337 102.167 497.67 98.5 505 c 0
 94.8319 512.333 94.6652 519.667 98 527 c 0
 101.333 534.333 106.833 539.167 114.5 541.5 c 0
 122.167 543.833 130.333 543 139 539 c 2
 216 505 l 1
 216 505 l 1
345 633 m 1
 350.333 625.662 352.333 617.829 351 609.5 c 0
 349.667 601.167 345.667 595 339 591 c 0
 333 587 326 586.167 318 588.5 c 0
 310 590.833 303.667 595.667 299 603 c 2
 253 674 l 2
 247.667 681.333 245.667 689 247 697 c 0
 248.333 705 252.333 711.333 259 716 c 0
 265 720 272 720.833 280 718.5 c 0
 288 716.156 294.333 711.322 299 704 c 2
 345 633 l 1
 345 633 l 1
534 659 m 1
 534 649.667 531.333 642 526 636 c 0
 520.667 630 514 627 506 627 c 0
 498.667 627 492.333 630 487 636 c 0
 481.667 642 479 649.667 479 659 c 2
 479 743 l 2
 479 752.333 481.667 760 487 766 c 0
 492.334 772 498.667 775 506 775 c 0
 514 775 520.667 772 526 766 c 0
 531.333 760 534 752.333 534 743 c 2
 534 659 l 1
 534 659 l 1
728 390 m 0
 728 388.667 727.833 387.667 727.5 387 c 0
 727.167 386.333 727 385.333 727 384 c 2
 727 381 l 2
 727 369 725.333 355.667 722 341 c 0
 717.333 315.667 708.5 289.5 695.5 262.5 c 0
 682.5 235.5 668.333 206.667 653 176 c 0
 643 156 636 137.833 632 121.5 c 0
 628 105.167 624.833 91 622.5 79 c 0
 620.167 67 617.667 57.5 615 50.5 c 0
 612.333 43.5 607.333 39.3333 600 38 c 1
 410 38 l 1
 402.667 39.3333 397.667 43.5 395 50.5 c 0
 392.333 57.5 389.833 67 387.5 79 c 0
 385.167 91 382 105.167 378 121.5 c 0
 374 137.833 367 156 357 176 c 0
 341.667 206.667 327.5 235.5 314.5 262.5 c 0
 301.5 289.5 292.667 315.667 288 341 c 0
 286.667 347.667 285.667 354.333 285 361 c 2
 283 381 l 1
 283 390 l 2
 283 422 288.5 450 299.5 474 c 0
 310.5 498.001 325.833 518.334 345.5 535 c 0
 365.167 551.667 388.5 564.167 415.5 572.5 c 0
 442.5 580.833 472 585 504 585 c 2
 505 585 l 1
 506 585 l 2
 538 585 567.5 580.833 594.5 572.5 c 0
 621.5 564.167 644.833 551.667 664.5 535 c 0
 684.167 518.333 699.667 498 711 474 c 0
 722.333 450 728 422 728 390 c 0
EndSplineSet
EndChar

StartChar: uniF045
Encoding: 61509 61509 81
Width: 1000
VWidth: 0
Flags: H
LayerCount: 2
Fore
SplineSet
762 420 m 1
 767.333 422.667 771.167 426.5 773.5 431.5 c 0
 775.833 436.5 776 441.333 774 446 c 0
 772 450.667 768.167 453.833 762.5 455.5 c 0
 756.833 457.167 751.333 456.667 746 454 c 2
 695 431 l 2
 689.667 428.33 685.667 424.663 683 420 c 0
 680.333 415.333 680.333 410.333 683 405 c 0
 685 400.327 688.667 397.161 694 395.5 c 0
 699.333 393.833 704.667 394.333 710 397 c 2
 762 420 l 1
 762 420 l 1
751 258 m 1
 757 257.333 762.167 258.5 766.5 261.5 c 0
 770.833 264.5 773.667 268.667 775 274 c 0
 776.333 279.333 775 284 771 288 c 0
 767 292 762.333 294.333 757 295 c 2
 701 304 l 2
 695 305.333 689.667 304.5 685 301.5 c 0
 680.333 298.5 677.333 294.333 676 289 c 0
 675.333 283.667 676.833 279 680.5 275 c 0
 684.167 271 689 268.333 695 267 c 2
 751 258 l 1
 751 258 l 1
670 544 m 1
 676.661 556 675.328 565.667 666 573 c 1
 661.333 575.667 656.333 576.334 651 575 c 0
 645.657 573.662 641.324 570.329 638 565 c 2
 608 517 l 2
 604.662 511.667 603.329 506.5 604 501.5 c 0
 604.667 496.5 607 492.333 611 489 c 0
 615.667 485.667 620.667 484.833 626 486.5 c 0
 631.333 488.167 635.667 491.667 639 497 c 2
 670 544 l 1
 670 544 l 1
650 354 m 0
 650 375.333 646.167 394.167 638.5 410.5 c 0
 630.833 426.833 620.333 440.5 607 451.5 c 0
 593.664 462.5 577.831 470.833 559.5 476.5 c 0
 541.165 482.167 521.331 485 500 485 c 2
 499 485 l 2
 456.333 485 420.833 473.833 392.5 451.5 c 0
 364.167 429.167 350 396.667 350 354 c 2
 350 350 l 2
 350 349.328 350.333 348.661 351 348 c 1
 351 343.333 351.333 338.833 352 334.5 c 0
 352.667 330.167 353.333 325.667 354 321 c 0
 357.333 303.667 363.333 286 372 268 c 0
 380.667 250 390 230.667 400 210 c 0
 406.667 196 411.333 183.5 414 172.5 c 0
 416.667 161.5 418.833 152 420.5 144 c 0
 422.167 136 423.833 129.667 425.5 125 c 0
 427.167 120.333 430.667 117.666 436 117 c 1
 564 117 l 1
 568.667 117.667 572 120.333 574 125 c 0
 576 129.667 577.667 136 579 144 c 0
 580.333 152 582.333 161.5 585 172.5 c 0
 587.676 183.5 592.342 196 599 210 c 0
 609.671 230.667 619.338 250 628 268 c 0
 636.667 286 642.667 303.667 646 321 c 0
 646.686 325.667 647.353 330.167 648 334.5 c 0
 648.667 338.833 649 343.333 649 348 c 2
 649 350 l 2
 649 350.667 649.167 351.333 649.5 352 c 0
 649.833 352.667 650 353.333 650 354 c 0
576 85 m 2
 576 91.6667 572.667 95 566 95 c 2
 434 95 l 2
 427.333 95 424 91.6667 424 85 c 2
 424 62 l 2
 424 55.3333 427.333 52 434 52 c 2
 566 52 l 2
 572.667 52 576 55.3333 576 62 c 2
 576 85 l 2
576 20 m 2
 576 27.3333 572.667 31 566 31 c 2
 434 31 l 2
 427.333 31 424 27.3333 424 20 c 2
 424 -3 l 2
 424 -9.66666 427.333 -13 434 -13 c 2
 566 -13 l 2
 572.667 -13 576 -9.66667 576 -3 c 2
 576 20 l 2
334 573 m 1
 330 569.658 327.5 565.325 326.5 560 c 0
 325.5 554.665 326.667 549.331 330 544 c 2
 361 497 l 2
 364.336 491.667 368.669 488.167 374 486.5 c 0
 379.333 484.848 384.333 485.681 389 489 c 0
 393 492.333 395.333 496.5 396 501.5 c 0
 396.667 506.5 395.333 511.667 392 517 c 2
 362 565 l 2
 358.667 570.333 354.333 573.667 349 575 c 0
 343.667 576.333 338.667 575.667 334 573 c 1
305 267 m 1
 311 268.333 315.833 271 319.5 275 c 0
 323.167 279 324.667 283.667 324 289 c 0
 322.667 294.333 319.667 298.5 315 301.5 c 0
 310.333 304.5 305 305.333 299 304 c 2
 243 295 l 2
 237.667 294.333 233 292 229 288 c 0
 225 284 223.667 279.333 225 274 c 0
 226.333 268.667 229.167 264.5 233.5 261.5 c 0
 237.833 258.5 243 257.333 249 258 c 2
 305 267 l 1
 305 267 l 1
226 446 m 0
 224 441.333 224.167 436.5 226.5 431.5 c 0
 228.833 426.5 232.667 422.667 238 420 c 2
 290 397 l 2
 295.336 394.333 300.669 393.833 306 395.5 c 0
 311.333 397.167 315 400.333 317 405 c 0
 319.667 410.333 319.667 415.333 317 420 c 0
 314.333 424.667 310.333 428.333 305 431 c 2
 254 454 l 2
 248.667 456.667 243.167 457.167 237.5 455.5 c 0
 231.833 453.832 228 450.665 226 446 c 0
482 535 m 2
 482 529 483.833 523.833 487.5 519.5 c 0
 491.167 515.167 495.667 513 501 513 c 0
 506.337 513 510.671 515.167 514 519.5 c 0
 517.333 523.833 519 529 519 535 c 2
 519 591 l 2
 519 597 517.333 602.167 514 606.5 c 0
 510.667 610.833 506.333 613 501 613 c 0
 495.667 613 491.167 610.833 487.5 606.5 c 0
 483.833 602.167 482 597 482 591 c 2
 482 535 l 2
500 800 m 0
 568.667 800 633.5 786.833 694.5 760.5 c 0
 755.5 734.167 808.5 698.5 853.5 653.5 c 0
 898.5 608.5 934.167 555.5 960.5 494.5 c 0
 986.833 433.5 1000 368.667 1000 300 c 0
 1000 254 994 209.667 982 167 c 0
 970 124.333 953.167 84.5 931.5 47.5 c 0
 909.833 10.5 883.833 -23.1667 853.5 -53.5 c 0
 823.167 -83.8333 789.5 -109.833 752.5 -131.5 c 0
 715.5 -153.167 675.667 -170 633 -182 c 0
 590.333 -194 546 -200 500 -200 c 0
 454 -200 409.667 -194 367 -182 c 0
 324.333 -170 284.5 -153.167 247.5 -131.5 c 0
 210.5 -109.833 176.833 -83.8333 146.5 -53.5 c 0
 116.167 -23.1667 90.1667 10.5 68.5 47.5 c 0
 46.8333 84.5 30 124.333 18 167 c 0
 6 209.667 0 254 0 300 c 0
 0 346 6 390.333 18 433 c 0
 30 475.667 46.8333 515.5 68.5 552.5 c 0
 90.1667 589.5 116.167 623.167 146.5 653.5 c 0
 176.833 683.833 210.5 709.833 247.5 731.5 c 0
 284.5 753.167 324.333 770 367 782 c 0
 409.667 794 454 800 500 800 c 0
EndSplineSet
EndChar

StartChar: uniF046
Encoding: 61510 61510 35
Width: 1000
VWidth: 0
Flags: H
LayerCount: 2
Fore
SplineSet
638 708 m 1
 638 714 638.833 718.5 640.5 721.5 c 0
 642.186 724.5 644.353 726.167 647 726.5 c 0
 649.687 726.833 652.353 726.667 655 726 c 0
 657.667 725.333 659.667 724.667 661 724 c 0
 676.333 715.333 687.5 707.167 694.5 699.5 c 0
 701.5 691.833 705 686.333 705 683 c 2
 705 453 l 1
 705 327 l 1
 705 187 l 2
 705 183 701.667 176.833 695 168.5 c 0
 688.333 160.166 677.167 151.833 661.5 143.5 c 0
 645.833 135.167 625.167 127.667 599.5 121 c 0
 573.833 114.333 542.333 111 505 111 c 0
 467 111 434.833 114.333 408.5 121 c 0
 382.167 127.667 360.5 135.167 343.5 143.5 c 0
 326.5 151.833 314.167 160.167 306.5 168.5 c 0
 298.833 176.833 295 183 295 187 c 2
 295 327 l 1
 295 453 l 1
 295 683 l 2
 295 686.333 298.167 691.833 304.5 699.5 c 0
 310.833 707.172 321 715.339 335 724 c 0
 337 724.667 339.5 725.667 342.5 727 c 0
 345.5 728.333 348.5 728.667 351.5 728 c 0
 354.5 727.333 357 725.667 359 723 c 0
 361 720.333 362 716 362 710 c 2
 362 639 l 2
 362 637 363.5 633.167 366.5 627.5 c 0
 369.5 621.833 374.667 619 382 619 c 0
 389.334 619 394.667 621.833 398 627.5 c 0
 401.333 633.167 403 637 403 639 c 2
 403 724 l 2
 403 737.333 405.167 745.333 409.5 748 c 0
 413.836 750.69 417.67 752.356 421 753 c 0
 427.667 754.333 434 755.5 440 756.5 c 0
 446 757.5 453 758 461 758 c 0
 465.667 758 469.833 756.167 473.5 752.5 c 0
 477.167 748.833 479 739.333 479 724 c 2
 479 639 l 2
 479 637 480.667 633.167 484 627.5 c 0
 487.337 621.833 492.67 619 500 619 c 0
 507.333 619 512.667 621.833 516 627.5 c 0
 519.333 633.167 521 637 521 639 c 2
 521 724 l 2
 521 738 522.5 747.167 525.5 751.5 c 0
 528.5 755.833 532.667 757.667 538 757 c 0
 546.667 756.333 554.667 755.5 562 754.5 c 0
 569.333 753.5 576.667 752.333 584 751 c 0
 586 750.333 588.667 748.5 592 745.5 c 0
 595.333 742.5 597 735.333 597 724 c 2
 597 639 l 2
 597 637 598.5 633.167 601.5 627.5 c 0
 604.5 621.833 609.667 619 617 619 c 0
 624.333 619 629.667 621.833 633 627.5 c 0
 636.333 633.167 638 637 638 639 c 2
 638 708 l 1
 638 708 l 1
506 5 m 0
 559.333 5 605 10 643 20 c 0
 681 30 712.167 42.1667 736.5 56.5 c 0
 760.833 70.8333 778.667 86 790 102 c 0
 801.333 118 807 132 807 144 c 2
 807 345 l 2
 807 353.667 804.167 360.833 798.5 366.5 c 0
 792.833 372.167 785.667 375 777 375 c 0
 768.333 375 761.167 372.167 755.5 366.5 c 0
 749.833 360.832 747 353.665 747 345 c 2
 747 147 l 1
 745 143 739.5 136.5 730.5 127.5 c 0
 721.5 118.5 707.667 109.5 689 100.5 c 0
 670.333 91.5 646 83.5 616 76.5 c 0
 586 69.5 549.333 66 506 66 c 0
 462.667 66 425.5 69.5 394.5 76.5 c 0
 363.5 83.5 337.833 91.6667 317.5 101 c 0
 297.167 110.333 281.833 119.5 271.5 128.5 c 0
 261.167 137.5 255 144 253 148 c 1
 253 345 l 2
 253 353.667 250.167 360.833 244.5 366.5 c 0
 238.833 372.167 231.667 375 223 375 c 0
 214.333 375 207.167 372.167 201.5 366.5 c 0
 195.833 360.832 193 353.665 193 345 c 2
 193 144 l 2
 193 131.333 199.5 117 212.5 101 c 0
 225.5 85 245.167 69.8333 271.5 55.5 c 0
 297.833 41.1667 330.5 29.1667 369.5 19.5 c 0
 408.5 9.83333 454 5 506 5 c 0
585 43 m 1
 585 -95 l 1
 674 -95 l 2
 684 -95 689 -100 689 -110 c 2
 689 -143 l 2
 689 -147 687.667 -150.5 685 -153.5 c 0
 682.333 -156.5 678.667 -158 674 -158 c 2
 326 -158 l 2
 322 -158 318.5 -156.5 315.5 -153.5 c 0
 312.5 -150.5 311 -147 311 -143 c 2
 311 -110 l 2
 311 -105.333 312.5 -101.667 315.5 -99 c 0
 318.5 -96.3333 322 -95 326 -95 c 2
 416 -95 l 1
 416 43 l 1
 585 43 l 1
EndSplineSet
EndChar

StartChar: uniF04A
Encoding: 61514 61514 37
Width: 1000
VWidth: 0
Flags: H
LayerCount: 2
Fore
SplineSet
682 226 m 2
 682 238.667 676.333 248 665 254 c 2
 508 329 l 1
 526 340.333 540.667 356.833 552 378.5 c 0
 563.333 400.167 569 424 569 450 c 0
 569 468.667 566 486.333 560 503 c 0
 554 519.667 545.667 534.167 535 546.5 c 0
 524.333 558.833 511.833 568.667 497.5 576 c 0
 483.167 583.333 468 587 452 587 c 0
 436 587 420.833 583.333 406.5 576 c 0
 392.167 568.662 379.667 558.829 369 546.5 c 0
 358.333 534.167 349.833 519.667 343.5 503 c 0
 337.167 486.332 334 468.666 334 450 c 0
 334 423.333 339.833 399.166 351.5 377.5 c 0
 363.167 355.833 378.667 339.333 398 328 c 1
 239 254 l 2
 233.667 252 229.5 248.333 226.5 243 c 0
 223.5 237.667 222 232 222 226 c 2
 222 100 l 2
 222 91.3333 224.5 84 229.5 78 c 0
 234.5 72 240.667 69 248 69 c 2
 655 69 l 2
 662.333 69 668.667 72 674 78 c 0
 679.333 84 682 91.3333 682 100 c 2
 682 226 l 2
890 570 m 1
 890 487 l 1
 957 487 l 2
 965 487 971.833 484.167 977.5 478.5 c 0
 983.167 472.833 986 466 986 458 c 2
 986 371 l 2
 986 363 983.167 356.167 977.5 350.5 c 0
 971.833 344.833 965 342 957 342 c 2
 890 342 l 1
 890 259 l 1
 957 259 l 2
 965 259 971.833 256.167 977.5 250.5 c 0
 983.167 244.833 986 238 986 230 c 2
 986 143 l 2
 986 135 983.167 128.167 977.5 122.5 c 0
 971.833 116.833 965 114 957 114 c 2
 890 114 l 1
 890 31 l 1
 957 31 l 2
 965 31 971.833 28.1667 977.5 22.5 c 0
 983.167 16.8333 986 10 986 2 c 2
 986 -85 l 2
 986 -93 983.167 -99.8333 977.5 -105.5 c 0
 971.833 -111.167 965 -114 957 -114 c 2
 890 -114 l 1
 890 -138 l 2
 890 -151.333 885.5 -162.5 876.5 -171.5 c 0
 867.5 -180.5 856.333 -185 843 -185 c 2
 62 -185 l 2
 48.6667 -185 37.5 -180.5 28.5 -171.5 c 0
 19.5 -162.5 15 -151.333 15 -138 c 2
 15 738 l 2
 15 751.333 19.5 762.5 28.5 771.5 c 0
 37.5 780.5 48.6667 785 62 785 c 2
 843 785 l 2
 856.333 785 867.5 780.5 876.5 771.5 c 0
 885.5 762.5 890 751.333 890 738 c 2
 890 715 l 1
 957 715 l 2
 965 715 971.833 712.167 977.5 706.5 c 0
 983.167 700.833 986 694 986 686 c 2
 986 599 l 2
 986 591 983.167 584.167 977.5 578.5 c 0
 971.833 572.833 965 570 957 570 c 2
 890 570 l 1
EndSplineSet
EndChar

StartChar: uniF04C
Encoding: 61516 61516 38
Width: 1000
VWidth: 0
Flags: H
LayerCount: 2
Fore
SplineSet
713 514 m 0
 722.333 504.667 724 495 718 485 c 2
 571 239 l 2
 569.667 236.333 567 233.667 563 231 c 2
 315 82 l 2
 311.667 80 307.667 79 303 79 c 0
 296.333 79 291 81.3333 287 86 c 2
 286 87 l 2
 282 90.3335 279.667 94.6668 279 100 c 0
 278.333 105.333 279.333 110.667 282 116 c 2
 431 363 l 2
 433.667 367 436.333 369.667 439 371 c 2
 685 518 l 2
 689.667 520.667 694.667 521.667 700 521 c 0
 705.333 520.333 709.667 518 713 514 c 0
500 772 m 0
 564.667 772 625.667 759.667 683 735 c 0
 740.333 710.333 790.5 676.5 833.5 633.5 c 0
 876.5 590.5 910.333 540.333 935 483 c 0
 959.667 425.667 972 364.667 972 300 c 0
 972 234.667 959.667 173.5 935 116.5 c 0
 910.333 59.5 876.5 9.5 833.5 -33.5 c 0
 790.5 -76.5 740.333 -110.333 683 -135 c 0
 625.667 -159.667 564.667 -172 500 -172 c 0
 434.667 -172 373.5 -159.667 316.5 -135 c 0
 259.5 -110.333 209.5 -76.5 166.5 -33.5 c 0
 123.5 9.5 89.6667 59.5 65 116.5 c 0
 40.3333 173.5 28 234.667 28 300 c 0
 28 364.667 40.3333 425.667 65 483 c 0
 89.6667 540.333 123.5 590.5 166.5 633.5 c 0
 209.5 676.5 259.5 710.333 316.5 735 c 0
 373.5 759.667 434.667 772 500 772 c 0
500 647 m 0
 452 647 407 637.833 365 619.5 c 0
 323 601.166 286.333 576.332 255 545 c 0
 223.667 513.666 198.833 477 180.5 435 c 0
 162.167 393 153 348 153 300 c 0
 153 252 162.167 207 180.5 165 c 0
 198.833 123 223.667 86.3333 255 55 c 0
 286.333 23.6667 323 -1.16667 365 -19.5 c 0
 407 -37.8333 452 -47 500 -47 c 0
 548 -47 593 -37.8334 635 -19.5 c 0
 677 -1.16667 713.667 23.6667 745 55 c 0
 776.333 86.3333 801.167 123 819.5 165 c 0
 837.833 207 847 252 847 300 c 0
 847 348 837.833 393 819.5 435 c 0
 801.164 477 776.33 513.667 745 545 c 0
 713.667 576.333 677 601.167 635 619.5 c 0
 593 637.833 548 647 500 647 c 0
EndSplineSet
EndChar

StartChar: uniF054
Encoding: 61524 61524 42
Width: 1000
VWidth: 0
Flags: H
LayerCount: 2
Fore
SplineSet
925 604 m 1
 942.333 604 957.333 597.667 970 585 c 0
 982.667 572.333 989 557.333 989 540 c 2
 989 -27 l 2
 989 -45 982.667 -60.3333 970 -73 c 0
 957.333 -85.6667 942.333 -92 925 -92 c 2
 79 -92 l 2
 61 -92 45.6667 -85.6667 33 -73 c 0
 20.3333 -60.3333 14 -45 14 -27 c 2
 14 540 l 2
 14 557.333 20.3333 572.333 33 585 c 0
 45.6667 597.667 61 604 79 604 c 2
 148 604 l 1
 207 678 l 2
 215 687.333 224.667 692 236 692 c 2
 407 692 l 2
 422.333 692 433.333 684.667 440 670 c 1
 443.335 665.333 450.168 656.667 460.5 644 c 0
 470.833 631.333 482 618 494 604 c 1
 925 604 l 1
 925 604 l 1
EndSplineSet
EndChar

StartChar: uniF056
Encoding: 61526 61526 43
Width: 1000
VWidth: 0
Flags: H
LayerCount: 2
Fore
SplineSet
313 529 m 1
 309 535 308.667 540.667 312 546 c 0
 315.333 552.667 320.333 556 327 556 c 2
 408 556 l 1
 408 774 l 2
 408 778.667 409.667 782.5 413 785.5 c 0
 416.333 788.5 420.333 790 425 790 c 2
 575 790 l 2
 586.333 790 592 784.667 592 774 c 2
 592 556 l 1
 673 556 l 2
 679.667 556 684.667 553 688 547 c 0
 691.333 540.333 691 534.333 687 529 c 2
 514 286 l 2
 510.667 281.333 506.333 279 501 279 c 0
 495 279 490.333 281.333 487 286 c 2
 313 529 l 1
 313 529 l 1
938 281 m 1
 955.333 281 970 274.833 982 262.5 c 0
 994 250.166 1000 235.333 1000 218 c 2
 1000 -138 l 2
 1000 -155.333 994 -170 982 -182 c 0
 970 -194 955.333 -200 938 -200 c 2
 62 -200 l 2
 44.6667 -200 30 -194 18 -182 c 0
 6 -170 0 -155.333 0 -138 c 2
 0 218 l 2
 0 235.333 6 250.167 18 262.5 c 0
 30 274.833 44.6667 281 62 281 c 2
 284 281 l 2
 298 281 310.5 277 321.5 269 c 0
 332.5 261 340 250.333 344 237 c 0
 355.334 203 375.167 175.5 403.5 154.5 c 0
 431.833 133.5 464 123 500 123 c 0
 536 123 568.333 133.5 597 154.5 c 0
 625.667 175.5 645.667 203 657 237 c 0
 661 250.333 668.5 261 679.5 269 c 0
 690.5 277 702.667 281 716 281 c 2
 938 281 l 1
 938 281 l 1
EndSplineSet
EndChar

StartChar: uniF058
Encoding: 61528 61528 44
Width: 1000
VWidth: 0
Flags: H
LayerCount: 2
Fore
SplineSet
582 32 m 1
 416 32 l 1
 416 198 l 1
 582 198 l 1
 582 32 l 1
792 32 m 1
 626 32 l 1
 626 198 l 1
 792 198 l 1
 792 32 l 1
372 32 m 1
 206 32 l 1
 206 198 l 1
 372 198 l 1
 372 32 l 1
792 557 m 1
 792 251 l 1
 206 251 l 1
 206 557 l 1
 792 557 l 1
876 645 m 1
 124 645 l 1
 124 -45 l 1
 876 -45 l 1
 876 645 l 1
62 -167 m 2
 45.3333 -167 31 -161.167 19 -149.5 c 0
 7 -137.833 1 -123.333 1 -106 c 2
 1 706 l 2
 1 723.333 7 737.833 19 749.5 c 0
 31 761.167 45.3333 767 62 767 c 2
 938 767 l 2
 954.667 767 969 761.167 981 749.5 c 0
 993 737.833 999 723.333 999 706 c 2
 999 -106 l 2
 999 -123.333 993 -137.833 981 -149.5 c 0
 969 -161.167 954.667 -167 938 -167 c 2
 62 -167 l 2
EndSplineSet
EndChar

StartChar: uniF059
Encoding: 61529 61529 91
Width: 1000
VWidth: 0
Flags: H
LayerCount: 2
Fore
SplineSet
500 -200 m 0
 454 -200 409.667 -194 367 -182 c 0
 324.333 -170 284.5 -153.167 247.5 -131.5 c 0
 210.5 -109.833 176.833 -83.8333 146.5 -53.5 c 0
 116.167 -23.1667 90.1667 10.5 68.5 47.5 c 0
 46.8333 84.5 30 124.333 18 167 c 0
 6 209.667 0 254 0 300 c 0
 0 346 6 390.333 18 433 c 0
 30 475.667 46.8333 515.5 68.5 552.5 c 0
 90.1667 589.5 116.167 623.167 146.5 653.5 c 0
 176.833 683.833 210.5 709.833 247.5 731.5 c 0
 284.5 753.167 324.333 770 367 782 c 0
 409.667 794 454 800 500 800 c 0
 568.667 800 633.5 786.833 694.5 760.5 c 0
 755.5 734.167 808.5 698.5 853.5 653.5 c 0
 898.5 608.5 934.167 555.5 960.5 494.5 c 0
 986.833 433.5 1000 368.667 1000 300 c 0
 1000 254 994 209.667 982 167 c 0
 970 124.333 953.167 84.5 931.5 47.5 c 0
 909.833 10.5 883.833 -23.1667 853.5 -53.5 c 0
 823.167 -83.8333 789.5 -109.833 752.5 -131.5 c 0
 715.5 -153.167 675.667 -170 633 -182 c 0
 590.333 -194 546 -200 500 -200 c 0
656 429 m 1
 344 429 l 1
 344 266 l 1
 656 266 l 1
 656 429 l 1
733 44 m 2
 742.333 44 750.167 47.1667 756.5 53.5 c 0
 762.833 59.8333 766 67.6667 766 77 c 2
 766 508 l 2
 766 517.333 762.833 525.167 756.5 531.5 c 0
 750.161 537.833 742.328 541 733 541 c 2
 268 541 l 2
 258.667 541 250.833 537.833 244.5 531.5 c 0
 238.167 525.163 235 517.329 235 508 c 2
 235 77 l 2
 235 67.6667 238.167 59.8333 244.5 53.5 c 0
 250.833 47.1667 258.667 44 268 44 c 2
 733 44 l 2
701 109 m 1
 301 109 l 1
 301 476 l 1
 701 476 l 1
 701 109 l 1
433 238 m 1
 344 238 l 1
 344 150 l 1
 433 150 l 1
 433 238 l 1
544 238 m 1
 456 238 l 1
 456 150 l 1
 544 150 l 1
 544 238 l 1
656 238 m 1
 568 238 l 1
 568 150 l 1
 656 150 l 1
 656 238 l 1
EndSplineSet
EndChar

StartChar: uniF05A
Encoding: 61530 61530 45
Width: 1000
VWidth: 0
Flags: H
LayerCount: 2
Fore
SplineSet
501 -50 m 0
 545.667 -50 587.667 -41.5 627 -24.5 c 0
 666.333 -7.5 700.667 15.5 730 44.5 c 0
 759.333 73.5 782.5 107.5 799.5 146.5 c 0
 816.5 185.5 825 227.333 825 272 c 1
 178 272 l 1
 178 227.333 186.5 185.5 203.5 146.5 c 0
 220.5 107.5 243.667 73.5 273 44.5 c 0
 302.333 15.5 336.5 -7.5 375.5 -24.5 c 0
 414.5 -41.5 456.333 -50 501 -50 c 0
340 588 m 0
 312 588 288.333 578.333 269 559 c 0
 249.667 539.667 240 516 240 488 c 0
 240 474 242.667 460.833 248 448.5 c 0
 253.333 436.167 260.5 425.5 269.5 416.5 c 0
 278.5 407.5 289 400.333 301 395 c 0
 313 389.667 326 387 340 387 c 0
 354 387 367.167 389.667 379.5 395 c 0
 391.833 400.333 402.5 407.5 411.5 416.5 c 0
 420.5 425.5 427.667 436.167 433 448.5 c 0
 438.333 460.833 441 474 441 488 c 0
 441 502 438.333 515 433 527 c 0
 427.667 539 420.5 549.5 411.5 558.5 c 0
 402.5 567.5 391.833 574.667 379.5 580 c 0
 367.167 585.333 354 588 340 588 c 0
653 588 m 0
 625 588 601.333 578.333 582 559 c 0
 562.667 539.667 553 516 553 488 c 0
 553 474 555.667 460.833 561 448.5 c 0
 566.333 436.167 573.5 425.5 582.5 416.5 c 0
 591.5 407.5 602 400.333 614 395 c 0
 626 389.667 639 387 653 387 c 0
 667 387 680.167 389.667 692.5 395 c 0
 704.833 400.333 715.5 407.5 724.5 416.5 c 0
 733.5 425.5 740.667 436.167 746 448.5 c 0
 751.333 460.833 754 474 754 488 c 0
 754 502 751.333 515 746 527 c 0
 740.667 539 733.5 549.5 724.5 558.5 c 0
 715.5 567.5 704.833 574.667 692.5 580 c 0
 680.167 585.333 667 588 653 588 c 0
913 765 m 1
 928.333 765 941.167 759.833 951.5 749.5 c 0
 961.833 739.167 967 726.667 967 712 c 2
 967 -112 l 2
 967 -126.667 961.833 -139.167 951.5 -149.5 c 0
 941.163 -159.833 928.33 -165 913 -165 c 2
 89 -165 l 2
 74.3333 -165 61.8333 -159.833 51.5 -149.5 c 0
 41.1667 -139.167 36 -126.667 36 -112 c 2
 36 712 l 2
 36 726.667 41.1667 739.167 51.5 749.5 c 0
 61.8333 759.833 74.3333 765 89 765 c 2
 913 765 l 1
 913 765 l 1
EndSplineSet
EndChar

StartChar: uniF05B
Encoding: 61531 61531 92
Width: 1000
VWidth: 0
Flags: H
LayerCount: 2
Fore
SplineSet
761 530 m 2
 761 538.675 758.167 545.842 752.5 551.5 c 0
 746.833 557.167 739.667 560 731 560 c 2
 271 560 l 2
 263 560 256 557.167 250 551.5 c 0
 244 545.833 241 538.667 241 530 c 2
 241 70 l 2
 241 62 244 55 250 49 c 0
 256 43 263 40 271 40 c 2
 731 40 l 2
 739.672 40 746.839 43 752.5 49 c 0
 758.167 55 761 62 761 70 c 2
 761 530 l 2
500 800 m 0
 568.667 800 633.5 786.833 694.5 760.5 c 0
 755.5 734.167 808.5 698.5 853.5 653.5 c 0
 898.5 608.5 934.167 555.5 960.5 494.5 c 0
 986.833 433.5 1000 368.667 1000 300 c 0
 1000 254 994 209.667 982 167 c 0
 970 124.333 953.167 84.5 931.5 47.5 c 0
 909.833 10.5 883.833 -23.1667 853.5 -53.5 c 0
 823.167 -83.8333 789.5 -109.833 752.5 -131.5 c 0
 715.5 -153.167 675.667 -170 633 -182 c 0
 590.333 -194 546 -200 500 -200 c 0
 454 -200 409.667 -194 367 -182 c 0
 324.333 -170 284.5 -153.167 247.5 -131.5 c 0
 210.5 -109.833 176.833 -83.8333 146.5 -53.5 c 0
 116.167 -23.1667 90.1667 10.5 68.5 47.5 c 0
 46.8333 84.5 30 124.333 18 167 c 0
 6 209.667 0 254 0 300 c 0
 0 346 6 390.333 18 433 c 0
 30 475.667 46.8333 515.5 68.5 552.5 c 0
 90.1667 589.5 116.167 623.167 146.5 653.5 c 0
 176.833 683.833 210.5 709.833 247.5 731.5 c 0
 284.5 753.167 324.333 770 367 782 c 0
 409.667 794 454 800 500 800 c 0
501 105 m 0
 476.333 105 453 109.667 431 119 c 0
 409 128.333 389.833 141.167 373.5 157.5 c 0
 357.167 173.833 344.333 192.833 335 214.5 c 0
 325.667 236.167 321 259.333 321 284 c 1
 682 284 l 1
 682 259.333 677.167 236.167 667.5 214.5 c 0
 657.833 192.833 644.833 173.833 628.5 157.5 c 0
 612.167 141.167 593 128.333 571 119 c 0
 549 109.667 525.667 105 501 105 c 0
586 349 m 0
 570.667 349 557.5 354.5 546.5 365.5 c 0
 535.5 376.5 530 389.667 530 405 c 0
 530 420.333 535.5 433.5 546.5 444.5 c 0
 557.5 455.5 570.667 461 586 461 c 0
 601.333 461 614.5 455.5 625.5 444.5 c 0
 636.5 433.5 642 420.333 642 405 c 0
 642 389.667 636.5 376.5 625.5 365.5 c 0
 614.5 354.5 601.333 349 586 349 c 0
411 349 m 0
 395.667 349 382.5 354.5 371.5 365.5 c 0
 360.5 376.5 355 389.667 355 405 c 0
 355 420.333 360.5 433.5 371.5 444.5 c 0
 382.5 455.5 395.667 461 411 461 c 0
 426.333 461 439.5 455.5 450.5 444.5 c 0
 461.5 433.5 467 420.333 467 405 c 0
 467 389.667 461.5 376.5 450.5 365.5 c 0
 439.5 354.5 426.333 349 411 349 c 0
EndSplineSet
EndChar

StartChar: uniF05C
Encoding: 61532 61532 46
Width: 1000
VWidth: 0
Flags: H
LayerCount: 2
Fore
SplineSet
722 228 m 0
 742.667 248.667 758.167 272 768.5 298 c 0
 778.833 324 784 350.5 784 377.5 c 0
 784 404.5 778.833 431.167 768.5 457.5 c 0
 758.167 483.833 742.667 507.333 722 528 c 0
 701.333 548.667 678 564 652 574 c 0
 626 584 599.333 589 572 589 c 0
 544.667 589 518 584 492 574 c 0
 466 564 442.667 548.667 422 528 c 0
 401.333 507.333 385.833 483.833 375.5 457.5 c 0
 365.167 431.167 360 404.5 360 377.5 c 0
 360 350.5 365.167 324 375.5 298 c 0
 385.833 272 401.333 248.667 422 228 c 0
 442.667 207.333 466 191.833 492 181.5 c 0
 518 171.167 544.667 166 572 166 c 0
 599.333 166 626 171.167 652 181.5 c 0
 678 191.833 701.333 207.333 722 228 c 0
842 648 m 0
 879.333 610.667 907.333 568.5 926 521.5 c 0
 944.667 474.5 954 426.667 954 378 c 0
 954 329.333 944.667 281.5 926 234.5 c 0
 907.333 187.5 879.333 145.333 842 108 c 0
 812 78 778.667 54 742 36 c 0
 705.333 18 667.333 6 628 0 c 0
 588.667 -6 549.167 -5.66667 509.5 1 c 0
 469.833 7.66667 432 20.3333 396 39 c 1
 224 -133 l 2
 214 -143 203 -150.333 191 -155 c 0
 179 -159.667 166.5 -162 153.5 -162 c 0
 140.5 -162 128 -159.667 116 -155 c 0
 104 -150.333 93 -143 83 -133 c 0
 73 -123 65.6667 -112 61 -100 c 0
 56.3333 -88 54 -75.5 54 -62.5 c 0
 54 -49.5 56.3333 -37 61 -25 c 0
 65.6667 -13 73 -2 83 8 c 2
 249 174 l 1
 225.666 210.667 209.333 250 200 292 c 0
 190.667 334 188.167 376 192.5 418 c 0
 196.833 460 208.167 500.833 226.5 540.5 c 0
 244.833 580.167 270 616 302 648 c 0
 339.333 684.668 381.5 712.335 428.5 731 c 0
 475.5 749.667 523.334 759 572 759 c 0
 620.667 759 668.5 749.667 715.5 731 c 0
 762.5 712.333 804.667 684.667 842 648 c 0
EndSplineSet
EndChar

StartChar: uniF060
Encoding: 61536 61536 96
Width: 1000
VWidth: 0
Flags: H
LayerCount: 2
Fore
SplineSet
130 757 m 0
 206 757 279.167 747.167 349.5 727.5 c 0
 419.834 707.833 485.667 680 547 644 c 0
 608.333 608 664.167 564.833 714.5 514.5 c 0
 764.833 464.167 808 408.333 844 347 c 0
 880 285.667 907.833 219.833 927.5 149.5 c 0
 947.167 79.1667 957 6 957 -70 c 0
 957 -94 948.5 -114.5 931.5 -131.5 c 0
 914.5 -148.5 894 -157 870 -157 c 0
 846 -157 825.5 -148.5 808.5 -131.5 c 0
 791.5 -114.5 783 -94 783 -70 c 0
 783 -10 775.167 47.8333 759.5 103.5 c 0
 743.833 159.167 721.833 211.167 693.5 259.5 c 0
 665.167 307.833 631.167 351.833 591.5 391.5 c 0
 551.833 431.167 507.833 465.167 459.5 493.5 c 0
 411.167 521.833 359.167 543.833 303.5 559.5 c 0
 247.833 575.167 190 583 130 583 c 0
 106 583 85.5 591.5 68.5 608.5 c 0
 51.5 625.5 43 646 43 670 c 0
 43 694 51.5 714.5 68.5 731.5 c 0
 85.5 748.5 106 757 130 757 c 0
130 428 m 0
 198.667 428 263.167 414.833 323.5 388.5 c 0
 383.833 362.167 436.5 326.5 481.5 281.5 c 0
 526.5 236.5 562.167 183.833 588.5 123.5 c 0
 614.833 63.1667 628 -1.33334 628 -70 c 0
 628 -94 619.5 -114.5 602.5 -131.5 c 0
 585.5 -148.5 565 -157 541 -157 c 0
 517 -157 496.5 -148.5 479.5 -131.5 c 0
 462.5 -114.5 454 -94 454 -70 c 0
 454 -25.3333 445.5 16.6667 428.5 56 c 0
 411.5 95.3333 388.333 129.667 359 159 c 0
 329.667 188.333 295.333 211.5 256 228.5 c 0
 216.667 245.5 174.667 254 130 254 c 0
 106 254 85.5 262.5 68.5 279.5 c 0
 51.5 296.5 43 317 43 341 c 0
 43 365 51.5 385.5 68.5 402.5 c 0
 85.5 419.5 106 428 130 428 c 0
290 -29 m 0
 290 -46.3333 286.833 -62.3333 280.5 -77 c 0
 274.167 -91.6667 265.5 -104.5 254.5 -115.5 c 0
 243.5 -126.5 230.5 -135.167 215.5 -141.5 c 0
 200.5 -147.833 184.667 -151 168 -151 c 0
 150.667 -151 134.667 -147.833 120 -141.5 c 0
 105.333 -135.167 92.5 -126.5 81.5 -115.5 c 0
 70.5 -104.5 61.8333 -91.6667 55.5 -77 c 0
 49.1667 -62.3333 46 -46.3333 46 -29 c 0
 46 -12.3333 49.1667 3.5 55.5 18.5 c 0
 61.8333 33.5 70.5 46.5 81.5 57.5 c 0
 92.5 68.5 105.333 77.1667 120 83.5 c 0
 134.667 89.8333 150.667 93 168 93 c 0
 184.667 93 200.5 89.8333 215.5 83.5 c 0
 230.5 77.1667 243.5 68.5 254.5 57.5 c 0
 265.5 46.5 274.167 33.5 280.5 18.5 c 0
 286.833 3.5 290 -12.3333 290 -29 c 0
EndSplineSet
EndChar

StartChar: uniF064
Encoding: 61540 61540 100
Width: 1000
VWidth: 0
Flags: H
LayerCount: 2
Fore
SplineSet
500 738 m 0
 560.667 738 617.5 726.5 670.5 703.5 c 0
 723.5 680.5 769.833 649.167 809.5 609.5 c 0
 849.167 569.833 880.5 523.5 903.5 470.5 c 0
 926.5 417.5 938 360.667 938 300 c 0
 938 239.333 926.5 182.5 903.5 129.5 c 0
 880.5 76.5 849.167 30.1667 809.5 -9.5 c 0
 769.833 -49.1667 723.5 -80.5 670.5 -103.5 c 0
 617.5 -126.5 560.667 -138 500 -138 c 0
 439.333 -138 382.5 -126.5 329.5 -103.5 c 0
 276.5 -80.5 230.167 -49.1667 190.5 -9.5 c 0
 150.833 30.1667 119.667 76.5 97 129.5 c 0
 74.3333 182.5 63 239.333 63 300 c 0
 63 360.667 74.3333 417.5 97 470.5 c 0
 119.667 523.5 150.833 569.833 190.5 609.5 c 0
 230.167 649.167 276.5 680.5 329.5 703.5 c 0
 382.5 726.5 439.333 738 500 738 c 0
500 690 m 0
 446 690 395.333 679.833 348 659.5 c 0
 300.667 639.165 259.333 611.332 224 576 c 0
 188.667 540.667 160.833 499.333 140.5 452 c 0
 120.167 404.667 110 354 110 300 c 0
 110 246 120.167 195.333 140.5 148 c 0
 160.833 100.667 188.667 59.3333 224 24 c 0
 259.334 -11.3333 300.667 -39.1667 348 -59.5 c 0
 395.333 -79.8333 446 -90 500 -90 c 0
 554 -90 604.667 -79.8333 652 -59.5 c 0
 699.333 -39.1667 740.667 -11.3333 776 24 c 0
 811.333 59.3333 839.167 100.667 859.5 148 c 0
 879.833 195.333 890 246 890 300 c 0
 890 354 879.833 404.667 859.5 452 c 0
 839.164 499.333 811.33 540.667 776 576 c 0
 740.665 611.333 699.332 639.167 652 659.5 c 0
 604.667 679.833 554 690 500 690 c 0
612 228 m 0
 654 242.667 675 270.333 675 311 c 0
 675 332.334 671.5 349.167 664.5 361.5 c 0
 657.5 373.833 646.333 384 631 392 c 0
 623.667 396 615 398.333 605 399 c 0
 595 399.667 584.333 399.833 573 399.5 c 0
 561.667 399.167 549.667 398.5 537 397.5 c 0
 524.333 396.5 511.667 396 499 396 c 0
 486.333 396 473.666 396.5 461 397.5 c 0
 448.333 398.5 436.333 399.167 425 399.5 c 0
 413.667 399.833 403 399.667 393 399 c 0
 383 398.333 374.333 396 367 392 c 0
 351.667 384 340.667 373.833 334 361.5 c 0
 327.333 349.167 324 332.333 324 311 c 0
 324 270.333 345 242.667 387 228 c 0
 394.333 226 402.333 224 411 222 c 0
 418.333 220.666 427.5 219.333 438.5 218 c 0
 449.5 216.667 462.333 216 477 216 c 2
 521 216 l 2
 535 216 547.667 216.667 559 218 c 0
 570.333 219.333 580 220.667 588 222 c 0
 597.333 224 605.333 226 612 228 c 0
732 373 m 0
 732 351.667 729.667 331.5 725 312.5 c 0
 720.333 293.5 711.667 276.333 699 261 c 0
 686.333 245.667 668.833 233 646.5 223 c 0
 624.167 213 595.667 206.667 561 204 c 1
 566.333 201.333 573.167 198 581.5 194 c 0
 589.833 190 597 182.333 603 171 c 0
 606.333 163.667 608.5 153 609.5 139 c 0
 610.5 125 611 110.667 611 96 c 0
 611 81.3333 610.833 67.8333 610.5 55.5 c 0
 610.167 43.1667 610.667 35.6667 612 33 c 0
 614.667 27.6667 618.5 23 623.5 19 c 0
 628.5 15 632.667 12 636 10 c 0
 639.333 8 640.333 5.5 639 2.5 c 0
 637.667 -0.5 633 -2.33333 625 -3 c 0
 621 -3 616 -2.33333 610 -1 c 0
 604 0.333333 598.333 2.66667 593 6 c 0
 587.667 9.33333 583.167 13.5 579.5 18.5 c 0
 575.833 23.5 574 30 574 38 c 2
 574 120 l 2
 574 129.333 571.833 136 567.5 140 c 0
 563.167 144 558.667 146.667 554 148 c 1
 554 40 l 2
 554 20.6667 556.333 8 561 2 c 0
 563 -0.666667 564.833 -3.5 566.5 -6.5 c 0
 568.167 -9.5 569.167 -12 569.5 -14 c 0
 569.833 -16 568.667 -17.1667 566 -17.5 c 0
 563.333 -17.8333 558.333 -17 551 -15 c 0
 537 -11.6667 527 -4 521 8 c 0
 515 20 512 32.6667 512 46 c 2
 512 152 l 1
 490 152 l 1
 490 46 l 2
 490 32.6667 487.167 20 481.5 8 c 0
 475.832 -4 465.665 -11.6667 451 -15 c 0
 443.667 -17 438.833 -17.8333 436.5 -17.5 c 0
 434.167 -17.1667 433 -16 433 -14 c 0
 433 -12 434 -9.5 436 -6.5 c 0
 438 -3.5 440 -0.666667 442 2 c 0
 443.333 4.66667 444.833 9.33333 446.5 16 c 0
 448.167 22.6667 449 30.6667 449 40 c 2
 449 148 l 1
 444.333 146.667 440 144 436 140 c 0
 432 136 430 129.333 430 120 c 2
 430 38 l 2
 430 30 428.167 23.5 424.5 18.5 c 0
 420.833 13.5 416.333 9.33333 411 6 c 0
 405.667 2.66667 400 0.333333 394 -1 c 0
 388 -2.33333 383 -3 379 -3 c 0
 371 -2.33333 366.333 -0.5 365 2.5 c 0
 363.667 5.5 364.667 8 368 10 c 0
 371.333 12 375.5 15 380.5 19 c 0
 385.5 23 389.333 27.6667 392 33 c 0
 393.333 36.3333 393.833 45.1667 393.5 59.5 c 0
 393.167 73.8334 393 89.6667 393 107 c 1
 387.667 105 380.667 103.667 372 103 c 0
 363.332 102.333 353.665 103 343 105 c 0
 325 108.333 311.333 114.167 302 122.5 c 0
 292.667 130.833 283.667 144 275 162 c 0
 270.332 170.667 265.166 177.834 259.5 183.5 c 0
 253.833 189.167 248.833 193.667 244.5 197 c 0
 240.166 200.333 236.832 203.167 234.5 205.5 c 0
 232.167 207.833 232 210 234 212 c 0
 238 216.667 243.5 218.667 250.5 218 c 0
 257.5 217.333 261.667 216.333 263 215 c 1
 271 211.667 279 204.667 287 194 c 0
 295 183.333 303.333 174.333 312 167 c 0
 316 163.666 321 160.333 327 157 c 0
 333 153.665 339.667 151.332 347 150 c 0
 354.333 148.667 362.333 148.667 371 150 c 0
 379.667 151.333 388.333 155 397 161 c 1
 399 169.667 402.167 176.5 406.5 181.5 c 0
 410.833 186.5 415.5 190.5 420.5 193.5 c 0
 425.5 196.5 430.167 198.833 434.5 200.5 c 0
 438.833 202.167 442.333 203.667 445 205 c 1
 408.333 207.667 378.333 213.834 355 223.5 c 0
 331.667 233.167 313.167 245.5 299.5 260.5 c 0
 285.833 275.5 276.5 292.667 271.5 312 c 0
 266.5 331.334 264 351.667 264 373 c 0
 264 395 267.333 414.667 274 432 c 0
 280.667 449.334 290 464.668 302 478 c 1
 296.667 494 294.833 510.833 296.5 528.5 c 0
 298.167 546.167 301.667 562 307 576 c 1
 332.333 574.662 353.5 569.329 370.5 560 c 0
 387.5 550.667 399.333 543 406 537 c 1
 434.667 545 464.333 549 495 549 c 2
 502 549 l 2
 530.667 549 558.334 545.667 585 539 c 1
 592.333 545 604.333 552.333 621 561 c 0
 637.669 569.667 658.336 574.667 683 576 c 1
 688.333 562.667 691.833 547.667 693.5 531 c 0
 695.167 514.333 694 498.333 690 483 c 1
 703.333 469.667 713.667 453.833 721 435.5 c 0
 728.333 417.167 732 396.333 732 373 c 0
498 396 m 1
 499 396 l 1
 500 396 l 1
 498 396 l 1
627 318 m 0
 627 308.667 624.5 300.667 619.5 294 c 0
 614.5 287.333 608.333 284 601 284 c 0
 593.667 284 587.667 287.333 583 294 c 0
 578.333 300.667 576 308.667 576 318 c 0
 576 327.333 578.333 335.333 583 342 c 0
 587.667 348.667 593.667 352 601 352 c 0
 608.333 352 614.5 348.667 619.5 342 c 0
 624.5 335.333 627 327.333 627 318 c 0
431 318 m 0
 431 308.667 428.5 300.667 423.5 294 c 0
 418.5 287.333 412.333 284 405 284 c 0
 397.667 284 391.667 287.333 387 294 c 0
 382.333 300.667 380 308.667 380 318 c 0
 380 327.333 382.333 335.333 387 342 c 0
 391.667 348.667 397.667 352 405 352 c 0
 412.333 352 418.5 348.667 423.5 342 c 0
 428.5 335.333 431 327.333 431 318 c 0
EndSplineSet
EndChar

StartChar: uniF065
Encoding: 61541 61541 101
Width: 1000
VWidth: 0
Flags: H
LayerCount: 2
Fore
SplineSet
848 393 m 0
 848 351.667 840 314.167 824 280.5 c 0
 808 246.833 785.167 218 755.5 194 c 0
 725.833 170 690 151.5 648 138.5 c 0
 606 125.5 559 118.667 507 118 c 1
 507 73 l 2
 507 45 499.333 19.1667 484 -4.5 c 0
 468.667 -28.1667 448.333 -45.6667 423 -57 c 0
 416.333 -60.3333 408.333 -63.1666 399 -65.5 c 0
 389.667 -67.8333 379.333 -69 368 -69 c 0
 358 -69 347.167 -67.6667 335.5 -65 c 0
 323.833 -62.3334 311.333 -57.6667 298 -51 c 1
 298 79 l 1
 308.667 71 318.833 66 328.5 64 c 0
 338.167 62 346.833 62.1667 354.5 64.5 c 0
 362.167 66.8335 368.333 71.1668 373 77.5 c 0
 377.667 83.8334 380 91.6667 380 101 c 2
 380 462 l 1
 507 462 l 1
 507 237 l 1
 517 237 529.5 237.667 544.5 239 c 0
 559.5 240.333 575.167 242.833 591.5 246.5 c 0
 607.833 250.167 624.167 255.5 640.5 262.5 c 0
 656.833 269.5 671.5 278.833 684.5 290.5 c 0
 697.5 302.167 708.167 316.333 716.5 333 c 0
 724.833 349.667 729 369.667 729 393 c 0
 729 424.334 722.333 450.668 709 472 c 0
 695.667 493.334 678.167 510.668 656.5 524 c 0
 634.833 537.333 610.333 547 583 553 c 0
 555.667 559 528 562 500 562 c 0
 471.333 562 443.333 558.667 416 552 c 0
 388.667 545.333 364.167 535.167 342.5 521.5 c 0
 320.833 507.833 303.5 490.333 290.5 469 c 0
 277.5 447.667 271 422.333 271 393 c 0
 271 383.667 272 373.667 274 363 c 0
 276 352.333 278.667 342 282 332 c 0
 285.336 322 289.169 312.833 293.5 304.5 c 0
 297.833 296.167 302.333 290 307 286 c 1
 226 199 l 1
 214 210.333 203.333 224 194 240 c 0
 184.667 256 177 272.667 171 290 c 0
 165 307.333 160.333 325 157 343 c 0
 153.667 361 152 377.667 152 393 c 0
 152 435.667 160.5 474.667 177.5 510 c 0
 194.5 545.333 218.333 575.667 249 601 c 0
 279.667 626.333 316.333 646 359 660 c 0
 401.667 674 448.667 681 500 681 c 0
 552 681 599.333 674 642 660 c 0
 684.667 646 721.334 626.5 752 601.5 c 0
 782.67 576.5 806.336 546.167 823 510.5 c 0
 839.667 474.833 848 435.666 848 393 c 0
EndSplineSet
EndChar

StartChar: uniF066
Encoding: 61542 61542 102
Width: 1000
VWidth: 0
Flags: H
LayerCount: 2
Fore
SplineSet
818 214 m 2
 818 245.333 814 272.667 806 296 c 0
 798 319.334 787 338.667 773 354 c 0
 759 369.334 742.5 380.667 723.5 388 c 0
 704.5 395.333 683.667 399 661 399 c 0
 643 399 627.333 396.833 614 392.5 c 0
 600.667 388.167 589.167 382.5 579.5 375.5 c 0
 569.833 368.5 561.667 361 555 353 c 0
 548.333 345 542.667 337.667 538 331 c 1
 538 389 l 1
 402 389 l 1
 402.667 377.667 403 355.667 403 323 c 2
 403 199 l 1
 402 -22 l 1
 538 -22 l 1
 538 208 l 2
 538 214 538.333 219.833 539 225.5 c 0
 539.667 231.168 541 236.334 543 241 c 0
 548.333 253 556.5 264.333 567.5 275 c 0
 578.5 285.667 593.667 291 613 291 c 0
 637.669 291 655.336 282.5 666 265.5 c 0
 676.667 248.5 682 226 682 198 c 2
 682 -22 l 1
 818 -22 l 1
 818 214 l 2
258 445 m 1
 282 445 301 452 315 466 c 0
 329 480 335.667 496.667 335 516 c 1
 335 536 328.167 552.833 314.5 566.5 c 0
 300.833 580.167 282.333 587 259 587 c 0
 235.667 587 217 580.167 203 566.5 c 0
 189 552.833 182 536 182 516 c 0
 182 496.667 188.667 480 202 466 c 0
 215.333 452 233.667 445 257 445 c 2
 258 445 l 1
 258 445 l 1
326 389 m 1
 190 389 l 1
 190 -22 l 1
 326 -22 l 1
 326 389 l 1
945 773 m 1
 951.681 773 957.348 770.833 962 766.5 c 0
 966.667 762.167 969 756.667 969 750 c 2
 969 -150 l 2
 969 -156.667 966.667 -162.167 962 -166.5 c 0
 957.333 -170.833 951.667 -173 945 -173 c 2
 55 -173 l 2
 48.3333 -173 42.6667 -170.833 38 -166.5 c 0
 33.3333 -162.167 31 -156.667 31 -150 c 2
 31 750 l 2
 31 756.667 33.3333 762.167 38 766.5 c 0
 42.6667 770.833 48.3334 773 55 773 c 2
 945 773 l 1
 945 773 l 1
EndSplineSet
EndChar

StartChar: uniF068
Encoding: 61544 61544 104
Width: 1000
VWidth: 0
Flags: H
LayerCount: 2
Fore
SplineSet
868 586 m 1
 898.667 546 922.667 501.833 940 453.5 c 0
 957.333 405.167 966 354 966 300 c 0
 966 236 953.833 175.667 929.5 119 c 0
 905.165 62.3333 871.832 12.8333 829.5 -29.5 c 0
 787.167 -71.8333 737.667 -105.167 681 -129.5 c 0
 624.333 -153.833 564 -166 500 -166 c 0
 454.667 -166 411.167 -159.833 369.5 -147.5 c 0
 327.833 -135.167 289.166 -117.833 253.5 -95.5 c 0
 217.833 -73.1667 185.667 -46.3333 157 -15 c 0
 128.333 16.3333 104.333 50.6667 85 88 c 1
 288 88 l 2
 336.667 88 376.167 100.167 406.5 124.5 c 0
 436.833 148.833 452 182 452 224 c 0
 452 253.333 447 276.333 437 293 c 0
 427 309.667 414.5 322.5 399.5 331.5 c 0
 384.5 340.5 368.167 346.667 350.5 350 c 0
 332.833 353.333 316.5 356.333 301.5 359 c 0
 286.5 361.667 274 365 264 369 c 0
 254 373 249 380.333 249 391 c 0
 249 406.333 254.833 417 266.5 423 c 0
 278.167 429 295 432 317 432 c 2
 391 432 l 1
 458 432 l 2
 468 432 478.167 431.333 488.5 430 c 0
 498.833 428.667 508 426.333 516 423 c 0
 524 419.667 530.667 414.833 536 408.5 c 0
 541.333 402.167 544 393.667 544 383 c 2
 544 242 l 2
 544 216.667 548.5 194.333 557.5 175 c 0
 566.5 155.667 578.5 139.5 593.5 126.5 c 0
 608.5 113.5 625.833 103.833 645.5 97.5 c 0
 665.169 91.1667 685.336 88 706 88 c 0
 726.667 88 746.834 91.1667 766.5 97.5 c 0
 786.167 103.833 803.5 113.5 818.5 126.5 c 0
 833.5 139.5 845.5 155.667 854.5 175 c 0
 863.5 194.333 868 216.667 868 242 c 2
 868 586 l 1
500 766 m 0
 548.667 766 595 758.833 639 744.5 c 0
 683 730.165 724 710.332 762 685 c 1
 762 238 l 2
 762 222.667 756.5 209.5 745.5 198.5 c 0
 734.5 187.5 721.333 182 706 182 c 0
 690.661 182 677.328 187.5 666 198.5 c 0
 654.667 209.5 649 222.667 649 238 c 2
 649 372 l 2
 649 398.667 645.833 421.667 639.5 441 c 0
 633.167 460.334 624.5 476.168 613.5 488.5 c 0
 602.5 500.833 589.333 509.833 574 515.5 c 0
 558.665 521.167 542.331 524 525 524 c 2
 296 524 l 2
 275.333 524 255.833 520.833 237.5 514.5 c 0
 219.167 508.167 203 499 189 487 c 0
 175 475 164 460.5 156 443.5 c 0
 148 426.5 144 407.667 144 387 c 0
 144 376.332 145.333 364.665 148 352 c 0
 150.667 339.333 155.834 327.333 163.5 316 c 0
 171.167 304.667 181.833 294.5 195.5 285.5 c 0
 209.167 276.5 227 270 249 266 c 0
 267 262.667 282.167 260.167 294.5 258.5 c 0
 306.833 256.833 317 254.667 325 252 c 0
 333 249.333 338.833 245.5 342.5 240.5 c 0
 346.167 235.5 348 228.333 348 219 c 0
 348 209.667 345.5 202.5 340.5 197.5 c 0
 335.5 192.5 328.833 188.833 320.5 186.5 c 0
 312.167 184.164 302.167 182.831 290.5 182.5 c 0
 278.833 182.167 266 182 252 182 c 2
 49 182 l 1
 44.3333 201.333 40.6667 220.667 38 240 c 0
 35.3333 259.333 34 279.333 34 300 c 0
 34 364 46.1667 424.333 70.5 481 c 0
 94.8333 537.667 128.167 587.167 170.5 629.5 c 0
 212.833 671.833 262.333 705.167 319 729.5 c 0
 375.667 753.833 436 766 500 766 c 0
EndSplineSet
EndChar

StartChar: uniF069
Encoding: 61545 61545 105
Width: 1000
VWidth: 0
Flags: H
LayerCount: 2
Fore
SplineSet
686 217 m 0
 702 217 714.667 212.333 724 203 c 0
 729.333 197.666 733 191.833 735 185.5 c 0
 737 179.167 738.667 173.667 740 169 c 1
 625 169 l 1
 625.686 173 627.352 177.667 630 183 c 0
 632.676 188.333 636.343 193.5 641 198.5 c 0
 645.667 203.5 651.667 207.833 659 211.5 c 0
 666.333 215.167 675.333 217 686 217 c 0
390 156 m 1
 390.667 156 393 155.667 397 155 c 0
 401 154.333 405.167 152.5 409.5 149.5 c 0
 413.836 146.5 417.67 141.833 421 135.5 c 0
 424.333 129.167 426 120 426 108 c 0
 426 88.6667 421.333 76.3333 412 71 c 0
 402.667 65.6667 393.333 63 384 63 c 2
 281 63 l 1
 281 156 l 1
 390 156 l 1
 390 156 l 1
412 271 m 1
 412 261.667 411.167 254.167 409.5 248.5 c 0
 407.827 242.833 405.66 238.667 403 236 c 0
 400.333 233.333 397.333 231.667 394 231 c 0
 390.667 230.333 387 230 383 230 c 2
 281 230 l 1
 281 306 l 1
 375 306 l 1
 390 306 l 1
 393.5 305.5 l 1
 401 301.5 l 1
 408.5 291 l 1
 412 271 l 1
832 107 m 0
 832 107.667 832.333 112.667 833 122 c 0
 833.667 131.333 833.333 142.833 832 156.5 c 0
 830.641 170.167 827.308 184.667 822 200 c 0
 816.667 215.333 808 229.667 796 243 c 0
 770.667 272.333 734.667 287 688 287 c 0
 667.333 287 649.167 284.5 633.5 279.5 c 0
 617.833 274.5 604.5 268.167 593.5 260.5 c 0
 582.5 252.833 573.333 244.167 566 234.5 c 0
 558.667 224.833 552.667 215.667 548 207 c 0
 543.333 197 539.667 187.333 537 178 c 0
 534.333 168.666 532.333 160.333 531 153 c 0
 529.651 145.667 528.817 139.667 528.5 135 c 2
 528 128 l 1
 528 115.5 l 1
 531.5 87 l 1
 543 50.5 l 1
 568 14 l 1
 594.668 -16 634.335 -31 687 -31 c 2
 693 -31 l 2
 699 -31 709.5 -30.3333 724.5 -29 c 0
 739.5 -27.6667 754.833 -23.1667 770.5 -15.5 c 0
 786.167 -7.83333 800 3.5 812 18.5 c 0
 824 33.5 830 54.3333 830 81 c 0
 830 85.6667 827.667 88 823 88 c 2
 754 88 l 2
 752 88 750.333 87.3333 749 86 c 0
 747.667 83.3327 747 81.666 747 81 c 0
 747 80.3333 746.667 78 746 74 c 0
 745.333 70 742.667 65.3333 738 60 c 0
 728 50 711.667 45 689 45 c 2
 687 45 l 2
 684.333 45 679.667 45.5 673 46.5 c 0
 666.333 47.5 659.333 50 652 54 c 0
 636 63.3333 627.667 79 627 101 c 1
 826 101 l 2
 830 101 832 103 832 107 c 0
526 101 m 2
 526 110.5 l 1
 524 132 l 1
 516.5 159 l 1
 500 184 l 1
 492 192 483 198 473 202 c 1
 482.335 207.333 491.169 215.5 499.5 226.5 c 0
 507.833 237.5 512 253.667 512 275 c 0
 512 309.667 501.5 337.167 480.5 357.5 c 0
 459.5 377.833 430.333 388 393 388 c 2
 187 388 l 2
 182.333 388 180 385.667 180 381 c 2
 180 -16 l 2
 180 -20.6667 182.333 -23 187 -23 c 2
 395 -23 l 2
 399.667 -23 408.667 -22 422 -20 c 0
 435.334 -18 449.668 -13.3333 465 -6 c 0
 479 0.666667 492.667 12.3333 506 29 c 0
 519.333 45.6667 526 69.6667 526 101 c 2
596 323 m 2
 596 319 598 317 602 317 c 2
 766 317 l 2
 770.667 317 773 319 773 323 c 2
 773 372 l 2
 773 376.667 770.667 379 766 379 c 2
 602 379 l 2
 598 379 596 376.667 596 372 c 2
 596 323 l 2
945 773 m 1
 951.681 773 957.348 770.833 962 766.5 c 0
 966.667 762.167 969 756.667 969 750 c 2
 969 -150 l 2
 969 -156.667 966.667 -162.167 962 -166.5 c 0
 957.333 -170.833 951.667 -173 945 -173 c 2
 55 -173 l 2
 48.3333 -173 42.6667 -170.833 38 -166.5 c 0
 33.3333 -162.167 31 -156.667 31 -150 c 2
 31 750 l 2
 31 756.667 33.3333 762.167 38 766.5 c 0
 42.6667 770.833 48.3334 773 55 773 c 2
 945 773 l 1
 945 773 l 1
EndSplineSet
EndChar

StartChar: uniF06C
Encoding: 61548 61548 108
Width: 1000
VWidth: 0
Flags: H
LayerCount: 2
Fore
SplineSet
969 635 m 2
 969 -31 l 2
 969 -37.6667 966.667 -43.1667 962 -47.5 c 0
 957.333 -51.8333 951.667 -54 945 -54 c 2
 55 -54 l 2
 48.3333 -54 42.6667 -51.8333 38 -47.5 c 0
 33.3333 -43.1667 31 -37.6667 31 -31 c 2
 31 635 l 2
 31 641.667 33.3333 647.167 38 651.5 c 0
 42.6667 655.833 48.3334 658 55 658 c 2
 945 658 l 2
 951.681 658 957.348 655.833 962 651.5 c 0
 966.667 647.167 969 641.667 969 635 c 2
365 94 m 1
 693 300 l 1
 365 506 l 1
 365 94 l 1
EndSplineSet
EndChar

StartChar: uniF06D
Encoding: 61549 61549 109
Width: 1000
VWidth: 0
Flags: H
LayerCount: 2
Fore
SplineSet
790 446 m 0
 794 467.333 793.333 486.333 788 503 c 0
 786.655 506.333 785.321 509.5 784 512.5 c 0
 782.667 515.5 780.667 518.667 778 522 c 0
 772 529.333 764.833 535 756.5 539 c 0
 748.167 543 739.167 545.833 729.5 547.5 c 0
 719.833 549.167 710 549.833 700 549.5 c 0
 690 549.15 680.667 548.317 672 547 c 0
 665.333 545.667 655.167 542.167 641.5 536.5 c 0
 627.833 530.833 613.333 522.167 598 510.5 c 0
 582.664 498.833 567.831 484.333 553.5 467 c 0
 539.167 449.667 528 428.667 520 404 c 1
 534 404 l 1
 551.333 405.333 565.5 403.833 576.5 399.5 c 0
 587.5 395.167 594.667 386.333 598 373 c 1
 600.685 365.667 601.352 354 600 338 c 0
 598.667 324.667 595.167 311.167 589.5 297.5 c 0
 583.833 283.833 577.333 270.333 570 257 c 0
 566 249 561 240 555 230 c 0
 549 220 542.333 211.667 535 205 c 0
 527.663 198.333 519.329 194.5 510 193.5 c 0
 500.667 192.5 491 197.667 481 209 c 0
 479 211 477 213.333 475 216 c 2
 469 224 l 1
 463 234.667 458.333 246.333 455 259 c 0
 451.667 271.667 449 284.833 447 298.5 c 0
 445 312.167 443.5 325.5 442.5 338.5 c 0
 441.5 351.5 440 363.667 438 375 c 0
 435.33 389 432.663 404.333 430 421 c 0
 427.33 437.667 423.663 453.333 419 468 c 2
 417 474 l 1
 415 480 l 1
 409.667 491.334 403.167 501.667 395.5 511 c 0
 387.833 520.333 379.333 526.667 370 530 c 1
 358 533.333 345.333 533.167 332 529.5 c 0
 318.667 525.833 307.667 521.333 299 516 c 0
 271 499.333 245.5 480.333 222.5 459 c 0
 199.5 437.667 176 417.333 152 398 c 1
 152 394 l 1
 155.333 390.667 158 387 160 383 c 1
 162.667 379.667 165.167 376.5 167.5 373.5 c 0
 169.833 370.5 173.333 368.667 178 368 c 0
 186 366.667 194 367.333 202 370 c 0
 210 372.667 217.833 375 225.5 377 c 0
 233.167 379 240.334 379.333 247 378 c 0
 253.668 376.667 259.668 371.333 265 362 c 0
 266.337 359.333 267.671 356.833 269 354.5 c 0
 270.337 352.167 271.671 349.333 273 346 c 1
 272.333 346.667 272 347.333 272 348 c 1
 272 347.328 272.333 346.661 273 346 c 0
 277 336.667 280.167 327.167 282.5 317.5 c 0
 284.836 307.833 287.669 298.333 291 289 c 0
 297 272.333 302.333 255.333 307 238 c 0
 311.667 220.666 316.333 202.333 321 183 c 0
 326.336 162.333 332.169 139.667 338.5 115 c 0
 344.835 90.3333 353.668 68 365 48 c 0
 371 36.6667 377.833 27 385.5 19 c 0
 393.167 11 402 5 412 1 c 0
 418.667 -2.33333 426.333 -3.83333 435 -3.5 c 0
 443.667 -3.16667 452.167 -2 460.5 0 c 0
 468.833 2 476.833 4.5 484.5 7.5 c 0
 492.167 10.5 498.667 13.6667 504 17 c 0
 533.333 34.3333 559.333 54.8333 582 78.5 c 0
 604.667 102.167 625.667 126.667 645 152 c 0
 667.667 182 687.667 212.333 705 243 c 0
 722.333 273.667 737 302.5 749 329.5 c 0
 761 356.5 770.333 380.333 777 401 c 0
 783.667 421.667 788 436.667 790 446 c 0
945 773 m 1
 951.681 773 957.348 770.833 962 766.5 c 0
 966.667 762.167 969 756.667 969 750 c 2
 969 -150 l 2
 969 -156.667 966.667 -162.167 962 -166.5 c 0
 957.333 -170.833 951.667 -173 945 -173 c 2
 55 -173 l 2
 48.3333 -173 42.6667 -170.833 38 -166.5 c 0
 33.3333 -162.167 31 -156.667 31 -150 c 2
 31 750 l 2
 31 756.667 33.3333 762.167 38 766.5 c 0
 42.6667 770.833 48.3334 773 55 773 c 2
 945 773 l 1
 945 773 l 1
EndSplineSet
EndChar

StartChar: uniF072
Encoding: 61554 61554 114
Width: 1000
VWidth: 0
Flags: H
LayerCount: 2
Fore
SplineSet
142 362 m 0
 142 350.667 145 340.667 151 332 c 0
 157 323.333 164.667 317 174 313 c 1
 224 286 l 1
 214.667 282 205 280 195 280 c 0
 172.333 280 153 288 137 304 c 0
 121 320 113 339.333 113 362 c 0
 113 384.667 121 403.833 137 419.5 c 0
 153 435.167 172.333 443 195 443 c 0
 214.333 443 231.5 436.833 246.5 424.5 c 0
 261.5 412.167 271 396.333 275 377 c 1
 225 405 l 1
 215.667 411 205.667 414 195 414 c 0
 180.333 414 167.833 409 157.5 399 c 0
 147.167 389 142 376.667 142 362 c 0
531 257 m 0
 553.669 257 572.836 249 588.5 233 c 0
 604.167 217 612 197.667 612 175 c 0
 612 152.333 604.167 133.167 588.5 117.5 c 0
 572.833 101.833 553.667 94 531 94 c 0
 511 94 493.5 100.167 478.5 112.5 c 0
 463.5 124.833 454.333 140.667 451 160 c 1
 501 132 l 1
 509 126 519 123 531 123 c 0
 545.667 123 558 128 568 138 c 0
 578 148 583 160.333 583 175 c 0
 583 186.333 580 196.333 574 205 c 0
 568 213.667 560.333 220 551 224 c 1
 502 251 l 1
 510.667 255 520.333 257 531 257 c 0
768 478 m 0
 750.664 478 735.831 471.667 723.5 459 c 0
 711.167 446.333 705 431.333 705 414 c 0
 705 396.667 711.167 381.833 723.5 369.5 c 0
 735.833 357.167 750.667 351 768 351 c 0
 785.333 351 800.333 357.167 813 369.5 c 0
 825.667 381.834 832 396.667 832 414 c 0
 832 431.333 825.667 446.333 813 459 c 0
 800.333 471.667 785.333 478 768 478 c 0
768 317 m 0
 754.667 317 742.167 319.5 730.5 324.5 c 0
 718.833 329.5 708.5 336.333 699.5 345 c 0
 690.5 353.667 683.5 364 678.5 376 c 0
 673.5 388 671 400.667 671 414 c 0
 671 427.333 673.5 440 678.5 452 c 0
 683.5 464 690.5 474.5 699.5 483.5 c 0
 708.5 492.5 718.833 499.5 730.5 504.5 c 0
 742.167 509.5 754.667 512 768 512 c 0
 795.333 512 818.5 502.5 837.5 483.5 c 0
 856.5 464.5 866 441.333 866 414 c 0
 866 386.667 856.5 363.667 837.5 345 c 0
 818.5 326.333 795.333 317 768 317 c 0
768 271 m 1
 788 271 806.667 274.667 824 282 c 0
 841.333 289.333 856.5 299.5 869.5 312.5 c 0
 882.5 325.5 892.833 340.667 900.5 358 c 0
 908.167 375.333 912 394 912 414 c 0
 912 434 908.167 452.667 900.5 470 c 0
 892.833 487.333 882.5 502.5 869.5 515.5 c 0
 856.5 528.5 841.333 538.833 824 546.5 c 0
 806.667 554.167 788 558 768 558 c 0
 748.664 558 730.331 554.333 713 547 c 0
 695.667 539.667 680.667 529.667 668 517 c 0
 655.333 504.333 645.167 489.333 637.5 472 c 0
 629.833 454.667 625.667 436.333 625 417 c 1
 532 286 l 1
 531 286 l 2
 511 286 492 280.667 474 270 c 1
 305 371 l 1
 303 395 293.833 416.167 277.5 434.5 c 0
 261.167 452.833 240.333 464.333 215 469 c 1
 199.667 471 185 470.333 171 467 c 0
 157 463.667 144.333 457.833 133 449.5 c 0
 121.667 441.167 112.167 431 104.5 419 c 0
 96.8333 407 92 393.667 90 379 c 0
 87.3333 364.333 87.8333 350 91.5 336 c 0
 95.1667 322 101 309.333 109 298 c 0
 117 286.667 127 277.167 139 269.5 c 0
 151 261.831 164.333 256.665 179 254 c 0
 189.667 252 200 251.833 210 253.5 c 0
 220 255.167 229.667 257.667 239 261 c 1
 421 159 l 1
 424.333 131.667 436.333 108.833 457 90.5 c 0
 477.667 72.1667 502.333 63 531 63 c 0
 546.333 63 560.667 66 574 72 c 0
 587.333 78 599 86 609 96 c 0
 619 106 627 117.667 633 131 c 0
 639 144.333 642 158.667 642 174 c 1
 767 271 l 1
 768 271 l 1
 768 271 l 1
945 784 m 1
 951.681 784 957.348 781.667 962 777 c 0
 966.667 772.333 969 766.667 969 760 c 2
 969 -139 l 2
 969 -145.667 966.667 -151.333 962 -156 c 0
 957.333 -160.667 951.667 -163 945 -163 c 2
 55 -163 l 2
 48.3333 -163 42.6667 -160.667 38 -156 c 0
 33.3333 -151.334 31 -145.667 31 -139 c 2
 31 760 l 2
 31 766.678 33.3333 772.345 38 777 c 0
 42.6667 781.667 48.3334 784 55 784 c 2
 945 784 l 1
 945 784 l 1
EndSplineSet
EndChar

StartChar: uniF073
Encoding: 61555 61555 115
Width: 1000
VWidth: 0
Flags: H
LayerCount: 2
Fore
SplineSet
925 676 m 2
 925 691.333 919.667 704.5 909 715.5 c 0
 898.333 726.5 885.333 732 870 732 c 2
 780 732 l 2
 764.667 732 751.667 726.5 741 715.5 c 0
 730.333 704.5 725 691.333 725 676 c 2
 725 600 l 2
 725 584.667 730.333 571.667 741 561 c 0
 751.667 550.333 764.667 545 780 545 c 2
 870 545 l 2
 885.333 545 898.333 550.333 909 561 c 0
 919.667 571.667 925 584.667 925 600 c 2
 925 676 l 2
277 732 m 1
 245 732 l 1
 245 545 l 1
 277 545 l 1
 277 600 l 1
 277 676 l 1
 277 732 l 1
222 732 m 1
 189 732 l 1
 189 545 l 1
 222 545 l 1
 222 732 l 1
166 732 m 1
 134 732 l 1
 134 545 l 1
 166 545 l 1
 166 732 l 1
110 727 m 1
 100.667 723 92.8333 716.333 86.5 707 c 0
 80.1667 697.661 77 687.328 77 676 c 2
 77 545 l 1
 110 545 l 1
 110 727 l 1
945 773 m 1
 951.681 773 957.348 770.833 962 766.5 c 0
 966.667 762.167 969 756.667 969 750 c 2
 969 503 l 1
 678 503 l 1
 656.667 531 630 553.167 598 569.5 c 0
 566 585.833 531 594 493 594 c 0
 455 594 420 585.833 388 569.5 c 0
 356 553.167 329.333 531 308 503 c 1
 31 503 l 1
 31 750 l 2
 31 756.667 33.3333 762.167 38 766.5 c 0
 42.6667 770.833 48.3334 773 55 773 c 2
 945 773 l 1
 945 773 l 1
493 525 m 0
 470.332 525 449.166 520.667 429.5 512 c 0
 409.833 503.333 392.5 491.5 377.5 476.5 c 0
 362.5 461.5 350.667 444.167 342 424.5 c 0
 333.333 404.833 329 383.666 329 361 c 0
 329 338.333 333.333 317 342 297 c 0
 350.667 277 362.5 259.667 377.5 245 c 0
 392.5 230.333 409.833 218.667 429.5 210 c 0
 449.167 201.333 470.333 197 493 197 c 0
 515.667 197 537 201.333 557 210 c 0
 577 218.667 594.333 230.333 609 245 c 0
 623.671 259.667 635.338 277 644 297 c 0
 652.667 317 657 338.333 657 361 c 0
 657 383.667 652.667 404.833 644 424.5 c 0
 635.333 444.167 623.667 461.5 609 476.5 c 0
 594.333 491.5 577 503.333 557 512 c 0
 537 520.667 515.667 525 493 525 c 0
493 155 m 0
 464.333 155 437.5 160.333 412.5 171 c 0
 387.5 181.667 365.667 196.334 347 215 c 0
 328.333 233.667 313.666 255.5 303 280.5 c 0
 292.333 305.5 287 332.333 287 361 c 0
 287 389.667 292.333 416.5 303 441.5 c 0
 313.667 466.5 328.333 488.333 347 507 c 0
 365.667 525.669 387.5 540.335 412.5 551 c 0
 437.5 561.667 464.333 567 493 567 c 0
 521.667 567 548.5 561.667 573.5 551 c 0
 598.5 540.333 620.333 525.667 639 507 c 0
 657.669 488.333 672.336 466.5 683 441.5 c 0
 693.667 416.5 699 389.667 699 361 c 0
 699 332.333 693.667 305.5 683 280.5 c 0
 672.333 255.5 657.667 233.667 639 215 c 0
 620.333 196.333 598.5 181.667 573.5 171 c 0
 548.5 160.333 521.667 155 493 155 c 0
727 361 m 0
 727 398.333 718.667 433 702 465 c 1
 969 465 l 1
 969 -150 l 2
 969 -156.667 966.667 -162.167 962 -166.5 c 0
 957.333 -170.833 951.667 -173 945 -173 c 2
 55 -173 l 2
 48.3333 -173 42.6667 -170.833 38 -166.5 c 0
 33.3333 -162.167 31 -156.667 31 -150 c 2
 31 465 l 1
 284 465 l 1
 276.667 449.667 270.833 433.167 266.5 415.5 c 0
 262.167 397.833 260 379.666 260 361 c 0
 260 329 266.167 298.667 278.5 270 c 0
 290.833 241.333 307.5 216.5 328.5 195.5 c 0
 349.5 174.5 374.167 157.833 402.5 145.5 c 0
 430.833 133.167 461 127 493 127 c 0
 525 127 555.333 133.167 584 145.5 c 0
 612.667 157.833 637.5 174.5 658.5 195.5 c 0
 679.5 216.5 696.167 241.333 708.5 270 c 0
 720.833 298.667 727 329 727 361 c 0
EndSplineSet
EndChar

StartChar: uniF074
Encoding: 61556 61556 116
Width: 1000
VWidth: 0
Flags: H
LayerCount: 2
Fore
SplineSet
412 526 m 0
 432 502.667 443.833 476.5 447.5 447.5 c 0
 451.167 418.5 447.333 391 436 365 c 1
 451.333 344.333 464.333 327 475 313 c 0
 485.667 299 491.667 291.667 493 291 c 1
 495 287.667 498.333 286 503 286 c 0
 507.667 286 511.667 288 515 292 c 2
 865 773 l 1
 945 773 l 2
 951.681 773 957.348 770.833 962 766.5 c 0
 966.667 762.167 969 756.667 969 750 c 2
 969 551 l 1
 512 166 l 2
 510 164 507.333 163 504 163 c 2
 501 163 l 2
 499 163 497 164 495 166 c 2
 350 283 l 1
 332.667 276.333 314.333 273 295 273 c 0
 273.667 273 252.833 277.5 232.5 286.5 c 0
 212.166 295.5 194.333 308.667 179 326 c 0
 165 342 155.167 359.667 149.5 379 c 0
 143.833 398.333 141.667 417.833 143 437.5 c 0
 144.333 457.167 149.5 476 158.5 494 c 0
 167.5 512 180 528 196 542 c 0
 210.667 554.667 226.5 564 243.5 570 c 0
 260.5 576 278 579 296 579 c 0
 317.334 579 338.167 574.5 358.5 565.5 c 0
 378.834 556.5 396.667 543.333 412 526 c 0
756 261 m 1
 765.333 269.667 770 280 770 292 c 0
 770 304 765.667 314.333 757 323 c 1
 969 502 l 1
 969 -150 l 2
 969 -156.667 966.667 -162.167 962 -166.5 c 0
 957.333 -170.833 951.667 -173 945 -173 c 2
 55 -173 l 2
 48.3333 -173 42.6667 -170.833 38 -166.5 c 0
 33.3333 -162.167 31 -156.667 31 -150 c 2
 31 750 l 2
 31 756.667 33.3333 762.167 38 766.5 c 0
 42.6667 770.833 48.3334 773 55 773 c 2
 819 773 l 1
 603 477 l 1
 539 541 l 2
 529.667 550.333 519 555 507 555 c 0
 495 555 484.333 550.333 475 541 c 2
 459 525 l 1
 456.333 529 453.5 533.167 450.5 537.5 c 0
 447.5 541.833 444.333 546 441 550 c 0
 423 571.333 401.333 587.833 376 599.5 c 0
 350.667 611.167 324 617 296 617 c 0
 272.667 617 250.5 613 229.5 605 c 0
 208.5 597 189.333 585.667 172 571 c 0
 152 553.667 136.5 533.667 125.5 511 c 0
 114.5 488.333 108 464.833 106 440.5 c 0
 104 416.167 106.667 392 114 368 c 0
 121.333 344 133.667 322 151 302 c 0
 167.667 282.667 187.333 267.167 210 255.5 c 0
 232.667 243.833 256.667 237.333 282 236 c 1
 475 43 l 2
 484.333 33.6667 495 29 507 29 c 0
 519 29 529.667 33.6667 539 43 c 2
 756 261 l 1
 756 261 l 1
EndSplineSet
EndChar

StartChar: uniF077
Encoding: 61559 61559 119
Width: 1000
VWidth: 0
Flags: H
LayerCount: 2
Fore
SplineSet
877 170 m 1
 885.667 165.333 892.5 158.667 897.5 150 c 0
 902.5 141.333 905 131.333 905 120 c 2
 905 -102 l 2
 905 -117.333 900.667 -130.167 892 -140.5 c 0
 883.333 -150.833 872.333 -156 859 -156 c 2
 141 -156 l 2
 127.667 -156 116.667 -150.833 108 -140.5 c 0
 99.3333 -130.167 95 -117.333 95 -102 c 2
 95 120 l 2
 95 131.333 97.5 141.5 102.5 150.5 c 0
 107.5 159.5 114.667 166 124 170 c 2
 405 301 l 1
 371 321 343.833 349.833 323.5 387.5 c 0
 303.167 425.167 293 467.667 293 515 c 0
 293 548.333 298.333 579.667 309 609 c 0
 319.667 638.333 334.333 663.833 353 685.5 c 0
 371.667 707.169 393.667 724.336 419 737 c 0
 444.333 749.667 471.333 756 500 756 c 0
 528.667 756 555.667 749.667 581 737 c 0
 606.333 724.333 628.333 707.167 647 685.5 c 0
 665.669 663.833 680.336 638.333 691 609 c 0
 701.667 579.666 707 548.332 707 515 c 0
 707 469 697 427.167 677 389.5 c 0
 657 351.833 630.667 322.666 598 302 c 1
 877 170 l 1
 877 170 l 1
EndSplineSet
EndChar

StartChar: uniF078
Encoding: 61560 61560 120
Width: 1000
VWidth: 0
Flags: H
LayerCount: 2
Fore
SplineSet
969 750 m 2
 969 -150 l 2
 969 -156.667 966.667 -162.167 962 -166.5 c 0
 957.333 -170.833 951.667 -173 945 -173 c 2
 55 -173 l 2
 48.3333 -173 42.6667 -170.833 38 -166.5 c 0
 33.3333 -162.167 31 -156.667 31 -150 c 2
 31 750 l 2
 31 756.667 33.3333 762.167 38 766.5 c 0
 42.6667 770.833 48.3334 773 55 773 c 2
 945 773 l 2
 951.681 773 957.348 770.833 962 766.5 c 0
 966.667 762.167 969 756.667 969 750 c 2
605 80 m 0
 596.333 80 587.333 81.1667 578 83.5 c 0
 568.667 85.8337 560.167 88.667 552.5 92 c 0
 544.833 95.3333 538.5 99 533.5 103 c 0
 528.5 107 526 110.667 526 114 c 2
 526 250 l 1
 526 356 l 1
 679 356 l 1
 679 384 l 1
 679 462 l 1
 526 462 l 1
 526 622 l 1
 438 622 l 1
 436 581.333 425 546.333 405 517 c 0
 395.667 503.667 385.667 492.667 375 484 c 0
 357 469.333 337 462 315 462 c 2
 302 462 l 1
 302 356 l 1
 375 356 l 1
 375 328 l 1
 375 94 l 2
 375 69.3333 380 49.3333 390 34 c 0
 400 18.6667 412.5 6.83333 427.5 -1.5 c 0
 442.5 -9.83333 458.667 -15.3333 476 -18 c 0
 493.334 -20.6667 509.668 -22 525 -22 c 2
 565 -22 l 2
 588.333 -22 607.5 -21.5 622.5 -20.5 c 0
 637.5 -19.5 649.667 -18 659 -16 c 0
 668.333 -14 675.833 -11.8333 681.5 -9.5 c 0
 687.167 -7.16667 692.667 -4.66667 698 -2 c 1
 698 111 l 1
 698 112 l 1
 698 111 l 1
 684.667 102.333 670 95 654 89 c 0
 638 83 621.667 80 605 80 c 0
EndSplineSet
EndChar

StartChar: uniF079
Encoding: 61561 61561 121
Width: 1000
VWidth: 0
Flags: H
LayerCount: 2
Fore
SplineSet
720 223 m 1
 720 489 l 1
 581 424 l 1
 581 423 l 1
 581 484 l 2
 581 491.337 578.333 497.67 573 503 c 0
 567.662 508.333 561.329 511 554 511 c 2
 318 511 l 2
 310.667 511 304.5 508.333 299.5 503 c 0
 294.5 497.667 292 491.333 292 484 c 2
 292 227 l 2
 292 219.666 294.5 213.333 299.5 208 c 0
 304.5 202.667 310.667 200 318 200 c 2
 554 200 l 2
 561.333 200 567.667 202.667 573 208 c 0
 578.333 213.333 581 219.667 581 227 c 2
 581 289 l 1
 720 223 l 1
504 752 m 0
 566.667 752 625.5 741.5 680.5 720.5 c 0
 735.5 699.5 783.5 671 824.5 635 c 0
 865.5 599 897.833 556.667 921.5 508 c 0
 945.167 459.333 957 407.666 957 353 c 0
 957 297.667 945.167 245.667 921.5 197 c 0
 897.833 148.333 865.5 106 824.5 70 c 0
 783.5 34 735.5 5.5 680.5 -15.5 c 0
 625.5 -36.5 566.667 -47 504 -47 c 0
 458.667 -47 414 -41 370 -29 c 1
 165 -149 l 2
 161 -151 157 -152 153 -152 c 0
 146.333 -152 141 -150 137 -146 c 0
 128.333 -137.333 126.667 -128 132 -118 c 2
 219 42 l 1
 165.667 80 124.333 126.167 95 180.5 c 0
 65.6667 234.833 51 292.333 51 353 c 0
 51 407.667 62.8333 459.333 86.5 508 c 0
 110.167 556.667 142.5 599 183.5 635 c 0
 224.5 671 272.5 699.5 327.5 720.5 c 0
 382.5 741.5 441.333 752 504 752 c 0
EndSplineSet
EndChar

StartChar: uniF07A
Encoding: 61562 61562 122
Width: 1000
VWidth: 0
Flags: H
LayerCount: 2
Fore
SplineSet
882 447 m 1
 827 447 l 1
 827 393 l 1
 827 338 l 1
 771 338 l 1
 557 338 l 1
 501 338 l 1
 501 393 l 1
 501 447 l 1
 445 447 l 1
 445 280 l 1
 445 280 l 1
 501 280 l 1
 501 280 l 1
 501 -42 l 1
 664 -42 l 1
 664 118 l 1
 720 118 l 1
 720 -42 l 1
 826 -42 l 1
 826 280 l 1
 827 280 l 1
 882 280 l 1
 882 447 l 1
557 607 m 1
 557 393 l 1
 771 393 l 1
 771 447 l 1
 771 499 l 1
 771 607 l 1
 557 607 l 1
938 499 m 1
 938 447 l 1
 938 280 l 1
 938 224 l 1
 882 224 l 1
 882 -97 l 1
 827 -97 l 1
 826 -97 l 1
 720 -97 l 1
 664 -97 l 1
 501 -97 l 1
 501 -97 l 1
 445 -97 l 1
 445 224 l 1
 282 224 l 1
 282 118 l 1
 334 118 l 1
 334 63 l 1
 390 63 l 1
 390 -97 l 1
 334 -97 l 1
 334 -97 l 1
 174 -97 l 1
 118 -97 l 1
 118 63 l 1
 174 63 l 1
 174 -42 l 1
 334 -42 l 1
 334 63 l 1
 174 63 l 1
 174 118 l 1
 226 118 l 1
 226 224 l 1
 118 224 l 1
 118 280 l 1
 389 280 l 1
 389 499 l 1
 390 499 l 1
 445 499 l 1
 501 499 l 1
 501 607 l 1
 501 663 l 1
 557 663 l 1
 771 663 l 1
 827 663 l 1
 827 607 l 1
 827 499 l 1
 882 499 l 1
 938 499 l 1
334 499 m 1
 334 551 l 1
 389 551 l 1
 389 499 l 1
 334 499 l 1
118 499 m 1
 118 280 l 1
 63 280 l 1
 63 499 l 1
 118 499 l 1
174 499 m 1
 118 499 l 1
 118 551 l 1
 174 551 l 1
 174 499 l 1
334 551 m 1
 174 551 l 1
 174 607 l 1
 334 607 l 1
 334 551 l 1
EndSplineSet
EndChar

StartChar: uniF07B
Encoding: 61563 61563 123
Width: 1000
VWidth: 0
Flags: H
LayerCount: 2
Fore
SplineSet
500 -145 m 0
 440 -145 383.333 -133.5 330 -110.5 c 0
 276.667 -87.5 230.333 -56.1667 191 -16.5 c 0
 151.667 23.1667 120.5 69.6667 97.5 123 c 0
 74.5 176.333 63 233 63 293 c 0
 63 353 74.5 409.667 97.5 463 c 0
 120.5 516.333 151.667 562.667 191 602 c 0
 230.333 641.333 276.667 672.5 330 695.5 c 0
 383.333 718.5 440 730 500 730 c 0
 560 730 616.667 718.5 670 695.5 c 0
 723.333 672.5 769.833 641.333 809.5 602 c 0
 849.167 562.666 880.5 516.333 903.5 463 c 0
 926.5 409.667 938 353 938 293 c 0
 938 233 926.5 176.333 903.5 123 c 0
 880.5 69.6667 849.167 23.1667 809.5 -16.5 c 0
 769.833 -56.1667 723.333 -87.5 670 -110.5 c 0
 616.667 -133.5 560 -145 500 -145 c 0
500 699 m 0
 444 699 391.333 688.333 342 667 c 0
 292.667 645.667 249.5 616.667 212.5 580 c 0
 175.5 543.333 146.333 500.333 125 451 c 0
 103.667 401.667 93 349 93 293 c 0
 93 237 103.667 184.333 125 135 c 0
 146.333 85.6667 175.5 42.5 212.5 5.5 c 0
 249.5 -31.5 292.667 -60.6667 342 -82 c 0
 391.333 -103.333 444 -114 500 -114 c 0
 556 -114 608.667 -103.333 658 -82 c 0
 707.333 -60.6667 750.5 -31.5 787.5 5.5 c 0
 824.5 42.5 853.667 85.6667 875 135 c 0
 896.333 184.333 907 237 907 293 c 0
 907 349 896.333 401.667 875 451 c 0
 853.667 500.333 824.5 543.333 787.5 580 c 0
 750.5 616.667 707.333 645.667 658 667 c 0
 608.667 688.333 556 699 500 699 c 0
395 -65 m 1
 507 257 l 1
 624 -58 l 1
 583.333 -72.6667 542 -80 500 -80 c 0
 482 -80 464.167 -78.6667 446.5 -76 c 0
 428.833 -73.3333 411.666 -69.6667 395 -65 c 1
309 504 m 0
 285 500.667 263 498.667 243 498 c 0
 223 497.333 205 497.333 189 498 c 1
 222.333 548.667 266.167 589.167 320.5 619.5 c 0
 374.834 649.833 434.667 665 500 665 c 0
 548.667 665 594.5 656.333 637.5 639 c 0
 680.5 621.667 718.667 597.667 752 567 c 1
 740.667 568.333 729.667 566.833 719 562.5 c 0
 708.333 558.162 698.667 548.329 690 533 c 0
 684 521.667 682 509.167 684 495.5 c 0
 686 481.832 690 468.165 696 454.5 c 0
 702 440.833 708.833 428 716.5 416 c 0
 724.167 404 730 394 734 386 c 1
 743.333 370.667 748.833 351.833 750.5 329.5 c 0
 752.144 307.167 749.31 284 742 260 c 0
 739.333 249.333 735.333 235.333 730 218 c 0
 725.333 202.667 719.5 183 712.5 159 c 0
 705.5 135 696.667 105 686 69 c 1
 551 470 l 1
 557.671 470.667 564.338 471.167 571 471.5 c 0
 577.667 471.848 584.667 472.681 592 474 c 0
 602.676 475.337 607.343 480.67 606 490 c 0
 605.333 494 603.333 497.333 600 500 c 0
 596.667 502.667 593 504 589 504 c 2
 508 498 l 1
 446.5 498 l 1
 407 501 l 1
 393 503 l 1
 389 504.332 385.333 503.666 382 501 c 0
 378.667 498.333 376.667 495 376 491 c 0
 374.667 487 375.333 483.333 378 480 c 0
 380.667 476.667 384 474.667 388 474 c 0
 388.667 474 392.5 473.5 399.5 472.5 c 0
 406.5 471.5 416.333 470.333 429 469 c 1
 488 311 l 1
 406 69 l 1
 270 470 l 1
 277.333 470.667 284.333 471.167 291 471.5 c 0
 297.667 471.848 304.667 472.681 312 474 c 0
 322.667 475.337 327.333 480.67 326 490 c 0
 325.333 494 323.333 497.333 320 500 c 0
 316.667 502.667 313 504 309 504 c 0
128 293 m 0
 128 345 138.333 394.667 159 442 c 1
 338 -42 l 1
 306.667 -27.3333 278.167 -8.5 252.5 14.5 c 0
 226.833 37.5 204.667 63.5 186 92.5 c 0
 167.333 121.5 153 153 143 187 c 0
 133 221 128 256.333 128 293 c 0
872 293 m 0
 872 258.333 867.5 225.167 858.5 193.5 c 0
 849.5 161.833 836.833 132.167 820.5 104.5 c 0
 804.167 76.8333 784.667 51.5 762 28.5 c 0
 739.333 5.5 714 -14 686 -30 c 1
 690 -19.3333 696.333 -1.33333 705 24 c 0
 713.667 49.3333 723 76.1667 733 104.5 c 0
 743 132.833 752.333 160 761 186 c 0
 769.667 212 776 230.667 780 242 c 0
 789.333 268.667 799 296.667 809 326 c 0
 819 355.333 826 388 830 424 c 0
 830.667 431.333 831 438.5 831 445.5 c 0
 831 452.5 830.333 459.667 829 467 c 1
 857.667 413.667 872 355.667 872 293 c 0
EndSplineSet
EndChar

StartChar: uniF07C
Encoding: 61564 61564 124
Width: 1000
VWidth: 0
Flags: H
LayerCount: 2
Fore
SplineSet
676 141 m 0
 687.333 138.333 696 132.667 702 124 c 0
 708 115.333 709.667 105.333 707 94 c 0
 703.667 80 699.667 67.3333 695 56 c 0
 683.667 24.6667 667.667 -4 647 -30 c 0
 626.333 -56 602.333 -78.1667 575 -96.5 c 0
 547.667 -114.833 518 -129 486 -139 c 0
 454 -149 420.667 -154 386 -154 c 0
 340.667 -154 298.167 -145.667 258.5 -129 c 0
 218.833 -112.333 184.167 -89.6667 154.5 -61 c 0
 124.833 -32.3333 101.333 1.16667 84 39.5 c 0
 66.6667 77.8333 58 119 58 163 c 0
 58 195.667 63 227.333 73 258 c 0
 83 288.667 97.3333 317 116 343 c 0
 134.667 369 157 392 183 412 c 0
 209 432 237.667 448 269 460 c 1
 279.667 463.333 290.167 462.833 300.5 458.5 c 0
 310.833 454.167 318 447 322 437 c 0
 326 427 325.667 417 321 407 c 0
 316.332 397 308.665 390.333 298 387 c 1
 274 377.667 252.333 365.5 233 350.5 c 0
 213.667 335.5 197 318.167 183 298.5 c 0
 169 278.833 158.167 257.5 150.5 234.5 c 0
 142.833 211.5 139 187.667 139 163 c 0
 139 129.667 145.5 98.5 158.5 69.5 c 0
 171.5 40.5 189.167 15.3333 211.5 -6 c 0
 233.833 -27.3333 260 -44.3333 290 -57 c 0
 320 -69.6667 352 -76 386 -76 c 0
 412 -76 437.167 -72.1667 461.5 -64.5 c 0
 485.834 -56.8333 508.167 -46 528.5 -32 c 0
 548.833 -18 566.833 -1.33333 582.5 18 c 0
 598.171 37.3334 610.338 58.6667 619 82 c 0
 623 91.3333 626 101 628 111 c 0
 630.667 121.667 636.5 130 645.5 136 c 0
 654.5 142 664.667 143.667 676 141 c 0
928 -12 m 1
 931.333 -18.6667 933 -25.6667 933 -33 c 0
 933 -46.3333 928.167 -57.6666 918.5 -67 c 0
 908.833 -76.3333 897.333 -81 884 -81 c 0
 873.333 -81 864 -78.3333 856 -73 c 0
 848 -67.6667 842 -60.6667 838 -52 c 1
 706 178 l 1
 479 178 l 1
 476.33 177.333 472.663 177 468 177 c 0
 452 177 438 181.833 426 191.5 c 0
 414 201.167 406.667 213.667 404 229 c 2
 349 494 l 1
 350 494 l 1
 349.333 496 349 498.667 349 502 c 0
 349 522 356.333 539.167 371 553.5 c 0
 385.667 567.833 403.667 575 425 575 c 0
 442.333 575 457.5 570 470.5 560 c 0
 483.5 550 492.333 537.333 497 522 c 2
 498 519 l 2
 498 517.651 498.167 516.818 498.5 516.5 c 0
 498.833 516.163 499 515.329 499 514 c 2
 508 468 l 1
 664 468 l 2
 670.667 468 676.667 466.333 682 463 c 0
 692 457.667 698.5 449.667 701.5 439 c 0
 704.5 428.333 703.333 418.333 698 409 c 0
 694 401.667 688.333 396.333 681 393 c 0
 673.667 389.667 666 388.333 658 389 c 1
 525 389 l 1
 545 291 l 1
 715 291 l 2
 728.333 291 740.333 287.667 751 281 c 0
 761.667 274.333 769.667 265.333 775 254 c 1
 928 -12 l 1
 928 -12 l 1
399 596 m 0
 385.667 596 373.333 598.5 362 603.5 c 0
 350.667 608.5 340.833 615.167 332.5 623.5 c 0
 324.167 631.833 317.5 641.667 312.5 653 c 0
 307.5 664.333 305 676.667 305 690 c 0
 305 702.667 307.5 714.667 312.5 726 c 0
 317.5 737.333 324.167 747.167 332.5 755.5 c 0
 340.835 763.833 350.668 770.5 362 775.5 c 0
 373.335 780.5 385.668 783 399 783 c 0
 411.667 783 423.667 780.5 435 775.5 c 0
 446.333 770.5 456.333 763.833 465 755.5 c 0
 473.667 747.161 480.333 737.328 485 726 c 0
 489.667 714.667 492 702.667 492 690 c 0
 492 664 483 641.833 465 623.5 c 0
 447 605.167 425 596 399 596 c 0
EndSplineSet
EndChar

StartChar: uniF07E
Encoding: 61566 61566 126
Width: 1000
VWidth: 0
Flags: H
LayerCount: 2
Fore
SplineSet
845 138 m 1
 835.667 153.333 824 163.167 810 167.5 c 0
 796 171.833 784.333 174 775 174 c 0
 755.661 174 740.328 167.667 729 155 c 0
 717.667 142.333 712 126 712 106 c 0
 712 86 717.667 69.8333 729 57.5 c 0
 740.333 45.1667 755.667 39 775 39 c 0
 807 39 830.333 50.3333 845 73 c 1
 845 138 l 1
 845 138 l 1
790 440 m 0
 846.667 440 890.667 425.667 922 397 c 0
 953.333 368.333 969 327.667 969 275 c 2
 969 -29 l 2
 969 -33 967.5 -36.5 964.5 -39.5 c 0
 961.5 -42.5 958 -44 954 -44 c 2
 860 -44 l 2
 856 -44 852.5 -42.5 849.5 -39.5 c 0
 846.5 -36.5 845 -33 845 -29 c 2
 845 -20 l 1
 831 -31.3333 815 -40 797 -46 c 0
 779 -52 760.333 -55 741 -55 c 0
 721.667 -55 703 -51.5 685 -44.5 c 0
 667 -37.5 650.667 -27.1667 636 -13.5 c 0
 621.333 0.166666 609.667 17 601 37 c 0
 592.333 57 588 80.3333 588 107 c 0
 588 134.333 592.5 158.167 601.5 178.5 c 0
 610.5 198.833 622.167 215.5 636.5 228.5 c 0
 650.833 241.5 667.167 251.167 685.5 257.5 c 0
 703.833 263.833 722.333 267 741 267 c 0
 782.333 267 817 256 845 234 c 1
 845 263 l 2
 845 309 821 332 773 332 c 0
 735.667 332 701.667 316.333 671 285 c 0
 667 281 662.667 279.667 658 281 c 0
 652.667 282.333 649 285 647 289 c 2
 610 353 l 2
 606.667 359.667 607.667 365.667 613 371 c 0
 635.667 393.667 662 410.833 692 422.5 c 0
 722 434.167 754.667 440 790 440 c 0
307 447 m 1
 241 211 l 1
 374 211 l 1
 307 447 l 1
582 -18 m 1
 583.333 -22 584 -24.6667 584 -26 c 0
 584 -30.6667 582.5 -34.3333 579.5 -37 c 0
 576.5 -39.6667 573 -41 569 -41 c 2
 568 -41 l 1
 451 -41 l 2
 443.667 -41 439 -37.3333 437 -30 c 2
 404 86 l 1
 211 86 l 1
 178 -30 l 2
 176 -37.3333 171 -41 163 -41 c 2
 47 -41 l 2
 41 -41 36.6667 -39 34 -35 c 1
 31.3333 -32.3333 30.6666 -28 32 -22 c 2
 228 622 l 2
 230.667 629.333 235.667 633 243 633 c 2
 372 633 l 2
 379.333 633 384.333 629.333 387 622 c 2
 582 -18 l 1
 582 -18 l 1
EndSplineSet
EndChar

StartChar: uniF084
Encoding: 61572 61572 132
Width: 1000
VWidth: 0
Flags: H
LayerCount: 2
Fore
SplineSet
562 -64 m 0
 562 -76.6667 559.667 -88.6667 555 -100 c 0
 550.333 -111.333 543.667 -121.167 535 -129.5 c 0
 526.333 -137.833 516.333 -144.5 505 -149.5 c 0
 493.667 -154.5 481.667 -157 469 -157 c 0
 456.333 -157 444.333 -154.5 433 -149.5 c 0
 421.667 -144.5 411.833 -137.833 403.5 -129.5 c 0
 395.167 -121.167 388.667 -111.333 384 -100 c 0
 379.333 -88.6667 377 -76.6667 377 -64 c 0
 377 -51.3333 379.333 -39.3333 384 -28 c 0
 388.667 -16.6667 395.167 -6.83333 403.5 1.5 c 0
 411.834 9.83333 421.667 16.5 433 21.5 c 0
 444.333 26.5 456.333 29 469 29 c 0
 481.667 29 493.667 26.5 505 21.5 c 0
 516.333 16.5 526.333 9.83333 535 1.5 c 0
 543.671 -6.83333 550.338 -16.6667 555 -28 c 0
 559.667 -39.3333 562 -51.3333 562 -64 c 0
476 70 m 2
 468 70 l 1
 446.667 72.6667 429.167 82.3333 415.5 99 c 0
 401.833 115.667 396 134.667 398 156 c 0
 402 192.667 411.167 228.167 425.5 262.5 c 0
 439.833 296.833 458.333 327.333 481 354 c 0
 488.333 363.333 496.333 371.833 505 379.5 c 0
 513.671 387.167 522.337 394.667 531 402 c 0
 553 420.667 569.833 437.333 581.5 452 c 0
 593.167 466.667 599 484.667 599 506 c 0
 599 524.667 595.167 540 587.5 552 c 0
 579.833 564 570.5 573.5 559.5 580.5 c 0
 548.5 587.5 537 592.5 525 595.5 c 0
 513 598.5 502.333 600 493 600 c 2
 491 600 l 2
 472.333 600 457 597.5 445 592.5 c 0
 433 587.5 422.833 580.5 414.5 571.5 c 0
 406.167 562.5 399.167 551.667 393.5 539 c 0
 387.833 526.333 382 512.667 376 498 c 0
 368 477.333 358.333 462.833 347 454.5 c 0
 335.667 446.167 324.333 441.333 313 440 c 1
 300.333 437.333 287.333 438.333 274 443 c 0
 260.667 448.333 250 456 242 466 c 0
 234.667 474.667 229 485.833 225 499.5 c 0
 221 513.167 222.333 530 229 550 c 0
 233 562.669 240 580.836 250 604.5 c 0
 260 628.167 275.167 651.333 295.5 674 c 0
 315.833 696.669 342 716.336 374 733 c 0
 406 749.667 446 757.667 494 757 c 0
 526 756.333 557.5 750.5 588.5 739.5 c 0
 619.5 728.5 647.333 712.333 672 691 c 0
 696.667 669.667 716.667 643.5 732 612.5 c 0
 747.333 581.5 755 546 755 506 c 0
 755 476.667 751 450.667 743 428 c 0
 735 405.333 724.833 385 712.5 367 c 0
 700.164 349 686.831 333.333 672.5 320 c 0
 658.167 306.667 645 294.667 633 284 c 0
 626.333 278 620 272.5 614 267.5 c 0
 608 262.5 603.333 257.667 600 253 c 0
 588 238.333 577.833 221.167 569.5 201.5 c 0
 561.167 181.833 556 161.333 554 140 c 0
 552 119.333 543.5 102.5 528.5 89.5 c 0
 513.5 76.5 496 70 476 70 c 2
EndSplineSet
EndChar

StartChar: uniF088
Encoding: 61576 61576 136
Width: 1000
VWidth: 0
Flags: H
LayerCount: 2
Fore
SplineSet
850 184 m 0
 852.667 188.667 853 194.333 851 201 c 1
 849 205 845 209 839 213 c 1
 791 233 l 1
 785.667 236.333 780 236.333 774 233 c 0
 768 230.333 764 226.333 762 221 c 0
 760 215.666 755.667 208.333 749 199 c 0
 742.333 189.667 732.333 185 719 185 c 0
 701 185 686.333 194.667 675 214 c 0
 663.667 233.333 658 258.667 658 290 c 0
 658 322 663.667 347.667 675 367 c 0
 686.333 386.333 701 396 719 396 c 0
 730.333 396 739.667 392.333 747 385 c 0
 754.333 377.667 759.667 370.333 763 363 c 0
 765.667 357.667 769.667 353.833 775 351.5 c 0
 780.333 349.167 785.667 349.333 791 352 c 2
 839 373 l 2
 843.68 375 847.346 379 850 385 c 0
 852 391 852 396.667 850 402 c 0
 822 460.667 778.333 490 719 490 c 0
 694.333 490 672 485.167 652 475.5 c 0
 632 465.833 614.833 452.333 600.5 435 c 0
 586.167 417.667 575 396.667 567 372 c 0
 559 347.333 555 320 555 290 c 0
 555 260 559 232.833 567 208.5 c 0
 575 184.167 586.167 163.333 600.5 146 c 0
 614.833 128.667 632 115.167 652 105.5 c 0
 672 95.8333 694.333 91 719 91 c 0
 778.333 91 822 122 850 184 c 0
443 184 m 0
 445 189.333 445 195 443 201 c 0
 441 205.667 437.333 209.667 432 213 c 1
 384 233 l 1
 378 236.333 372.333 236.333 367 233 c 1
 361 231 357 227 355 221 c 0
 353 215.666 348.667 208.333 342 199 c 0
 335.333 189.667 325.333 185 312 185 c 0
 294 185 279.167 194.667 267.5 214 c 0
 255.833 233.333 250 258.667 250 290 c 0
 250 322 255.833 347.667 267.5 367 c 0
 279.167 386.333 294 396 312 396 c 0
 323.333 396 332.5 392.333 339.5 385 c 0
 346.5 377.667 351.667 370.333 355 363 c 0
 357.667 357.667 361.833 353.833 367.5 351.5 c 0
 373.167 349.167 378.667 349.333 384 352 c 2
 431 373 l 2
 436.333 375 440.333 379 443 385 c 1
 445 391.667 444.667 397.333 442 402 c 0
 414 460.667 370.667 490 312 490 c 0
 287.333 490 265 485.167 245 475.5 c 0
 225 465.833 207.833 452.333 193.5 435 c 0
 179.167 417.667 168 396.667 160 372 c 0
 152 347.333 148 320 148 290 c 0
 148 260 152 232.833 160 208.5 c 0
 168 184.167 179.167 163.333 193.5 146 c 0
 207.833 128.667 225 115.167 245 105.5 c 0
 265 95.8333 287.333 91 312 91 c 0
 371.333 91 415 122 443 184 c 0
914 567 m 1
 921.333 565.667 927 562.5 931 557.5 c 0
 935 552.5 937 546.333 937 539 c 2
 937 298 l 1
 937 283 l 1
 937 42 l 2
 937 34.6667 935 28.5 931 23.5 c 0
 927 18.5 921.333 15.3333 914 14 c 2
 506 -68 l 2
 502 -69.3333 498 -69.3333 494 -68 c 2
 86 14 l 2
 78.6667 15.3333 73 18.5 69 23.5 c 0
 65 28.5 63 34.6667 63 42 c 2
 63 283 l 1
 63 298 l 1
 63 539 l 2
 63 546.333 65 552.5 69 557.5 c 0
 73 562.5 78.6667 565.667 86 567 c 2
 494 649 l 2
 498 649.667 502 649.667 506 649 c 2
 914 567 l 1
 914 567 l 1
EndSplineSet
EndChar

StartChar: uniF089
Encoding: 61577 61577 137
Width: 1000
VWidth: 0
Flags: H
LayerCount: 2
Fore
SplineSet
968 -139 m 1
 970 -141 970.667 -143.5 970 -146.5 c 0
 969.333 -149.5 967.667 -151.667 965 -153 c 1
 960.333 -157 955.333 -156.333 950 -151 c 1
 583 332 l 1
 484 351 l 1
 474.667 353.667 467.667 358 463 364 c 2
 421 417 l 1
 421 372 l 1
 421 265 l 1
 529 142 l 1
 531.667 140 533.5 137.5 534.5 134.5 c 0
 535.5 131.5 536.333 128.333 537 125 c 2
 588 -108 l 2
 590.649 -120 588.315 -131.167 581 -141.5 c 0
 573.667 -151.833 563.667 -158.333 551 -161 c 0
 548.333 -161.667 545 -162 541 -162 c 0
 529.667 -162 519.667 -158.667 511 -152 c 0
 502.331 -145.334 496.665 -136.667 494 -126 c 2
 446 98 l 1
 358 197 l 1
 319 59 l 2
 317.667 55.6667 316.5 52.6667 315.5 50 c 0
 314.5 47.3333 313 44.6667 311 42 c 2
 181 -125 l 2
 171 -137 158.333 -143 143 -143 c 0
 132.333 -143 122.667 -140 114 -134 c 0
 103.333 -126.667 97.1666 -116.833 95.5 -104.5 c 0
 93.8337 -92.1667 96.667 -81 104 -71 c 2
 229 88 l 1
 277 261 l 2
 277 261.667 277.167 262.167 277.5 262.5 c 0
 277.833 262.833 278 263.333 278 264 c 2
 277 409 l 1
 251 374 l 1
 241 271 l 2
 239.667 262.333 235.667 255 229 249 c 0
 222.333 243 214.333 240 205 240 c 0
 203.667 240 202.667 240.333 202 241 c 0
 192 241.667 183.667 245.667 177 253 c 0
 170.333 260.334 167.667 268.668 169 278 c 2
 181 389 l 2
 181 395 183 400.667 187 406 c 2
 287 541 l 1
 294.333 553 305 562.167 319 568.5 c 0
 333 574.833 347.667 576.667 363 574 c 0
 373 572 381.667 568.333 389 563 c 1
 395.667 559.658 400.333 556.325 403 553 c 2
 512 416 l 1
 618 395 l 2
 628 393 635.667 388.167 641 380.5 c 0
 646.333 372.833 648.333 364.333 647 355 c 1
 644.333 343.667 637.333 335.667 626 331 c 1
 968 -139 l 1
 968 -139 l 1
346 592 m 0
 333.333 594.667 322 599.5 312 606.5 c 0
 302 613.5 293.5 621.833 286.5 631.5 c 0
 279.5 641.167 274.667 652 272 664 c 0
 269.333 676 269.333 688.333 272 701 c 0
 274.667 713.667 279.5 725 286.5 735 c 0
 293.5 745 302 753.167 312 759.5 c 0
 322 765.833 333 770.333 345 773 c 0
 357 775.667 369.333 776 382 774 c 0
 394.667 771.333 406.167 766.5 416.5 759.5 c 0
 426.833 752.5 435.333 744.167 442 734.5 c 0
 448.667 724.833 453.333 714 456 702 c 0
 458.667 690 458.667 677.667 456 665 c 0
 453.333 652.333 448.5 641 441.5 631 c 0
 434.5 621 426 612.667 416 606 c 0
 406 599.333 395 594.667 383 592 c 0
 371 589.333 358.667 589.333 346 592 c 0
EndSplineSet
EndChar

StartChar: uniF08A
Encoding: 61578 61578 138
Width: 1000
VWidth: 0
Flags: H
LayerCount: 2
Fore
SplineSet
771 625 m 0
 771 610.333 768.167 596.5 762.5 583.5 c 0
 756.833 570.5 749.333 559 740 549 c 0
 730.667 539 719.5 531.167 706.5 525.5 c 0
 693.5 519.833 679.667 517 665 517 c 0
 650.333 517 636.5 519.833 623.5 525.5 c 0
 610.5 531.167 599.167 539 589.5 549 c 0
 579.833 559 572.167 570.5 566.5 583.5 c 0
 560.833 596.5 558 610.333 558 625 c 0
 558 639.667 560.833 653.667 566.5 667 c 0
 572.167 680.333 579.834 692 589.5 702 c 0
 599.167 712 610.5 719.833 623.5 725.5 c 0
 636.5 731.167 650.333 734 665 734 c 0
 679.667 734 693.5 731.167 706.5 725.5 c 0
 719.5 719.833 730.667 712 740 702 c 0
 749.333 692 756.833 680.333 762.5 667 c 0
 768.167 653.667 771 639.667 771 625 c 0
771 296 m 0
 771 280.667 768.167 266.5 762.5 253.5 c 0
 756.833 240.5 749.333 229.167 740 219.5 c 0
 730.667 209.833 719.5 202.167 706.5 196.5 c 0
 693.5 190.833 679.667 188 665 188 c 0
 650.333 188 636.5 190.833 623.5 196.5 c 0
 610.5 202.167 599.167 209.834 589.5 219.5 c 0
 579.833 229.167 572.167 240.5 566.5 253.5 c 0
 560.833 266.5 558 280.667 558 296 c 0
 558 310.667 560.833 324.667 566.5 338 c 0
 572.167 351.333 579.834 362.833 589.5 372.5 c 0
 599.167 382.167 610.5 389.833 623.5 395.5 c 0
 636.5 401.167 650.333 404 665 404 c 0
 679.667 404 693.5 401.167 706.5 395.5 c 0
 719.5 389.83 730.667 382.164 740 372.5 c 0
 749.333 362.833 756.833 351.333 762.5 338 c 0
 768.167 324.667 771 310.667 771 296 c 0
768 -33 m 0
 768 -47.6667 765.333 -61.3333 760 -74 c 0
 754.661 -86.6667 747.328 -97.6667 738 -107 c 0
 728.667 -116.333 717.667 -123.667 705 -129 c 0
 692.333 -134.333 679 -137 665 -137 c 0
 651 -137 637.667 -134.333 625 -129 c 0
 612.333 -123.667 601.333 -116.333 592 -107 c 0
 582.662 -97.6667 575.329 -86.6667 570 -74 c 0
 564.667 -61.3333 562 -47.6667 562 -33 c 0
 562 -19 564.667 -5.66667 570 7 c 0
 575.333 19.6667 582.667 30.8333 592 40.5 c 0
 601.333 50.1667 612.333 57.6667 625 63 c 0
 637.667 68.3333 651 71 665 71 c 0
 679 71 692.333 68.3333 705 63 c 0
 717.667 57.6667 728.667 50.1667 738 40.5 c 0
 747.333 30.8333 754.667 19.6667 760 7 c 0
 765.333 -5.66667 768 -19 768 -33 c 0
422 625 m 0
 422 610.333 419.167 596.5 413.5 583.5 c 0
 407.833 570.5 400.333 559 391 549 c 0
 381.667 539 370.5 531.167 357.5 525.5 c 0
 344.5 519.833 330.667 517 316 517 c 0
 301.333 517 287.5 519.833 274.5 525.5 c 0
 261.5 531.167 250.167 539 240.5 549 c 0
 230.833 559 223.167 570.5 217.5 583.5 c 0
 211.833 596.5 209 610.333 209 625 c 0
 209 639.667 211.833 653.667 217.5 667 c 0
 223.167 680.333 230.834 692 240.5 702 c 0
 250.167 712 261.5 719.833 274.5 725.5 c 0
 287.5 731.167 301.333 734 316 734 c 0
 330.667 734 344.5 731.167 357.5 725.5 c 0
 370.5 719.833 381.667 712 391 702 c 0
 400.333 692 407.833 680.333 413.5 667 c 0
 419.167 653.667 422 639.667 422 625 c 0
422 296 m 0
 422 280.667 419.167 266.5 413.5 253.5 c 0
 407.833 240.5 400.333 229.167 391 219.5 c 0
 381.667 209.833 370.5 202.167 357.5 196.5 c 0
 344.5 190.833 330.667 188 316 188 c 0
 301.333 188 287.5 190.833 274.5 196.5 c 0
 261.5 202.167 250.167 209.834 240.5 219.5 c 0
 230.833 229.167 223.167 240.5 217.5 253.5 c 0
 211.833 266.5 209 280.667 209 296 c 0
 209 310.667 211.833 324.667 217.5 338 c 0
 223.167 351.333 230.834 362.833 240.5 372.5 c 0
 250.167 382.167 261.5 389.833 274.5 395.5 c 0
 287.5 401.167 301.333 404 316 404 c 0
 330.667 404 344.5 401.167 357.5 395.5 c 0
 370.5 389.83 381.667 382.164 391 372.5 c 0
 400.333 362.833 407.833 351.333 413.5 338 c 0
 419.167 324.667 422 310.667 422 296 c 0
422 -33 m 0
 422 -48.3333 419.167 -62.5 413.5 -75.5 c 0
 407.833 -88.5 400.333 -99.8333 391 -109.5 c 0
 381.667 -119.167 370.5 -126.833 357.5 -132.5 c 0
 344.5 -138.167 330.667 -141 316 -141 c 0
 301.333 -141 287.5 -138.167 274.5 -132.5 c 0
 261.5 -126.833 250.167 -119.167 240.5 -109.5 c 0
 230.833 -99.8333 223.167 -88.5 217.5 -75.5 c 0
 211.833 -62.5 209 -48.3333 209 -33 c 0
 209 -18.3333 211.833 -4.33333 217.5 9 c 0
 223.167 22.3333 230.834 33.8333 240.5 43.5 c 0
 250.167 53.1667 261.5 60.8334 274.5 66.5 c 0
 287.5 72.1667 301.333 75 316 75 c 0
 330.667 75 344.5 72.1667 357.5 66.5 c 0
 370.5 60.8333 381.667 53.1667 391 43.5 c 0
 400.333 33.8333 407.833 22.3333 413.5 9 c 0
 419.167 -4.33333 422 -18.3333 422 -33 c 0
EndSplineSet
EndChar

StartChar: uniF08B
Encoding: 61579 61579 139
Width: 1000
VWidth: 0
Flags: H
LayerCount: 2
Fore
SplineSet
685 452 m 2
 685 461.333 681.5 469.5 674.5 476.5 c 0
 667.5 483.5 659 487 649 487 c 2
 346 487 l 2
 336 487 327.5 483.5 320.5 476.5 c 0
 313.5 469.5 310 461.333 310 452 c 2
 310 148 l 2
 310 138 313.5 129.5 320.5 122.5 c 0
 327.5 115.5 336 112 346 112 c 2
 649 112 l 2
 659 112 667.5 115.5 674.5 122.5 c 0
 681.5 129.5 685 138 685 148 c 2
 685 452 l 2
497 737 m 0
 557.667 737 614.5 725.5 667.5 702.5 c 0
 720.5 679.5 766.833 648.333 806.5 609 c 0
 846.167 569.667 877.5 523.5 900.5 470.5 c 0
 923.5 417.5 935 360.667 935 300 c 0
 935 239.333 923.5 182.5 900.5 129.5 c 0
 877.5 76.5 846.167 30.1667 806.5 -9.5 c 0
 766.833 -49.1667 720.5 -80.5 667.5 -103.5 c 0
 614.5 -126.5 557.667 -138 497 -138 c 0
 437 -138 380.333 -126.5 327 -103.5 c 0
 273.667 -80.5 227.333 -49.1667 188 -9.5 c 0
 148.667 30.1667 117.5 76.5 94.5 129.5 c 0
 71.5 182.5 60 239.333 60 300 c 0
 60 360.667 71.5 417.5 94.5 470.5 c 0
 117.5 523.5 148.667 569.667 188 609 c 0
 227.333 648.333 273.667 679.5 327 702.5 c 0
 380.333 725.5 437 737 497 737 c 0
598 418 m 1
 603.333 418 607.667 416.333 611 413 c 0
 614.333 409.667 616 405.333 616 400 c 2
 616 200 l 2
 616 194.666 614.333 190.333 611 187 c 0
 607.657 183.667 603.324 182 598 182 c 2
 397 182 l 2
 391.667 182 387.333 183.667 384 187 c 0
 380.667 190.333 379 194.667 379 200 c 2
 379 400 l 2
 379 405.336 380.667 409.67 384 413 c 0
 387.336 416.333 391.67 418 397 418 c 2
 598 418 l 1
 598 418 l 1
EndSplineSet
EndChar

StartChar: uniF08D
Encoding: 61581 61581 141
Width: 1000
VWidth: 0
Flags: H
LayerCount: 2
Fore
SplineSet
701 210 m 0
 717 210 730.833 212.5 742.5 217.5 c 0
 754.172 222.5 763.839 229 771.5 237 c 0
 779.179 245 784.845 254.167 788.5 264.5 c 0
 792.167 274.833 794 285.333 794 296 c 0
 794 310 791.667 322 787 332 c 0
 782.333 342 776.167 350.5 768.5 357.5 c 0
 760.833 364.5 752.667 370.167 744 374.5 c 2
 719 387 l 2
 708.333 391.667 700.167 395.667 694.5 399 c 0
 688.833 402.333 686 406 686 410 c 0
 686 416.667 688.5 420.833 693.5 422.5 c 0
 698.5 424.167 702 425 704 425 c 0
 720.667 425 734 419.333 744 408 c 1
 748.667 404.667 753 403.333 757 404 c 1
 761.678 404 765.345 406.333 768 411 c 2
 787 441 l 2
 791.667 447.667 791 454 785 460 c 0
 764.333 480.667 737.667 491 705 491 c 0
 678.333 491 656.5 483.167 639.5 467.5 c 0
 622.5 451.833 614 432 614 408 c 0
 614 394 616.333 382.333 621 373 c 0
 625.667 363.667 631.667 355.667 639 349 c 0
 646.333 342.333 654.333 336.833 663 332.5 c 0
 671.667 328.167 680 324.333 688 321 c 0
 700 315.667 708.833 311 714.5 307 c 0
 720.167 303 723 298.333 723 293 c 0
 723 281.667 715.333 276 700 276 c 0
 682 276 666.667 283 654 297 c 0
 651.333 300.333 647.333 302 642 302 c 0
 636 302 632 299.667 630 295 c 1
 610 264 l 2
 606 257.332 606.333 250.999 611 245 c 1
 634.333 221.667 664.333 210 701 210 c 0
500 210 m 0
 516 210 530 212.5 542 217.5 c 0
 554 222.5 563.833 229 571.5 237 c 0
 579.176 245 584.842 254.167 588.5 264.5 c 0
 592.167 274.833 594 285.333 594 296 c 0
 594 310 591.5 322 586.5 332 c 0
 581.5 342 575.333 350.5 568 357.5 c 0
 560.667 364.5 552.5 370.167 543.5 374.5 c 0
 534.5 378.833 526 383 518 387 c 0
 508 391.667 500 395.667 494 399 c 0
 488 402.333 485 406 485 410 c 0
 485 416.667 487.5 420.833 492.5 422.5 c 0
 497.5 424.167 501.333 425 504 425 c 0
 520.667 425 534 419.333 544 408 c 0
 547.333 404 551.667 402.667 557 404 c 1
 561 404 564.667 406.333 568 411 c 2
 587 441 l 2
 591.667 447.667 591 454 585 460 c 0
 564.333 480.667 537.667 491 505 491 c 0
 478.333 491 456.5 483.167 439.5 467.5 c 0
 422.5 451.833 414 432 414 408 c 0
 414 394 416.333 382.333 421 373 c 0
 425.667 363.667 431.667 355.667 439 349 c 0
 446.335 342.333 454.168 336.833 462.5 332.5 c 0
 470.833 328.167 479 324.333 487 321 c 0
 499.667 315.667 508.833 311 514.5 307 c 0
 520.167 303 523 298.333 523 293 c 0
 523 281.667 515.333 276 500 276 c 0
 481.333 276 466 283 454 297 c 0
 451.333 300.333 447 302 441 302 c 0
 435.667 302 432 299.667 430 295 c 1
 409 264 l 1
 405 256.667 405.667 250.333 411 245 c 0
 433 221.667 462.667 210 500 210 c 0
387 275 m 0
 389 279 389 283 387 287 c 0
 385.667 291 383 293.667 379 295 c 2
 346 310 l 2
 342 312 338 312 334 310 c 0
 329.333 308 326.666 305 326 301 c 1
 324.667 297.667 321.667 292.667 317 286 c 0
 312.333 279.333 305.333 276 296 276 c 0
 283.333 276 273 282.833 265 296.5 c 0
 257 310.167 253 328 253 350 c 0
 253 372 257 390 265 404 c 0
 273 418 283.333 425 296 425 c 0
 304 425 310.333 422.333 315 417 c 0
 319.667 411.667 323.333 406.333 326 401 c 0
 328 397 331 394.333 335 393 c 0
 339 391.667 342.667 391.667 346 393 c 2
 379 408 l 2
 383.667 410 386.333 413 387 417 c 0
 388.333 421.667 388 425.667 386 429 c 0
 366.667 470.333 336.667 491 296 491 c 0
 262 491 234.5 478 213.5 452 c 0
 192.5 426 182 392 182 350 c 0
 182 308 192.5 274.167 213.5 248.5 c 0
 234.5 222.833 262 210 296 210 c 0
 336.667 210 367 231.667 387 275 c 0
903 718 m 1
 911.674 718 918.84 715.167 924.5 709.5 c 0
 930.167 703.833 933 696.667 933 688 c 2
 933 60 l 2
 933 54 931.167 48.3333 927.5 43 c 0
 923.833 37.6667 919.333 34 914 32 c 2
 508 -123 l 2
 505.329 -124.333 501.663 -125 497 -125 c 0
 492.33 -125 488.663 -124.333 486 -123 c 2
 78 32 l 2
 72 34 67.1667 37.6667 63.5 43 c 0
 59.8333 48.3333 58 54 58 60 c 2
 58 688 l 2
 58 696.672 61 703.839 67 709.5 c 0
 73 715.167 80 718 88 718 c 2
 903 718 l 1
 903 718 l 1
EndSplineSet
EndChar

StartChar: uniF08E
Encoding: 61582 61582 142
Width: 1000
VWidth: 0
Flags: H
LayerCount: 2
Fore
SplineSet
296 171 m 0
 314.667 171 332.167 174.5 348.5 181.5 c 0
 364.833 188.5 379 198.167 391 210.5 c 0
 403 222.833 412.5 237.167 419.5 253.5 c 0
 426.5 269.833 430 287.333 430 306 c 0
 430 324.667 426.5 342.167 419.5 358.5 c 0
 412.5 374.833 403 389 391 401 c 0
 379 413 364.833 422.5 348.5 429.5 c 0
 332.167 436.5 314.667 440 296 440 c 0
 277.333 440 259.833 436.5 243.5 429.5 c 0
 227.166 422.5 212.833 413 200.5 401 c 0
 188.167 389 178.5 374.833 171.5 358.5 c 0
 164.5 342.167 161 324.667 161 306 c 0
 161 287.333 164.5 269.833 171.5 253.5 c 0
 178.5 237.166 188.167 222.833 200.5 210.5 c 0
 212.833 198.167 227.167 188.5 243.5 181.5 c 0
 259.833 174.5 277.333 171 296 171 c 0
907 369 m 1
 921 369 933 363.833 943 353.5 c 0
 953 343.167 958 330.667 958 316 c 0
 958 301.333 953 288.833 943 278.5 c 0
 933 268.167 921 263 907 263 c 2
 900 263 l 1
 900 98 l 2
 900 84 894.833 72 884.5 62 c 0
 874.167 52 861.667 47 847 47 c 0
 832.333 47 819.833 52 809.5 62 c 0
 799.167 72 794 84 794 98 c 2
 794 263 l 1
 744 263 l 1
 744 160 l 2
 744 146 738.833 134 728.5 124 c 0
 718.167 114 705.667 109 691 109 c 0
 676.333 109 663.833 114 653.5 124 c 0
 643.167 134 638 146 638 160 c 2
 638 263 l 1
 542 263 l 1
 536.667 233.667 526.667 206.333 512 181 c 0
 497.332 155.667 479.166 133.833 457.5 115.5 c 0
 435.833 97.1667 411.166 82.6667 383.5 72 c 0
 355.833 61.3333 326.666 56 296 56 c 0
 261.333 56 228.833 62.5 198.5 75.5 c 0
 168.167 88.5 141.667 106.333 119 129 c 0
 96.3333 151.667 78.5 178.167 65.5 208.5 c 0
 52.5 238.833 46 271.333 46 306 c 0
 46 340.667 52.5 373.167 65.5 403.5 c 0
 78.5 433.833 96.3333 460.333 119 483 c 0
 141.667 505.667 168.167 523.5 198.5 536.5 c 0
 228.833 549.5 261.333 556 296 556 c 0
 324.667 556 352.167 551.333 378.5 542 c 0
 404.833 532.667 428.5 519.667 449.5 503 c 0
 470.5 486.333 488.667 466.5 504 443.5 c 0
 519.333 420.5 530.667 395.667 538 369 c 1
 907 369 l 1
 907 369 l 1
EndSplineSet
EndChar

StartChar: uniF090
Encoding: 61584 61584 144
Width: 1000
VWidth: 0
Flags: H
LayerCount: 2
Fore
SplineSet
379 35 m 0
 401.667 35 422.833 39.3333 442.5 48 c 0
 462.167 56.6667 479.333 68.3333 494 83 c 0
 508.667 97.6667 520.167 114.833 528.5 134.5 c 0
 536.833 154.167 541 175.333 541 198 c 0
 541 220 536.833 240.833 528.5 260.5 c 0
 520.167 280.167 508.667 297.333 494 312 c 0
 479.332 326.667 462.166 338.333 442.5 347 c 0
 422.833 355.667 401.666 360 379 360 c 0
 357 360 336.167 355.667 316.5 347 c 0
 296.833 338.332 279.667 326.665 265 312 c 0
 250.333 297.333 238.667 280.166 230 260.5 c 0
 221.333 240.833 217 220 217 198 c 0
 217 175.333 221.333 154.167 230 134.5 c 0
 238.667 114.833 250.334 97.6666 265 83 c 0
 279.667 68.3333 296.833 56.6667 316.5 48 c 0
 336.167 39.3333 357 35 379 35 c 0
858 552 m 1
 857 553 l 1
 857 414 l 2
 857 400 852 388 842 378 c 0
 832 368 819.667 363 805 363 c 0
 791 363 778.333 368 767 378 c 1
 757 388 752 400 752 414 c 2
 752 501 l 1
 603 352 l 1
 618.333 330 630.167 306 638.5 280 c 0
 646.833 254 651 226.667 651 198 c 0
 651 160.667 643.833 125.5 629.5 92.5 c 0
 615.167 59.5 595.667 30.6667 571 6 c 0
 546.333 -18.6667 517.5 -38.1667 484.5 -52.5 c 0
 451.5 -66.8333 416.333 -74 379 -74 c 0
 341.667 -74 306.5 -66.8333 273.5 -52.5 c 0
 240.5 -38.1667 211.667 -18.6667 187 6 c 0
 162.333 30.6667 143 59.5 129 92.5 c 0
 115 125.5 108 160.667 108 198 c 0
 108 235.333 115 270.5 129 303.5 c 0
 143 336.5 162.333 365.167 187 389.5 c 0
 211.667 413.834 240.5 433.167 273.5 447.5 c 0
 306.5 461.833 341.667 469 379 469 c 0
 407 469 433.333 465.167 458 457.5 c 0
 482.667 449.833 505.667 439 527 425 c 1
 526 426 l 1
 678 577 l 1
 590 577 l 2
 575.333 577 563.333 582.333 554 593 c 1
 548.658 597.667 544.825 603.167 542.5 609.5 c 0
 540.167 615.833 539 622.667 539 630 c 0
 539 644.667 544 657 554 667 c 1
 562.667 677 574.667 682 590 682 c 2
 718 682 l 1
 751 682 l 1
 858 682 l 1
 858 552 l 1
EndSplineSet
EndChar

StartChar: uniF093
Encoding: 61587 61587 147
Width: 1000
VWidth: 0
Flags: H
LayerCount: 2
Fore
SplineSet
541 427 m 0
 531.667 427 525 430.667 521 438 c 2
 415 604 l 2
 411.667 609.333 410.667 615.333 412 622 c 0
 413.34 628.667 416.673 633.667 422 637 c 0
 427.337 640.333 433.17 641.333 439.5 640 c 0
 445.833 638.647 450.667 635.314 454 630 c 2
 560 463 l 2
 563.333 457.667 564.333 451.667 563 445 c 0
 561.666 438.333 558.332 433.333 553 430 c 0
 549 428 545 427 541 427 c 0
966 407 m 0
 970 401 971.333 394.333 970 387 c 0
 968.667 381 964.5 374 957.5 366 c 0
 950.5 358 938.333 349.333 921 340 c 1
 903.667 341.339 887.167 343.172 871.5 345.5 c 0
 855.833 347.833 842 350 830 352 c 0
 816 354.667 803 357.333 791 360 c 1
 789.643 353.333 787.809 346.333 785.5 339 c 0
 783.155 331.667 780.321 324 777 316 c 1
 746.333 322 719.833 330.833 697.5 342.5 c 0
 675.167 354.167 656.5 366 641.5 378 c 0
 626.5 390 614.833 401.167 606.5 411.5 c 0
 598.167 421.835 593 428.668 591 432 c 1
 719 563 l 1
 742 646 l 1
 791 586 l 1
 806.333 582.667 819 579.667 829 577 c 0
 839 574.333 847 572 853 570 c 0
 860.333 567.333 865.667 565 869 563 c 0
 876.333 558.333 882 551 886 541 c 0
 890 531 893.333 520.5 896 509.5 c 0
 898.667 498.5 901 488.333 903 479 c 0
 905 469.667 907.667 463 911 459 c 0
 918.333 451.667 926.333 445 935 439 c 0
 943.667 433 954 422.333 966 407 c 0
489 237 m 0
 486.333 185.667 485.333 149.667 486 129 c 1
 477.333 129.667 468 130.667 458 132 c 0
 448 133.333 438.5 134.5 429.5 135.5 c 0
 420.5 136.5 412.833 137.5 406.5 138.5 c 0
 400.167 139.5 396 140 394 140 c 0
 376.667 142 370.333 134.333 375 117 c 2
 417 -52 l 2
 419.667 -63.3333 417.833 -73.8333 411.5 -83.5 c 0
 405.167 -93.1667 396.333 -99.6667 385 -103 c 0
 383.667 -103 382 -103.167 380 -103.5 c 0
 378 -103.833 376.333 -104 375 -104 c 0
 365 -104 356.167 -101 348.5 -95 c 0
 340.831 -89 335.664 -81.3333 333 -72 c 2
 279 140 l 2
 277.667 147.333 273.5 150.833 266.5 150.5 c 0
 259.5 150.167 255 146.667 253 140 c 2
 203 -71 l 2
 200.333 -81 195 -89 187 -95 c 0
 179 -101 170.333 -104 161 -104 c 0
 156.333 -104 153 -103.667 151 -103 c 0
 139 -99.6667 129.833 -93.1667 123.5 -83.5 c 0
 117.167 -73.8333 115.333 -63.3333 118 -52 c 2
 179 198 l 1
 184 349 l 1
 158.667 355 136.833 363.333 118.5 374 c 0
 100.167 384.667 85.1667 395.5 73.5 406.5 c 0
 61.8333 417.5 53.1667 427 47.5 435 c 0
 41.8333 443 38.6667 447.667 38 449 c 0
 34 456.333 33.1667 463.833 35.5 471.5 c 0
 37.8333 479.167 42.6667 485 50 489 c 0
 57.3333 493 65 494 73 492 c 0
 81 490 87.3333 485.333 92 478 c 0
 92 477.333 93.5 474.833 96.5 470.5 c 0
 99.5 466.167 104.167 461 110.5 455 c 0
 116.833 449 124.667 442.5 134 435.5 c 0
 143.333 428.5 154.667 422.333 168 417 c 0
 171.333 415.667 175.333 414.667 180 414 c 0
 188 412 199.333 411 214 411 c 2
 512 411 l 1
 505.329 382.333 500.163 352.5 496.5 321.5 c 0
 492.833 290.5 490.333 262.333 489 237 c 0
559 394 m 1
 565 386 573.333 376.333 584 365 c 0
 594.667 353.667 608.167 342 624.5 330 c 0
 640.833 318 660.167 306.667 682.5 296 c 0
 704.833 285.333 730.667 277 760 271 c 1
 757.333 263.667 754.833 256.667 752.5 250 c 0
 750.144 243.333 747.31 236.667 744 230 c 0
 742 224.667 739.5 217.5 736.5 208.5 c 0
 733.5 199.5 734.333 186.333 739 169 c 0
 741 160.333 744.667 146.667 750 128 c 0
 754 112 759.833 89.6667 767.5 61 c 0
 775.173 32.3333 785.339 -5 798 -51 c 0
 801.333 -62.3333 799.833 -73 793.5 -83 c 0
 787.161 -93 778.327 -99.3333 767 -102 c 0
 765 -102.667 763.167 -103.167 761.5 -103.5 c 0
 759.833 -103.833 758 -104 756 -104 c 0
 746.667 -104 738 -101 730 -95 c 0
 722 -89 716.667 -81.3333 714 -72 c 2
 671 92 l 1
 667.667 98 664.167 102 660.5 104 c 0
 656.833 106 652.667 107.333 648 108 c 0
 642.667 109.333 637.667 109 633 107 c 0
 628.333 105 625 100 623 92 c 2
 584 -71 l 2
 581.333 -81 576 -89 568 -95 c 0
 560 -101 551.333 -104 542 -104 c 0
 540.667 -104 539 -103.833 537 -103.5 c 0
 535 -103.167 533.333 -103 532 -103 c 0
 520.667 -99.6667 511.667 -93.1667 505 -83.5 c 0
 498.318 -73.8333 496.651 -63.3333 500 -52 c 2
 537 100 l 2
 537.667 105.333 537.333 110.667 536 116 c 1
 536 126 536.167 141.5 536.5 162.5 c 0
 536.833 183.5 537.667 207 539 233 c 0
 540.333 259 542.667 286.167 546 314.5 c 0
 549.333 342.833 553.667 369.333 559 394 c 1
EndSplineSet
EndChar

StartChar: uniF096
Encoding: 61590 61590 150
Width: 402
Flags: HW
LayerCount: 2
Fore
SplineSet
62 358 m 2
 15 358 l 1
 15 451 l 1
 294 451 l 1
 294 126 l 2
 294 112.667 298.667 101.5 308 92.5 c 0
 317.333 83.5 328.333 79 341 79 c 2
 387 79 l 1
 387 -14 l 1
 15 -14 l 1
 15 79 l 1
 62 79 l 2
 74.6667 79 85.5 83.5 94.5 92.5 c 0
 103.5 101.5 108 112.667 108 126 c 2
 108 312 l 2
 108 324.667 103.5 335.5 94.5 344.5 c 0
 85.5 353.5 74.6667 358 62 358 c 2
108 637 m 0
 108 699 139 730 201 730 c 0
 263 730 294 699 294 637 c 0
 294 575 263 544 201 544 c 0
 139 544 108 575 108 637 c 0
EndSplineSet
EndChar

StartChar: uniF097
Encoding: 61591 61591 151
Width: 588
Flags: HW
LayerCount: 2
Fore
SplineSet
341 730 m 1
 573 498 l 1
 573 -14 l 1
 15 -14 l 1
 15 730 l 1
 341 730 l 1
108 79 m 1
 480 79 l 1
 480 451 l 1
 294 451 l 1
 294 637 l 1
 108 637 l 1
 108 79 l 1
EndSplineSet
EndChar

StartChar: uniF099
Encoding: 61593 61593 153
Width: 1024
VWidth: 1024
Flags: HW
LayerCount: 2
Fore
SplineSet
784 697 m 4
 802.667 695 827 678.667 857 648 c 5
 887.667 618 904.334 593 907 573 c 5
 902 555 l 5
 830 480 l 5
 691 620 l 5
 763 692 l 6
 767 696 774 697.667 784 697 c 4
787 437 m 5
 383 30 l 5
 244 170 l 5
 648 576 l 5
 787 437 l 5
356 3 m 5
 93 -123 l 5
 217 141 l 5
 356 3 l 5
 356 3 l 5
EndSplineSet
EndChar

StartChar: uniF09A
Encoding: 61594 61594 154
Width: 1024
VWidth: 1024
Flags: HW
LayerCount: 2
Fore
SplineSet
210 680 m 6
 102.667 680 49 626.333 49 519 c 6
 49 83 l 6
 49 -25.667 102.667 -80 210 -80 c 6
 805 -80 l 6
 913 -80 967 -25.667 967 83 c 6
 967 459 l 5
 887 379 l 5
 887 83 l 6
 887 27.667 859.667 0 805 0 c 6
 210 0 l 6
 156 0 129 27.667 129 83 c 6
 129 519 l 6
 129 573 156 600 210 600 c 6
 636 600 l 5
 715 680 l 5
 210 680 l 6
850 654 m 4
 847.333 654 845 653.333 843 652 c 6
 775 600 l 5
 876 471 l 5
 943 525 l 5
 949 540 l 5
 949 556 938 578.333 916 607 c 4
 894.667 635 876 650.333 860 653 c 4
 856 653.667 852.667 654 850 654 c 4
735 569 m 5
 358 280 l 5
 458 150 l 5
 836 441 l 5
 735 569 l 5
333 259 m 5
 203 56 l 5
 433 130 l 5
 333 259 l 5
EndSplineSet
EndChar

StartChar: uniF09B
Encoding: 61595 61595 155
Width: 1024
VWidth: 1024
Flags: HW
LayerCount: 2
Fore
SplineSet
938 650.059 m 4
 962 627.393 973.333 594.726 972 552.059 c 5
 972 48.0586 l 5
 972.667 29.3926 970.5 12.0586 965.5 -3.94141 c 4
 960.5 -19.9414 952.667 -33.6074 942 -44.9414 c 4
 930.665 -56.9414 917.332 -65.9414 902 -71.9414 c 4
 886 -77.9414 868 -80.6074 848 -79.9414 c 5
 180 -79.9414 l 5
 140.667 -81.2744 109.667 -71.2744 87 -49.9414 c 4
 62.333 -27.2744 50.667 5.39258 52 48.0586 c 5
 52 552.059 l 5
 50.667 591.393 60.667 622.726 82 646.059 c 4
 104.667 670.059 137.333 681.393 180 680.059 c 5
 844 680.059 l 5
 883.333 681.393 914.667 671.393 938 650.059 c 4
881 587.059 m 4
 872.333 596.393 860 600.726 844 600.059 c 5
 180 600.059 l 5
 173.333 601.393 167 600.726 161 598.059 c 5
 154.333 596.059 148.667 592.726 144 588.059 c 4
 139.333 583.393 136 577.726 134 571.059 c 4
 132 565.059 131.333 558.726 132 552.059 c 5
 132 48.0586 l 5
 131.334 34.0586 135.167 22.3926 143.5 13.0586 c 4
 151.833 3.72461 163 -0.608398 177 0.0585938 c 5
 847 0.0585938 l 5
 861 -0.607422 872.167 3.72559 880.5 13.0586 c 4
 888.833 22.3926 892.667 34.0586 892 48.0586 c 5
 892 552.059 l 5
 892.667 566.731 889 578.398 881 587.059 c 4
681 356.059 m 5
 684.333 354.059 687 351.393 689 348.059 c 6
 828 133.059 l 5
 830.667 130.393 832 127.059 832 123.059 c 4
 832 117.059 829.667 111.726 825 107.059 c 4
 820.333 101.726 815 99.3926 809 100.059 c 5
 214 100.059 l 5
 210 99.3926 205.333 101.059 200 105.059 c 4
 194.667 109.726 192 115.393 192 122.059 c 6
 192 126.059 l 5
 192.668 128.726 193.335 130.726 194 132.059 c 6
 399 489.059 l 6
 401 492.393 404 495.059 408 497.059 c 4
 410.667 499.059 413.833 500.059 417.5 500.059 c 4
 421.167 500.059 424.333 499.393 427 498.059 c 4
 431 496.703 434 494.37 436 491.059 c 6
 570 304.059 l 5
 545 266.059 l 6
 543.667 264.059 542.667 262.059 542 260.059 c 4
 541.333 258.059 541 255.726 541 253.059 c 4
 541 247.726 543.333 242.893 548 238.559 c 4
 552.667 234.226 558.334 232.059 565 232.059 c 4
 568.333 232.059 571.333 233.059 574 235.059 c 4
 575.333 236.393 578.333 239.059 583 243.059 c 5
 651 348.059 l 5
 657.677 352.734 661.344 355.401 662 356.059 c 4
 664 357.393 666.667 358.059 670 358.059 c 4
 674.677 358.059 678.344 357.393 681 356.059 c 5
 681 356.059 l 5
EndSplineSet
EndChar

StartChar: uniF09C
Encoding: 61596 61596 156
Width: 1024
VWidth: 1024
Flags: HW
LayerCount: 2
Fore
SplineSet
475.684 121 m 5
 466.35 112.333 461.684 101.333 461.684 88 c 4
 461.684 73.333 466.35 61 475.684 51 c 5
 485.684 41.667 497.684 37 511.684 37 c 4
 525.018 37 536.35 41.667 545.684 51 c 4
 555.018 61 559.684 73.333 559.684 88 c 4
 559.684 100.667 555.018 111.667 545.684 121 c 5
 536.348 131.667 525.016 137 511.684 137 c 4
 497.684 137 485.684 131.667 475.684 121 c 5
548.684 411 m 6
 548.684 421 544.684 430 536.684 438 c 4
 530.018 444.667 521.684 448 511.684 448 c 4
 500.35 448 491.35 444.667 484.684 438 c 4
 476.684 430 472.684 421 472.684 411 c 6
 472.684 236 l 6
 472.684 225.333 476.684 216.333 484.684 209 c 5
 491.35 201.667 500.35 198 511.684 198 c 4
 521.684 198 530.018 201.667 536.684 209 c 5
 544.684 216.333 548.684 225.333 548.684 236 c 6
 548.684 411 l 6
509.684 661 m 5
 535.684 661 557.018 646 573.684 616 c 5
 920.684 30 l 6
 938.684 0.666992 942.018 -24.667 930.684 -46 c 4
 919.35 -66.667 896.35 -77 861.684 -77 c 6
 161.684 -77 l 6
 127.018 -77 104.018 -66.667 92.6836 -46 c 4
 80.6836 -24.667 83.6836 0.666992 101.684 30 c 6
 446.684 616 l 6
 464.018 646 485.018 661 509.684 661 c 5
 509.684 661 l 5
EndSplineSet
EndChar

StartChar: uniF0A0
Encoding: 61600 61600 160
Width: 297
VWidth: 1024
Flags: HW
LayerCount: 2
Fore
SplineSet
5 509 m 1
 120 509 l 1
 293 650 l 1
 293 165 l 1
 120 306 l 1
 5 306 l 1
 5 509 l 1
EndSplineSet
EndChar

StartChar: uniF0A2
Encoding: 61602 61602 162
Width: 497
VWidth: 1024
Flags: HW
LayerCount: 2
Fore
SplineSet
5 509 m 1
 120 509 l 1
 293 650 l 1
 293 165 l 1
 120 306 l 1
 5 306 l 1
 5 509 l 1
358 532 m 0
 392 498 409.333 456.667 410 408 c 0
 410 361.333 392.667 321.333 358 288 c 0
 353.333 282.667 347.5 280 340.5 280 c 0
 333.5 280 327.5 282.5 322.5 287.5 c 0
 317.5 292.5 315 298.5 315 305.5 c 0
 315 312.5 317.667 318.667 323 324 c 0
 347 348 359 376.333 359 409 c 0
 359 442.333 347 471.333 323 496 c 0
 318.333 500.667 315.833 506.5 315.5 513.5 c 0
 315.167 520.5 317.5 526.667 322.5 532 c 0
 327.5 537.333 333.5 539.833 340.5 539.5 c 0
 347.5 539.167 353.333 536.667 358 532 c 0
418 591 m 0
 468 541 493 480.667 493 410 c 0
 493 339.333 468 278.667 418 228 c 0
 412.667 223.333 406.5 221 399.5 221 c 0
 392.5 221 386.5 223.667 381.5 229 c 0
 376.5 234.333 374 240.333 374 247 c 0
 374 253.668 376.333 259.668 381 265 c 0
 421 304.333 441 352.5 441 409.5 c 0
 441 466.5 421 515 381 555 c 0
 376.333 559.667 374 565.667 374 573 c 0
 374 580.333 376.5 586.333 381.5 591 c 0
 386.5 595.667 392.5 598 399.5 598 c 0
 406.5 598 412.667 595.667 418 591 c 0
EndSplineSet
EndChar

StartChar: uniF0A3
Encoding: 61603 61603 163
Width: 576
VWidth: 1024
Flags: HW
LayerCount: 2
Fore
SplineSet
5 509 m 1
 120 509 l 1
 293 650 l 1
 293 165 l 1
 120 306 l 1
 5 306 l 1
 5 509 l 1
358 532 m 0
 392 498 409.333 456.667 410 408 c 0
 410 361.333 392.667 321.333 358 288 c 0
 353.333 282.667 347.5 280 340.5 280 c 0
 333.5 280 327.5 282.5 322.5 287.5 c 0
 317.5 292.5 315 298.5 315 305.5 c 0
 315 312.5 317.667 318.667 323 324 c 0
 347 348 359 376.333 359 409 c 0
 359 442.333 347 471.333 323 496 c 0
 318.333 500.667 315.833 506.5 315.5 513.5 c 0
 315.167 520.5 317.5 526.667 322.5 532 c 0
 327.5 537.333 333.5 539.833 340.5 539.5 c 0
 347.5 539.167 353.333 536.667 358 532 c 0
418 591 m 0
 468 541 493 480.667 493 410 c 0
 493 339.333 468 278.667 418 228 c 0
 412.667 223.333 406.5 221 399.5 221 c 0
 392.5 221 386.5 223.667 381.5 229 c 0
 376.5 234.333 374 240.333 374 247 c 0
 374 253.668 376.333 259.668 381 265 c 0
 421 304.333 441 352.5 441 409.5 c 0
 441 466.5 421 515 381 555 c 0
 376.333 559.667 374 565.667 374 573 c 0
 374 580.333 376.5 586.333 381.5 591 c 0
 386.5 595.667 392.5 598 399.5 598 c 0
 406.5 598 412.667 595.667 418 591 c 0
473 646 m 0
 503.667 615.333 527.667 579.667 545 539 c 0
 562.333 498.333 571 455.333 571 410 c 0
 571 364.667 562.333 321.5 545 280.5 c 0
 527.666 239.5 503.666 203.667 473 173 c 0
 468.333 167.667 462.333 165 455 165 c 0
 447.667 165 441.5 167.5 436.5 172.5 c 0
 431.5 177.5 429 183.667 429 191 c 0
 429 198.333 431.667 204.333 437 209 c 0
 492.333 264.333 520 331.167 520 409.5 c 0
 520 487.833 492.333 554.667 437 610 c 0
 431.667 614.667 429 620.667 429 628 c 0
 429 635.333 431.5 641.5 436.5 646.5 c 0
 441.5 651.5 447.667 654 455 654 c 0
 462.333 654 468.333 651.333 473 646 c 0
EndSplineSet
EndChar

StartChar: uniF0A4
Encoding: 61604 61604 164
Width: 925
Flags: HW
LayerCount: 2
Fore
SplineSet
641 181 m 2
 641 287 l 1
 619 274.332 590 264.166 554 256.5 c 0
 518 248.833 484.5 242.667 453.5 238 c 0
 422.5 233.333 392.333 226.833 363 218.5 c 0
 333.667 210.167 310.333 196 293 176 c 0
 275.667 156 267 129.667 267 97 c 0
 267 55.6667 280.333 24.1667 307 2.5 c 0
 333.667 -19.1667 368 -30 410 -30 c 0
 478.667 -30 534.333 -11.6667 577 25 c 0
 619.667 61.6667 641 113.667 641 181 c 2
925 -173 m 1
 661 -173 l 1
 651 -146.333 645 -115.667 643 -81 c 1
 563 -160.333 461 -200 337 -200 c 0
 273.667 -200 217.333 -190.333 168 -171 c 0
 118.667 -151.667 78.3333 -120 47 -76 c 0
 15.6667 -32 0 22 0 86 c 0
 0 112.667 2.83333 137.333 8.5 160 c 0
 14.1667 182.667 21.1667 202.5 29.5 219.5 c 0
 37.8333 236.5 49.6667 252.333 65 267 c 0
 80.3334 281.667 94.6667 293.833 108 303.5 c 0
 121.333 313.167 139.167 322.333 161.5 331 c 0
 183.833 339.667 203 346.5 219 351.5 c 0
 235 356.5 256.333 361.5 283 366.5 c 0
 309.667 371.5 330.833 375.167 346.5 377.5 c 0
 362.167 379.839 384 382.672 412 386 c 0
 445.334 390 478.667 395 512 401 c 0
 528 403.667 540.333 406 549 408 c 0
 557.667 410 569 413.667 583 419 c 0
 597 424.333 607.667 430 615 436 c 0
 622.333 442 628.833 450.5 634.5 461.5 c 0
 640.167 472.5 643 485.333 643 500 c 0
 643 584 586.333 626 473 626 c 0
 415 626 371.5 615.5 342.5 594.5 c 0
 313.5 573.5 294.667 535.667 286 481 c 1
 42 481 l 1
 46 541 60.6667 592.333 86 635 c 0
 111.333 677.667 144.833 710.667 186.5 734 c 0
 228.167 757.333 273 774.167 321 784.5 c 0
 369 794.833 422 800 480 800 c 0
 525.333 800 566.833 797.5 604.5 792.5 c 0
 642.168 787.5 679.335 778 716 764 c 0
 752.667 750 783.5 731.833 808.5 709.5 c 0
 833.5 687.167 853.667 657.5 869 620.5 c 0
 884.333 583.5 892 540.667 892 492 c 2
 892 84 l 2
 892 41.3333 892.167 11 892.5 -7 c 0
 892.833 -25 895.667 -50.8333 901 -84.5 c 0
 906.333 -118.167 914.333 -147.667 925 -173 c 1
EndSplineSet
EndChar

StartChar: uniF0A5
Encoding: 61605 61605 165
Width: 1000
Flags: HW
LayerCount: 2
Fore
SplineSet
89 349 m 1
 239 242 l 1
 89 136 l 1
 89 349 l 1
1000 14 m 1
 1000 -199 l 1
 331 -199 l 1
 331 14 l 1
 1000 14 l 1
1000 349 m 1
 1000 136 l 1
 331 136 l 1
 331 349 l 1
 1000 349 l 1
1000 683 m 1
 1000 470 l 1
 331 470 l 1
 331 683 l 1
 1000 683 l 1
EndSplineSet
EndChar

StartChar: uniF0A8
Encoding: 61608 61608 168
Width: 1000
Flags: HW
LayerCount: 2
Fore
SplineSet
233 -128 m 0
 233 -147.333 226 -162.5 212 -173.5 c 0
 198 -184.5 181.333 -190 162 -190 c 0
 140.667 -190 123.5 -184.167 110.5 -172.5 c 0
 97.5 -160.833 91 -144.667 91 -124 c 2
 91 -121 l 1
 129 -121 l 1
 129 -145.667 139.667 -158 161 -158 c 0
 170.333 -158 178 -155.333 184 -150 c 0
 190 -144.667 193 -137.333 193 -128 c 0
 193 -118.667 189.667 -111.5 183 -106.5 c 0
 176.333 -101.5 168 -99.3333 158 -100 c 1
 149 -100 l 1
 149 -73 l 1
 175.667 -74.3333 189 -66.3333 189 -49 c 0
 189 -41.6667 186.5 -35.8333 181.5 -31.5 c 0
 176.5 -27.1667 170 -25 162 -25 c 0
 142.667 -25 133 -36 133 -58 c 1
 96 -58 l 1
 96.6667 -38 102.833 -22.3333 114.5 -11 c 0
 126.167 0.333333 142 6 162 6 c 0
 179.333 6 194.333 1.5 207 -7.5 c 0
 219.667 -16.5 226 -29.3333 226 -46 c 0
 226 -54.6667 223.5 -62.6667 218.5 -70 c 0
 213.5 -77.3333 207 -82 199 -84 c 1
 221.667 -89.3333 233 -104 233 -128 c 0
232 175 m 1
 232 142 l 1
 91 142 l 1
 91.6667 160.667 97.3333 176.833 108 190.5 c 0
 118.667 204.167 130.167 214.167 142.5 220.5 c 0
 154.833 226.833 166.167 234.667 176.5 244 c 0
 186.833 253.333 192 263.333 192 274 c 0
 192 282 189.5 288.5 184.5 293.5 c 0
 179.5 298.5 172.667 301 164 301 c 0
 144.666 301 134.333 287.333 133 260 c 1
 96 260 l 1
 96 282.667 102 300.833 114 314.5 c 0
 126 328.167 143.333 335 166 335 c 0
 184.667 335 200.167 329.667 212.5 319 c 0
 224.833 308.333 231 294 231 276 c 0
 231 259.333 225.5 245.667 214.5 235 c 0
 203.5 224.333 190.167 214.167 174.5 204.5 c 0
 158.833 194.833 147.667 185 141 175 c 1
 232 175 l 1
1000 14 m 1
 1000 -199 l 1
 331 -199 l 1
 331 14 l 1
 1000 14 l 1
196 662 m 1
 196 470 l 1
 154 470 l 1
 154 595 l 1
 108 595 l 1
 108 624 l 1
 140.667 624 159.333 636.667 164 662 c 1
 196 662 l 1
1000 349 m 1
 1000 136 l 1
 331 136 l 1
 331 349 l 1
 1000 349 l 1
1000 683 m 1
 1000 470 l 1
 331 470 l 1
 331 683 l 1
 1000 683 l 1
EndSplineSet
EndChar

StartChar: uniF0A9
Encoding: 61609 61609 169
Width: 1000
Flags: HW
LayerCount: 2
Fore
SplineSet
120 -79 m 1
 320 -79 l 1
 320 121 l 1
 120 121 l 1
 120 -79 l 1
440 241 m 1
 440 -199 l 1
 0 -199 l 1
 0 241 l 1
 440 241 l 1
680 -79 m 1
 880 -79 l 1
 880 121 l 1
 680 121 l 1
 680 -79 l 1
1000 241 m 1
 1000 -199 l 1
 560 -199 l 1
 560 241 l 1
 1000 241 l 1
120 481 m 1
 320 481 l 1
 320 681 l 1
 120 681 l 1
 120 481 l 1
440 801 m 1
 440 361 l 1
 0 361 l 1
 0 801 l 1
 440 801 l 1
680 481 m 1
 880 481 l 1
 880 681 l 1
 680 681 l 1
 680 481 l 1
1000 801 m 1
 1000 361 l 1
 560 361 l 1
 560 801 l 1
 1000 801 l 1
EndSplineSet
EndChar

StartChar: uniF0AA
Encoding: 61610 61610 170
Width: 1000
Flags: HW
LayerCount: 2
Fore
SplineSet
120 -79 m 1
 320 -79 l 1
 320 121 l 1
 120 121 l 1
 120 -79 l 1
440 241 m 1
 440 -199 l 1
 0 -199 l 1
 0 241 l 1
 440 241 l 1
1000 -39 m 1
 1000 -199 l 1
 560 -199 l 1
 560 -39 l 1
 1000 -39 l 1
120 481 m 1
 320 481 l 1
 320 681 l 1
 120 681 l 1
 120 481 l 1
440 801 m 1
 440 361 l 1
 0 361 l 1
 0 801 l 1
 440 801 l 1
1000 241 m 1
 1000 81 l 1
 560 81 l 1
 560 241 l 1
 1000 241 l 1
1000 521 m 1
 1000 361 l 1
 560 361 l 1
 560 521 l 1
 1000 521 l 1
1000 801 m 1
 1000 641 l 1
 560 641 l 1
 560 801 l 1
 1000 801 l 1
EndSplineSet
EndChar

StartChar: uniF0AB
Encoding: 61611 61611 171
Width: 1000
Flags: HW
LayerCount: 2
Fore
SplineSet
1000 -39 m 1
 1000 -199 l 1
 0 -199 l 1
 0 -39 l 1
 1000 -39 l 1
1000 241 m 1
 1000 81 l 1
 0 81 l 1
 0 241 l 1
 1000 241 l 1
1000 521 m 1
 1000 361 l 1
 0 361 l 1
 0 521 l 1
 1000 521 l 1
1000 801 m 1
 1000 641 l 1
 0 641 l 1
 0 801 l 1
 1000 801 l 1
EndSplineSet
EndChar

StartChar: uniF0AC
Encoding: 61612 61612 172
Width: 754
VWidth: 1024
Flags: HW
LayerCount: 2
Fore
SplineSet
377 781 m 0
 444.333 781 506.5 764.5 563.5 731.5 c 0
 620.5 698.5 665.833 653.5 699.5 596.5 c 0
 733.167 539.5 750 477.167 750 409.5 c 0
 750 341.833 733.167 279.5 699.5 222.5 c 0
 665.833 165.5 620.5 120.5 563.5 87.5 c 0
 506.5 54.5 444.333 38 377 38 c 0
 309.667 38 247.333 54.5 190 87.5 c 0
 132.667 120.5 87.5 165.5 54.5 222.5 c 0
 21.5 279.5 5 341.833 5 409.5 c 0
 5 477.167 21.5 539.5 54.5 596.5 c 0
 87.5 653.5 132.667 698.5 190 731.5 c 0
 247.333 764.5 309.667 781 377 781 c 0
377 82 m 0
 397 82 414 89 428 103 c 0
 442 117 449 133.833 449 153.5 c 0
 449 173.167 442 190.167 428 204.5 c 0
 414 218.833 397 226 377 226 c 0
 357 226 340 218.833 326 204.5 c 0
 312 190.167 305 173.167 305 153.5 c 0
 305 133.833 312 117 326 103 c 0
 340 89 357 82 377 82 c 0
377 280 m 1
 579 447 l 1
 489 447 l 1
 489 672 l 1
 265 672 l 1
 265 447 l 1
 176 447 l 1
 377 280 l 1
EndSplineSet
EndChar

StartChar: uniF0B0
Encoding: 61616 61616 176
Width: 714
VWidth: 1024
Flags: HW
LayerCount: 2
Fore
SplineSet
363.5 598 m 0
 400.5 598 432.167 585.667 458.5 561 c 0
 484.833 536.333 498 507 498 473 c 0
 498 439 484.833 409.833 458.5 385.5 c 0
 432.167 361.167 400.5 349 363.5 349 c 0
 326.5 349 294.833 361.167 268.5 385.5 c 0
 242.167 409.833 229 439 229 473 c 0
 229 507 242.167 536.333 268.5 561 c 0
 294.833 585.667 326.5 598 363.5 598 c 0
702 474 m 0
 706 453.333 708 433 708 413 c 0
 708 385.667 704.333 359.333 697 334 c 0
 675 264 636.5 206 581.5 160 c 0
 526.5 114 461.667 90.3333 387 89 c 1
 386 89 l 1
 372 85 357 83 341 83 c 0
 309.667 83 274 90.3333 234 105 c 0
 174.667 127 124 163 82 213 c 1
 54.6667 244.333 33.3333 285.333 18 336 c 0
 9.33333 364 5 392 5 420 c 0
 5 457.334 13 494.667 29 532 c 1
 53 583.333 78 622.667 104 650 c 0
 127.333 675.333 149.333 688 170 688 c 2
 175 688 l 1
 175 686 l 1
 175 685 l 2
 175 692.333 175.667 699.333 177 706 c 1
 222.333 732.667 270.667 748.667 322 754 c 1
 336 754.667 349.333 755 362 755 c 0
 398.667 755 433.667 750 467 740 c 1
 511.667 725.333 551.667 702.833 587 672.5 c 0
 622.333 642.167 647.667 606.667 663 566 c 1
 662.333 566.667 661.5 568.167 660.5 570.5 c 0
 659.5 572.833 658.667 575 658 577 c 1
 680.668 545 695.335 510.667 702 474 c 0
101 229 m 0
 133 192.333 171.667 163 217 141 c 1
 209.667 148.333 202.667 156.333 196 165 c 1
 195 167 l 1
 189.667 173.667 185.5 179.167 182.5 183.5 c 0
 179.5 187.833 176.333 194.5 173 203.5 c 0
 169.667 212.5 169.167 221.5 171.5 230.5 c 0
 173.833 239.5 179 248.333 187 257 c 0
 190.333 261 196 265.667 204 271 c 1
 209 276 l 1
 273 334 l 1
 244.333 354 223 378.667 209 408 c 0
 198.333 430.667 193 455.333 193 482 c 0
 193 489.333 193.333 497 194 505 c 1
 190.665 512.333 187.332 518.333 184 523 c 2
 171 543 l 1
 163 553.667 157.333 562 154 568 c 0
 138.667 594 129 616.667 125 636 c 1
 100.333 611.333 76 573.667 52 523 c 1
 38 489 31 455 31 421 c 0
 31 395 35 369 43 343 c 0
 56.3333 296.333 75.6667 258.333 101 229 c 0
673 341 m 0
 680.333 365.667 684 389.667 684 413 c 0
 684 419.667 683.667 426.333 683 433 c 1
 679.667 433 676 433.667 672 435 c 2
 668 436 l 1
 665 438 l 2
 633 460 591.667 476 541 486 c 1
 541 475 l 2
 541 433 526.667 395.333 498 362 c 1
 472 326.667 430.667 307.333 374 304 c 1
 247 206 l 1
 278.334 160 325.667 129.667 389 115 c 1
 454.334 117 512.834 138.5 564.5 179.5 c 0
 616.168 220.5 652.335 274.333 673 341 c 0
679 460 m 1
 685.667 458 689.667 459.333 691 464 c 0
 691.667 466 692 468 692 470 c 0
 692 474 691 478.667 689 484 c 2
 670 547 l 2
 673.333 535.667 675 527 675 521 c 0
 675 517.651 674.333 515.318 673 514 c 0
 670.333 511.333 665.667 510.333 659 511 c 1
 629.667 519 595.667 526 557 532 c 0
 553 532.667 546.167 533.5 536.5 534.5 c 0
 526.833 535.5 518.167 536.667 510.5 538 c 0
 502.833 539.333 496 541.333 490 544 c 0
 485.333 546 481 548.667 477 552 c 0
 474.33 554.667 470.163 559.167 464.5 565.5 c 0
 458.833 571.833 454 577 450 581 c 1
 429.333 597 407 607.333 383 612 c 0
 375 614 367 615 359 615 c 0
 342.333 615 325 611.333 307 604 c 0
 280.333 594 257 575 237 547 c 1
 232.333 543 228.667 541.833 226 543.5 c 0
 223.333 545.167 221.333 548.667 220 554 c 0
 219.333 558.667 212 575.667 198 605 c 0
 184 634.333 176.667 659.333 176 680 c 1
 176 678 l 1
 176 675 l 1
 170 675 l 2
 155.333 675 148 668 148 654 c 0
 148 646 150.667 635.333 156 622 c 0
 160.667 610 167 596.333 175 581 c 0
 178.333 575.667 183.667 568.167 191 558.5 c 0
 198.333 548.833 203.333 541.667 206 537 c 0
 210.667 529.667 215 520 219 508 c 1
 218.333 500.667 218 493.667 218 487 c 0
 218 460.333 224 435.667 236 413 c 0
 250.667 384.333 273.667 361.333 305 344 c 1
 317 338 l 1
 317.667 336.667 315.333 334 310 330 c 1
 308 328 l 1
 304 325 l 1
 290 314 l 1
 225 257 l 2
 224.333 255.667 222.667 254 220 252 c 2
 212 246 l 2
 209.333 244 207.333 241.667 206 239 c 1
 199.333 233 196.333 226.167 197 218.5 c 0
 197.667 210.833 199.167 205 201.5 201 c 0
 203.833 197 208.667 190.333 216 181 c 0
 240.667 149.667 263 130.667 283 124 c 0
 287 122 290.667 121 294 121 c 1
 296 120.333 298 120 300 120 c 1
 300.667 120.667 301.333 121 302 121 c 1
 302 120 l 1
 303 121 l 1
 269.667 139.667 243 164.333 223 195 c 0
 219.667 199 218 203 218 207 c 0
 218 213 222 219 230 225 c 2
 364 330 l 1
 417.334 331.333 454.667 347 476 377 c 1
 502 407 515 440.667 515 478 c 0
 515 490.667 513.333 504 510 518 c 1
 582.667 506.667 639 487.333 679 460 c 1
EndSplineSet
EndChar

StartChar: uniF0B3
Encoding: 61619 61619 179
Width: 1024
VWidth: 1024
Flags: HW
LayerCount: 2
Fore
SplineSet
40 776 m 2
 40 861.333 82.6667 904 168 904 c 2
 460 904 l 1
 460 824 l 1
 168 824 l 2
 136 824 120 808 120 776 c 2
 120 272 l 2
 120 240 136 224 168 224 c 2
 832 224 l 2
 864 224 880 240 880 272 c 2
 880 776 l 2
 880 808 864 824 832 824 c 2
 827 824 l 1
 827 904 l 1
 832 904 l 2
 917.333 904 960 861.333 960 776 c 2
 960 272 l 2
 960 186.667 917.333 144 832 144 c 2
 168 144 l 2
 82.6667 144 40 186.667 40 272 c 2
 40 776 l 2
528 966 m 1
 758 966 l 2
 766 966 772.667 963 778 957 c 1
 784 952.333 787 946 787 938 c 2
 787 450 l 2
 787 442 784.667 437 780 435 c 0
 776 433 770.667 434.333 764 439 c 2
 665 519 l 2
 659 524.333 651.667 527 643 527 c 0
 635 527 627.667 524.333 621 519 c 2
 521 439 l 2
 515.667 434.333 510.667 433 506 435 c 0
 502 437 500 442 500 450 c 2
 500 938 l 2
 500 946 503 952.333 509 957 c 1
 513.667 963 520 966 528 966 c 1
 528 966 l 1
EndSplineSet
EndChar

StartChar: uniF0B4
Encoding: 61620 61620 180
Width: 1024
VWidth: 1024
Flags: HW
LayerCount: 2
Fore
SplineSet
980 434 m 1
 980 384 961.833 341 925.5 305 c 0
 889.167 269 845.667 251 795 251 c 2
 452 251 l 1
 384 195 316 139.333 248 84 c 0
 236.667 74.6667 226.667 72 218 76 c 0
 209.333 80 205 89.3333 205 104 c 2
 205 251 l 1
 154.333 251 110.833 269 74.5 305 c 0
 38.1667 341 20 384 20 434 c 2
 20 691 l 2
 20 741 38.3333 784 75 820 c 0
 111 856 154.333 874 205 874 c 2
 795 874 l 2
 845.667 874 889 856 925 820 c 0
 961.667 784 980 741 980 691 c 2
 980 434 l 1
 980 434 l 1
EndSplineSet
EndChar

StartChar: uniF0B5
Encoding: 61621 61621 181
Width: 1024
VWidth: 1024
Flags: HW
LayerCount: 2
Fore
SplineSet
912 619 m 0
 937.333 593.667 950 564 950 530 c 2
 950 352 l 2
 950 317.333 937.333 287.666 912 263 c 1
 887.333 237.667 858 225 824 225 c 1
 824 123 l 2
 824 113.667 821.333 107.667 816 105 c 0
 810 102.333 803 104 795 110 c 2
 657 225 l 1
 425 225 l 2
 391.667 225 362.333 237.667 337 263 c 0
 312.333 287.667 300 317.333 300 352 c 2
 300 398 l 1
 314.667 409.333 329 421 343 433 c 1
 564 433 l 2
 606 433 642 448.333 672 479 c 0
 672.667 479 673 479.333 673 480 c 0
 703.667 510 719 546.667 719 590 c 2
 719 656 l 1
 824 656 l 2
 858 656 887.333 643.667 912 619 c 0
658 590 m 1
 658 563.333 648.667 540.667 630 522 c 0
 611.333 503.333 589.333 494 564 494 c 2
 321 494 l 1
 195 389 l 1
 195 493 l 1
 165 494 l 1
 139 494 116.667 503.333 98 522 c 0
 94.6667 524.667 91.6667 528 89 532 c 0
 76.3333 548.667 70 568 70 590 c 2
 70 768 l 2
 70 789.333 76.3333 808.667 89 826 c 1
 97 836 l 1
 98 836 l 1
 116.667 854.667 139 864 165 864 c 2
 564 864 l 2
 589.333 864 611.333 854.667 630 836 c 1
 630 836 l 1
 648.667 816.667 658 794 658 768 c 2
 658 590 l 1
 658 590 l 1
EndSplineSet
EndChar

StartChar: uniF0B6
Encoding: 61622 61622 182
Width: 701
VWidth: 1024
Flags: HW
LayerCount: 2
Fore
SplineSet
350 607 m 0
 378 607 409 600.167 443 586.5 c 0
 477 572.833 508.333 556.333 537 537 c 0
 565.667 517.666 592.167 498.499 616.5 479.5 c 0
 640.833 460.5 660.333 444 675 430 c 2
 696 410 l 1
 674 388 l 1
 664 379.333 645 363.666 617 341 c 0
 589 318.333 561.833 298.333 535.5 281 c 0
 509.167 263.667 478.667 247.833 444 233.5 c 0
 409.333 219.167 378 212 350 212 c 0
 314.667 212 278.333 218.833 241 232.5 c 0
 203.667 246.167 171.5 262.667 144.5 282 c 0
 117.5 301.334 93.1667 320.667 71.5 340 c 0
 49.8333 359.334 33.3333 375.667 22 389 c 2
 5 410 l 1
 9 415.333 14.8333 422.333 22.5 431 c 0
 30.1667 439.667 46.3333 455.333 71 478 c 0
 95.6667 500.667 120.667 520.667 146 538 c 0
 171.333 555.333 202.833 571.167 240.5 585.5 c 0
 278.167 599.833 314.667 607 350 607 c 0
350.5 287 m 0
 384.167 287 413.167 298.833 437.5 322.5 c 0
 461.833 346.167 474 375.167 474 409.5 c 0
 474 443.833 461.833 472.833 437.5 496.5 c 0
 413.167 520.167 384.167 532 350.5 532 c 0
 316.833 532 287.833 520.167 263.5 496.5 c 0
 239.167 472.833 227 443.833 227 409.5 c 0
 227 375.167 239.167 346.167 263.5 322.5 c 0
 287.833 298.833 316.833 287 350.5 287 c 0
351 481 m 0
 371 481 388 474 402 460 c 0
 416 446 423 429.167 423 409.5 c 0
 423 389.833 416 373 402 359 c 0
 388 345 371 338 351 338 c 0
 331 338 314 345 300 359 c 0
 286 373 279 389.833 279 409.5 c 0
 279 429.167 286 446 300 460 c 0
 314 474 331 481 351 481 c 0
EndSplineSet
EndChar

StartChar: uniF0B7
Encoding: 61623 61623 183
Width: 701
VWidth: 1024
Flags: HW
LayerCount: 2
Fore
SplineSet
234 370 m 1
 146 282 l 1
 120.667 298.667 96.3333 317.667 73 339 c 0
 49.6667 360.333 32.6667 377.333 22 390 c 2
 5 410 l 1
 9 415.333 14.8333 422.333 22.5 431 c 0
 30.1667 439.667 46.3333 455.333 71 478 c 0
 95.6667 500.667 120.667 520.667 146 538 c 0
 171.333 555.333 202.833 571.167 240.5 585.5 c 0
 278.167 599.833 314.667 607 350 607 c 0
 379.334 607 412.667 599.333 450 584 c 1
 391 525 l 1
 376.333 529.667 362.666 532 350 532 c 0
 316.667 532 287.833 520.167 263.5 496.5 c 0
 239.167 472.833 227 444 227 410 c 0
 227 396.667 229.333 383.333 234 370 c 1
543 532 m 1
 569 515.333 594.5 496.833 619.5 476.5 c 0
 644.5 456.167 663.667 440 677 428 c 2
 696 410 l 1
 674 388 l 1
 664 379.333 645 363.666 617 341 c 0
 589 318.333 561.833 298.333 535.5 281 c 0
 509.167 263.667 478.667 247.833 444 233.5 c 0
 409.333 219.167 378 212 350 212 c 0
 315.333 212 279.666 218.667 243 232 c 1
 306 295 l 1
 320.667 289.667 335.333 287 350 287 c 0
 384 287 413.167 298.833 437.5 322.5 c 0
 461.833 346.167 474 375.333 474 410 c 0
 474 425.333 471 440.333 465 455 c 1
 543 532 l 1
595 693 m 1
 631 657 l 1
 101 128 l 1
 66 164 l 1
 595 693 l 1
EndSplineSet
EndChar

StartChar: uniF0B8
Encoding: 61624 61624 184
Width: 585
VWidth: 1024
Flags: HW
LayerCount: 2
Fore
SplineSet
530 509 m 2
 543.333 509 555.333 504 566 494 c 0
 576.667 484 582 472 582 458 c 2
 582 230 l 1
 477 230 l 1
 477 177 l 2
 477 173.667 475.833 171 473.5 169 c 0
 471.167 167 468.333 166 465 166 c 2
 121 166 l 2
 117.667 166 115 167 113 169 c 0
 111 171 110 173.667 110 177 c 2
 110 230 l 1
 5 230 l 1
 5 458 l 2
 5 472.667 10 484.833 20 494.5 c 0
 30 504.167 42 509 56 509 c 2
 110 509 l 1
 110 659 l 2
 110 662.333 111 665.333 113 668 c 0
 115 670.667 117.667 672 121 672 c 2
 311 672 l 2
 312.333 672 314 671.667 316 671 c 0
 342 668.333 374.333 648 413 610 c 0
 450.333 572.667 471 539 475 509 c 1
 530 509 l 2
454 188 m 1
 454 268 l 1
 132 268 l 1
 132 188 l 1
 454 188 l 1
454 463 m 1
 454 499 l 1
 454 502 l 1
 451.333 515.333 434.333 525.333 403 532 c 1
 384.333 536.667 366 539 348 539 c 2
 336 539 l 1
 336 551 l 1
 337 569 l 1
 337 591 335 609.333 331 624 c 1
 325.667 640 319.333 648 312 648 c 2
 311 648 l 1
 132 648 l 1
 132 470 l 1
 451 470 l 1
 452.333 468.667 453.333 467 454 465 c 1
 454 463 l 1
EndSplineSet
EndChar

StartChar: uniF0B9
Encoding: 61625 61625 185
Width: 695
VWidth: 1024
Flags: HW
LayerCount: 2
Fore
SplineSet
581 284 m 1
 682 343 l 1
 685 345 l 1
 667.665 266.333 627.832 201.5 565.5 150.5 c 0
 503.167 99.5 431 74 349 74 c 0
 287 74 229.5 89.3333 176.5 120 c 0
 123.5 150.667 81.6667 192.5 51 245.5 c 0
 20.3333 298.5 5 356 5 418 c 0
 5 480 20.3333 537.5 51 590.5 c 0
 81.6667 643.5 123.5 685.333 176.5 716 c 0
 229.5 746.667 287 762 349 762 c 0
 431 762 503.167 736.333 565.5 685 c 0
 627.833 633.667 667.667 568.667 685 490 c 1
 682 493 l 1
 581 551 l 1
 557 591.667 524.5 624.167 483.5 648.5 c 0
 442.5 672.833 397.667 685 349 685 c 0
 275 685 212 658.833 160 606.5 c 0
 108 554.167 82 491.333 82 418 c 0
 82 344 108.167 281 160.5 229 c 0
 212.833 177 275.667 151 349 151 c 0
 397.667 151 442.5 163.167 483.5 187.5 c 0
 524.5 211.833 557 244 581 284 c 1
690 418 m 1
 508 312 l 1
 508 371 l 1
 226 371 l 1
 226 465 l 1
 508 465 l 1
 508 523 l 1
 690 418 l 1
EndSplineSet
EndChar

StartChar: uniF0BA
Encoding: 61626 61626 186
Width: 741
VWidth: 1024
Flags: HW
LayerCount: 2
Fore
SplineSet
392 762 m 0
 454 762 511.5 746.667 564.5 716 c 0
 617.5 685.333 659.333 643.5 690 590.5 c 0
 720.667 537.5 736 480 736 418 c 0
 736 356 720.667 298.5 690 245.5 c 0
 659.333 192.5 617.5 150.667 564.5 120 c 0
 511.5 89.3333 454 74 392 74 c 0
 316 74 248.167 96.1667 188.5 140.5 c 0
 128.833 184.833 88 242 66 312 c 1
 147 312 l 1
 167.667 263.333 200.167 224.333 244.5 195 c 0
 288.833 165.667 338 151 392 151 c 0
 466 151 529 177 581 229 c 0
 633 281 659 344 659 418 c 0
 659 492 633 555 581 607 c 0
 529 659 466 685 392 685 c 0
 338 685 288.833 670.167 244.5 640.5 c 0
 200.167 610.833 167.667 571.667 147 523 c 1
 66 523 l 1
 88.6667 593 129.667 650.333 189 695 c 0
 248.333 739.667 316 762 392 762 c 0
286 312 m 1
 286 371 l 1
 5 371 l 1
 5 465 l 1
 286 465 l 1
 286 523 l 1
 469 418 l 1
 286 312 l 1
EndSplineSet
EndChar

StartChar: uniF0BF
Encoding: 61631 61631 191
Width: 1024
VWidth: 1024
Flags: HW
LayerCount: 2
Fore
SplineSet
180 517 m 1
 313 517 l 1
 415 427 l 1
 585 427 l 1
 689 517 l 1
 821 517 l 1
 656 737 l 1
 344 737 l 1
 180 517 l 1
669 797 m 1
 673 797 675.667 796 677 794 c 2
 893 529 l 1
 900.333 517.667 903.667 505.333 903 492 c 1
 903 277 l 2
 903 260.333 894.667 252 878 252 c 2
 123 252 l 2
 106.333 252 98 260.333 98 277 c 2
 98 494 l 1
 96.6667 506 100.333 517.667 109 529 c 2
 324 794 l 2
 326 796 328.667 797 332 797 c 2
 669 797 l 1
 669 797 l 1
EndSplineSet
EndChar

StartChar: uniF0C2
Encoding: 61634 61634 194
Width: 1024
VWidth: 1024
Flags: HW
LayerCount: 2
Fore
SplineSet
158 746 m 2
 92 746 59 713 59 647 c 2
 59 404 l 2
 59 338 92 305 158 305 c 2
 589 305 l 2
 655 305 688 338 688 404 c 2
 688 647 l 2
 688 713 655 746 589 746 c 2
 158 746 l 2
942 743 m 1
 722 601 l 1
 722 445 l 1
 942 302 l 1
 942 743 l 1
EndSplineSet
EndChar
